G75*
%MOIN*%
%OFA0B0*%
%FSLAX25Y25*%
%IPPOS*%
%LPD*%
%AMOC8*
5,1,8,0,0,1.08239X$1,22.5*
%
%ADD10R,0.11811X0.03937*%
D10*
X0048894Y0131191D03*
X0048894Y0139065D03*
X0048894Y0146939D03*
X0048894Y0154813D03*
X0048894Y0162687D03*
X0048894Y0170561D03*
X0048894Y0178435D03*
X0048894Y0186309D03*
X0107949Y0186309D03*
X0107949Y0178435D03*
X0107949Y0170561D03*
X0107949Y0162687D03*
X0107949Y0154813D03*
X0107949Y0146939D03*
X0107949Y0139065D03*
X0107949Y0131191D03*
X0150815Y0131191D03*
X0150815Y0139065D03*
X0150815Y0146939D03*
X0150815Y0154813D03*
X0150815Y0162687D03*
X0150815Y0170561D03*
X0150815Y0178435D03*
X0150815Y0186309D03*
X0209870Y0186309D03*
X0209870Y0178435D03*
X0209870Y0170561D03*
X0209870Y0162687D03*
X0209870Y0154813D03*
X0209870Y0146939D03*
X0209870Y0139065D03*
X0209870Y0131191D03*
X0252736Y0131191D03*
X0252736Y0139065D03*
X0252736Y0146939D03*
X0252736Y0154813D03*
X0252736Y0162687D03*
X0252736Y0170561D03*
X0252736Y0178435D03*
X0252736Y0186309D03*
X0311791Y0186309D03*
X0311791Y0178435D03*
X0311791Y0170561D03*
X0311791Y0162687D03*
X0311791Y0154813D03*
X0311791Y0146939D03*
X0311791Y0139065D03*
X0311791Y0131191D03*
X0311791Y0324892D03*
X0311791Y0332766D03*
X0311791Y0340640D03*
X0311791Y0348514D03*
X0311791Y0356388D03*
X0311791Y0364262D03*
X0311791Y0372136D03*
X0311791Y0380010D03*
X0252736Y0380010D03*
X0252736Y0372136D03*
X0252736Y0364262D03*
X0252736Y0356388D03*
X0252736Y0348514D03*
X0252736Y0340640D03*
X0252736Y0332766D03*
X0252736Y0324892D03*
X0209870Y0324892D03*
X0209870Y0332766D03*
X0209870Y0340640D03*
X0209870Y0348514D03*
X0209870Y0356388D03*
X0209870Y0364262D03*
X0209870Y0372136D03*
X0209870Y0380010D03*
X0150815Y0380010D03*
X0150815Y0372136D03*
X0150815Y0364262D03*
X0150815Y0356388D03*
X0150815Y0348514D03*
X0150815Y0340640D03*
X0150815Y0332766D03*
X0150815Y0324892D03*
X0107949Y0324892D03*
X0107949Y0332766D03*
X0107949Y0340640D03*
X0107949Y0348514D03*
X0107949Y0356388D03*
X0107949Y0364262D03*
X0107949Y0372136D03*
X0107949Y0380010D03*
X0048894Y0380010D03*
X0048894Y0372136D03*
X0048894Y0364262D03*
X0048894Y0356388D03*
X0048894Y0348514D03*
X0048894Y0340640D03*
X0048894Y0332766D03*
X0048894Y0324892D03*
M02*
