%
M48
M72
T01C0.0120
T02C0.0400
T03C0.0760
%
T01
X3250Y5505
X4665Y6575
X5700Y6575
X5700Y6995
X5800Y6145
X6600Y7275
X7100Y7465
X7350Y6375
X8350Y6395
X8700Y4175
X7000Y4175
X5550Y4095
X4650Y4125
X4110Y8125
X5350Y8725
X6000Y11295
X6750Y11085
X6080Y12575
X5620Y12570
X5200Y11895
X4897Y11665
X5170Y13505
X5200Y14315
X6350Y14875
X6850Y14375
X7850Y14375
X8850Y14375
X9912Y14186
X10060Y13535
X9759Y12993
X9702Y12385
X9402Y12345
X9082Y12729
X8250Y11125
X10200Y10925
X10550Y10375
X10900Y11125
X11150Y11587
X11520Y11665
X10580Y12742
X10610Y14305
X10600Y15085
X10520Y15875
X10560Y16665
X10030Y17065
X9610Y17065
X9900Y16465
X9270Y15875
X8850Y17375
X7850Y17375
X6850Y17375
X6350Y16875
X5630Y16665
X5670Y17725
X5670Y18176
X5900Y18375
X5210Y19045
X6350Y15875
X10610Y17445
X11573Y17875
X11573Y16946
X10500Y19095
X8700Y23545
X7000Y23545
X5550Y23465
X4650Y23495
X3250Y24875
X4665Y25945
X5700Y25945
X5700Y26365
X5800Y25515
X6600Y26645
X7100Y26835
X7350Y25745
X8350Y25765
X10450Y26315
X10171Y27048
X11460Y26545
X11580Y27442
X11580Y28046
X11640Y29245
X10900Y30495
X11150Y30957
X11520Y31035
X10550Y29745
X10200Y30295
X9702Y31755
X9402Y31715
X9082Y32099
X9759Y32364
X10060Y32905
X9912Y33557
X10610Y33675
X10600Y34455
X10520Y35245
X10560Y36035
X10610Y36815
X10030Y36435
X9610Y36435
X9900Y35835
X9270Y35245
X8850Y33745
X7850Y33745
X6850Y33745
X6350Y34245
X6350Y35245
X6350Y36245
X6850Y36745
X5900Y37745
X5670Y37547
X5670Y37095
X5630Y36035
X5210Y38415
X7850Y36745
X8850Y36745
X10500Y38465
X11573Y37245
X11573Y36317
X10580Y32112
X8250Y30495
X6750Y30455
X6000Y30665
X5200Y31265
X4897Y31035
X5620Y31940
X6080Y31945
X5170Y32875
X5200Y33685
X5350Y28095
X4110Y27495
X10683Y25472
X10775Y24995
X11250Y25295
X12400Y25695
X13442Y24875
X14857Y25945
X15892Y25945
X15892Y26365
X15992Y25515
X16792Y26645
X17292Y26835
X17542Y25745
X18542Y25765
X20363Y27048
X20642Y26315
X20876Y25472
X20967Y24995
X21442Y25295
X21652Y26545
X21772Y27442
X21772Y28046
X21832Y29245
X21092Y30495
X21342Y30957
X21712Y31035
X20772Y32112
X20252Y32905
X19951Y32364
X19894Y31755
X19594Y31715
X19274Y32099
X19042Y33745
X18042Y33745
X17042Y33745
X16542Y34245
X16542Y35245
X16542Y36245
X17042Y36745
X18042Y36745
X19042Y36745
X19802Y36435
X20092Y35835
X20222Y36435
X20752Y36035
X20802Y36815
X21765Y37245
X21765Y36317
X20712Y35245
X20792Y34455
X20802Y33675
X20104Y33557
X19462Y35245
X20692Y38465
X16092Y37745
X15862Y37547
X15862Y37095
X15822Y36035
X15402Y38415
X15392Y33685
X15362Y32875
X15812Y31940
X15392Y31265
X15089Y31035
X16192Y30665
X16942Y30455
X16272Y31945
X18442Y30495
X20392Y30295
X20742Y29745
X22592Y25695
X23634Y24875
X25050Y25945
X26084Y25945
X26084Y26365
X26184Y25515
X26984Y26645
X27484Y26835
X27734Y25745
X28734Y25765
X30555Y27048
X30834Y26315
X31068Y25472
X31159Y24995
X31634Y25295
X31844Y26545
X31964Y27442
X31964Y28046
X32024Y29245
X31284Y30495
X31534Y30957
X31904Y31035
X30964Y32112
X30444Y32905
X30143Y32364
X30086Y31755
X29786Y31715
X29466Y32099
X29234Y33745
X30296Y33557
X30994Y33675
X30984Y34455
X30904Y35245
X30944Y36035
X30414Y36435
X29994Y36435
X30284Y35835
X29654Y35245
X29234Y36745
X28234Y36745
X27234Y36745
X26734Y36245
X26014Y36035
X26054Y37095
X26054Y37547
X26284Y37745
X25594Y38415
X26734Y35245
X26734Y34245
X27234Y33745
X28234Y33745
X26464Y31945
X26004Y31940
X25584Y31265
X25281Y31035
X26384Y30665
X27134Y30455
X28634Y30495
X30584Y30295
X30934Y29745
X32784Y25695
X29084Y23545
X27384Y23545
X25934Y23465
X25034Y23495
X24494Y27495
X25734Y28095
X25554Y32875
X25584Y33685
X30994Y36815
X31958Y37245
X31958Y36317
X30884Y38465
X18892Y23545
X17192Y23545
X15742Y23465
X14842Y23495
X14302Y27495
X15542Y28095
X15402Y19045
X16092Y18375
X15862Y18176
X15862Y17725
X15822Y16665
X16542Y16875
X17042Y17375
X18042Y17375
X19042Y17375
X19802Y17065
X20092Y16465
X20222Y17065
X20752Y16665
X20712Y15875
X20792Y15085
X20802Y14305
X20104Y14186
X20252Y13535
X19951Y12993
X19894Y12385
X19594Y12345
X19274Y12729
X18442Y11125
X16942Y11085
X16192Y11295
X15392Y11895
X15089Y11665
X15812Y12570
X16272Y12575
X15362Y13505
X15392Y14315
X16542Y14875
X17042Y14375
X18042Y14375
X19042Y14375
X19462Y15875
X20802Y17445
X21765Y17875
X21765Y16946
X20692Y19095
X16542Y15875
X20392Y10925
X20742Y10375
X21092Y11125
X21342Y11587
X21712Y11665
X20772Y12742
X21832Y9875
X21772Y8676
X21772Y8072
X21652Y7175
X22592Y6325
X21442Y5925
X20967Y5625
X20876Y6102
X20642Y6945
X20363Y7678
X18542Y6395
X17542Y6375
X16792Y7275
X17292Y7465
X15892Y6995
X15892Y6575
X15992Y6145
X14857Y6575
X14302Y8125
X15542Y8725
X13442Y5505
X12400Y6325
X11250Y5925
X10775Y5625
X10683Y6102
X10450Y6945
X10171Y7678
X11460Y7175
X11580Y8072
X11580Y8676
X11640Y9875
X14842Y4125
X15742Y4095
X17192Y4175
X18892Y4175
X23634Y5505
X25050Y6575
X26084Y6575
X26084Y6995
X26184Y6145
X26984Y7275
X27484Y7465
X27734Y6375
X28734Y6395
X29084Y4175
X27384Y4175
X25934Y4095
X25034Y4125
X24494Y8125
X25734Y8725
X26384Y11295
X27134Y11085
X26464Y12575
X26004Y12570
X25584Y11895
X25281Y11665
X25554Y13505
X25584Y14315
X26734Y14875
X27234Y14375
X28234Y14375
X29234Y14375
X30296Y14186
X30444Y13535
X30143Y12993
X30086Y12385
X29786Y12345
X29466Y12729
X28634Y11125
X30584Y10925
X30934Y10375
X31284Y11125
X31534Y11587
X31904Y11665
X30964Y12742
X30994Y14305
X30984Y15085
X30904Y15875
X30944Y16665
X30414Y17065
X29994Y17065
X30284Y16465
X29654Y15875
X29234Y17375
X28234Y17375
X27234Y17375
X26734Y16875
X26014Y16665
X26054Y17725
X26054Y18176
X26284Y18375
X25594Y19045
X26734Y15875
X30994Y17445
X31958Y17875
X31958Y16946
X30884Y19095
X32024Y9875
X31964Y8676
X31964Y8072
X31844Y7175
X31634Y5925
X31159Y5625
X31068Y6102
X30834Y6945
X30555Y7678
X32784Y6325
T02
X32734Y9875
X32734Y10875
X32734Y11875
X32734Y12875
X32734Y13875
X32734Y14875
X32734Y15875
X32734Y16875
X32734Y17875
X32734Y18875
X32734Y29245
X32734Y30245
X32734Y31245
X32734Y32245
X32734Y33245
X32734Y34245
X32734Y35245
X32734Y36245
X32734Y37245
X32734Y38245
X23734Y38245
X23734Y37245
X23734Y36245
X23734Y35245
X23734Y34245
X23734Y33245
X23734Y32245
X23734Y31245
X22542Y31245
X22542Y30245
X22542Y29245
X23734Y29245
X22542Y32245
X22542Y33245
X22542Y34245
X22542Y35245
X22542Y36245
X22542Y37245
X22542Y38245
X13542Y38245
X13542Y37245
X13542Y36245
X13542Y35245
X13542Y34245
X13542Y33245
X13542Y32245
X13542Y31245
X12350Y31245
X12350Y30245
X12350Y29245
X13542Y29245
X12350Y32245
X12350Y33245
X12350Y34245
X12350Y35245
X12350Y36245
X12350Y37245
X12350Y38245
X3350Y38245
X3350Y37245
X3350Y36245
X3350Y35245
X3350Y34245
X3350Y33245
X3350Y32245
X3350Y31245
X3350Y29245
X3350Y18875
X3350Y17875
X3350Y16875
X3350Y15875
X3350Y14875
X3350Y13875
X3350Y12875
X3350Y11875
X3350Y9875
X12350Y9875
X12350Y10875
X12350Y11875
X12350Y12875
X12350Y13875
X12350Y14875
X12350Y15875
X12350Y16875
X12350Y17875
X12350Y18875
X13542Y18875
X13542Y17875
X13542Y16875
X13542Y15875
X13542Y14875
X13542Y13875
X13542Y12875
X13542Y11875
X13542Y9875
X22542Y9875
X22542Y10875
X22542Y11875
X22542Y12875
X22542Y13875
X22542Y14875
X22542Y15875
X22542Y16875
X22542Y17875
X22542Y18875
X23734Y18875
X23734Y17875
X23734Y16875
X23734Y15875
X23734Y14875
X23734Y13875
X23734Y12875
X23734Y11875
X23734Y9875
T03
X23734Y10875
X13542Y10875
X3350Y10875
X3350Y30245
X13542Y30245
X23734Y30245
M30
