G75*
%MOIN*%
%OFA0B0*%
%FSLAX25Y25*%
%IPPOS*%
%LPD*%
%AMOC8*
5,1,8,0,0,1.08239X$1,22.5*
%
%ADD10C,0.08400*%
%ADD11R,0.04737X0.05131*%
%ADD12R,0.03398X0.01981*%
%ADD13R,0.06706X0.04343*%
%ADD14R,0.04343X0.06706*%
%ADD15R,0.24422X0.24422*%
%ADD16R,0.02375X0.07690*%
%ADD17R,0.08674X0.06548*%
%ADD18R,0.06410X0.10643*%
%ADD19C,0.00400*%
%ADD20R,0.05524X0.02965*%
%ADD21R,0.05131X0.04737*%
%ADD22R,0.08674X0.05524*%
%ADD23R,0.06115X0.03162*%
%ADD24R,0.04737X0.04343*%
%ADD25C,0.01421*%
%ADD26R,0.04146X0.09461*%
%ADD27R,0.04737X0.04934*%
%ADD28R,0.03162X0.05524*%
%ADD29C,0.08200*%
%ADD30C,0.03300*%
%ADD31C,0.04737*%
%ADD32C,0.05000*%
%ADD33C,0.06706*%
D10*
X0033500Y0108750D03*
X0135421Y0108750D03*
X0237342Y0108750D03*
X0237342Y0302451D03*
X0135421Y0302451D03*
X0033500Y0302451D03*
D11*
X0053500Y0275797D03*
X0053500Y0269104D03*
X0058500Y0245797D03*
X0058500Y0239104D03*
X0046500Y0239104D03*
X0046500Y0245797D03*
X0064500Y0294104D03*
X0070500Y0294104D03*
X0076500Y0294104D03*
X0082500Y0294104D03*
X0088500Y0294104D03*
X0088500Y0300797D03*
X0082500Y0300797D03*
X0076500Y0300797D03*
X0070500Y0300797D03*
X0064500Y0300797D03*
X0098500Y0245797D03*
X0098500Y0239104D03*
X0110500Y0239104D03*
X0110500Y0245797D03*
X0109000Y0294104D03*
X0109000Y0300797D03*
X0148421Y0245797D03*
X0148421Y0239104D03*
X0160421Y0239104D03*
X0160421Y0245797D03*
X0155421Y0269104D03*
X0155421Y0275797D03*
X0166421Y0294104D03*
X0172421Y0294104D03*
X0178421Y0294104D03*
X0184421Y0294104D03*
X0190421Y0294104D03*
X0190421Y0300797D03*
X0184421Y0300797D03*
X0178421Y0300797D03*
X0172421Y0300797D03*
X0166421Y0300797D03*
X0210921Y0300797D03*
X0210921Y0294104D03*
X0212421Y0245797D03*
X0212421Y0239104D03*
X0200421Y0239104D03*
X0200421Y0245797D03*
X0250342Y0245797D03*
X0250342Y0239104D03*
X0262342Y0239104D03*
X0262342Y0245797D03*
X0257342Y0269104D03*
X0257342Y0275797D03*
X0268342Y0294104D03*
X0274342Y0294104D03*
X0280342Y0294104D03*
X0286342Y0294104D03*
X0292342Y0294104D03*
X0292342Y0300797D03*
X0286342Y0300797D03*
X0280342Y0300797D03*
X0274342Y0300797D03*
X0268342Y0300797D03*
X0312842Y0300797D03*
X0312842Y0294104D03*
X0314342Y0245797D03*
X0314342Y0239104D03*
X0302342Y0239104D03*
X0302342Y0245797D03*
X0292342Y0107096D03*
X0292342Y0100404D03*
X0286342Y0100404D03*
X0286342Y0107096D03*
X0280342Y0107096D03*
X0274342Y0107096D03*
X0274342Y0100404D03*
X0280342Y0100404D03*
X0268342Y0100404D03*
X0268342Y0107096D03*
X0257342Y0082096D03*
X0257342Y0075404D03*
X0262342Y0052096D03*
X0262342Y0045404D03*
X0250342Y0045404D03*
X0250342Y0052096D03*
X0212421Y0052096D03*
X0212421Y0045404D03*
X0200421Y0045404D03*
X0200421Y0052096D03*
X0190421Y0100404D03*
X0184421Y0100404D03*
X0184421Y0107096D03*
X0190421Y0107096D03*
X0178421Y0107096D03*
X0178421Y0100404D03*
X0172421Y0100404D03*
X0166421Y0100404D03*
X0166421Y0107096D03*
X0172421Y0107096D03*
X0155421Y0082096D03*
X0155421Y0075404D03*
X0160421Y0052096D03*
X0160421Y0045404D03*
X0148421Y0045404D03*
X0148421Y0052096D03*
X0110500Y0052096D03*
X0110500Y0045404D03*
X0098500Y0045404D03*
X0098500Y0052096D03*
X0088500Y0100404D03*
X0088500Y0107096D03*
X0082500Y0107096D03*
X0076500Y0107096D03*
X0076500Y0100404D03*
X0082500Y0100404D03*
X0070500Y0100404D03*
X0070500Y0107096D03*
X0064500Y0107096D03*
X0064500Y0100404D03*
X0053500Y0082096D03*
X0053500Y0075404D03*
X0058500Y0052096D03*
X0058500Y0045404D03*
X0046500Y0045404D03*
X0046500Y0052096D03*
X0109000Y0100404D03*
X0109000Y0107096D03*
X0210921Y0107096D03*
X0210921Y0100404D03*
X0302342Y0052096D03*
X0302342Y0045404D03*
X0314342Y0045404D03*
X0314342Y0052096D03*
X0312842Y0100404D03*
X0312842Y0107096D03*
D12*
X0305965Y0106309D03*
X0305965Y0103750D03*
X0305965Y0101191D03*
X0298720Y0101191D03*
X0298720Y0103750D03*
X0298720Y0106309D03*
X0204043Y0106309D03*
X0204043Y0103750D03*
X0204043Y0101191D03*
X0196799Y0101191D03*
X0196799Y0103750D03*
X0196799Y0106309D03*
X0102122Y0106309D03*
X0102122Y0103750D03*
X0102122Y0101191D03*
X0094878Y0101191D03*
X0094878Y0103750D03*
X0094878Y0106309D03*
X0094878Y0294892D03*
X0094878Y0297451D03*
X0094878Y0300010D03*
X0102122Y0300010D03*
X0102122Y0297451D03*
X0102122Y0294892D03*
X0196799Y0294892D03*
X0196799Y0297451D03*
X0196799Y0300010D03*
X0204043Y0300010D03*
X0204043Y0297451D03*
X0204043Y0294892D03*
X0298720Y0294892D03*
X0298720Y0297451D03*
X0298720Y0300010D03*
X0305965Y0300010D03*
X0305965Y0297451D03*
X0305965Y0294892D03*
D13*
X0314776Y0317766D03*
X0314776Y0322766D03*
X0314776Y0327766D03*
X0314776Y0332766D03*
X0314776Y0337766D03*
X0314776Y0342766D03*
X0314776Y0347766D03*
X0314776Y0352766D03*
X0314776Y0357766D03*
X0314776Y0362766D03*
X0314776Y0367766D03*
X0314776Y0372766D03*
X0314776Y0377766D03*
X0314776Y0382766D03*
X0249909Y0382766D03*
X0249909Y0377766D03*
X0249909Y0372766D03*
X0249909Y0367766D03*
X0249909Y0362766D03*
X0249909Y0357766D03*
X0249909Y0352766D03*
X0249909Y0347766D03*
X0249909Y0342766D03*
X0249909Y0337766D03*
X0249909Y0332766D03*
X0249909Y0327766D03*
X0249909Y0322766D03*
X0249909Y0317766D03*
X0212854Y0317766D03*
X0212854Y0322766D03*
X0212854Y0327766D03*
X0212854Y0332766D03*
X0212854Y0337766D03*
X0212854Y0342766D03*
X0212854Y0347766D03*
X0212854Y0352766D03*
X0212854Y0357766D03*
X0212854Y0362766D03*
X0212854Y0367766D03*
X0212854Y0372766D03*
X0212854Y0377766D03*
X0212854Y0382766D03*
X0147988Y0382766D03*
X0147988Y0377766D03*
X0147988Y0372766D03*
X0147988Y0367766D03*
X0147988Y0362766D03*
X0147988Y0357766D03*
X0147988Y0352766D03*
X0147988Y0347766D03*
X0147988Y0342766D03*
X0147988Y0337766D03*
X0147988Y0332766D03*
X0147988Y0327766D03*
X0147988Y0322766D03*
X0147988Y0317766D03*
X0110933Y0317766D03*
X0110933Y0322766D03*
X0110933Y0327766D03*
X0110933Y0332766D03*
X0110933Y0337766D03*
X0110933Y0342766D03*
X0110933Y0347766D03*
X0110933Y0352766D03*
X0110933Y0357766D03*
X0110933Y0362766D03*
X0110933Y0367766D03*
X0110933Y0372766D03*
X0110933Y0377766D03*
X0110933Y0382766D03*
X0046067Y0382766D03*
X0046067Y0377766D03*
X0046067Y0372766D03*
X0046067Y0367766D03*
X0046067Y0362766D03*
X0046067Y0357766D03*
X0046067Y0352766D03*
X0046067Y0347766D03*
X0046067Y0342766D03*
X0046067Y0337766D03*
X0046067Y0332766D03*
X0046067Y0327766D03*
X0046067Y0322766D03*
X0046067Y0317766D03*
X0046067Y0189065D03*
X0046067Y0184065D03*
X0046067Y0179065D03*
X0046067Y0174065D03*
X0046067Y0169065D03*
X0046067Y0164065D03*
X0046067Y0159065D03*
X0046067Y0154065D03*
X0046067Y0149065D03*
X0046067Y0144065D03*
X0046067Y0139065D03*
X0046067Y0134065D03*
X0046067Y0129065D03*
X0046067Y0124065D03*
X0110933Y0124065D03*
X0110933Y0129065D03*
X0110933Y0134065D03*
X0110933Y0139065D03*
X0110933Y0144065D03*
X0110933Y0149065D03*
X0110933Y0154065D03*
X0110933Y0159065D03*
X0110933Y0164065D03*
X0110933Y0169065D03*
X0110933Y0174065D03*
X0110933Y0179065D03*
X0110933Y0184065D03*
X0110933Y0189065D03*
X0147988Y0189065D03*
X0147988Y0184065D03*
X0147988Y0179065D03*
X0147988Y0174065D03*
X0147988Y0169065D03*
X0147988Y0164065D03*
X0147988Y0159065D03*
X0147988Y0154065D03*
X0147988Y0149065D03*
X0147988Y0144065D03*
X0147988Y0139065D03*
X0147988Y0134065D03*
X0147988Y0129065D03*
X0147988Y0124065D03*
X0212854Y0124065D03*
X0212854Y0129065D03*
X0212854Y0134065D03*
X0212854Y0139065D03*
X0212854Y0144065D03*
X0212854Y0149065D03*
X0212854Y0154065D03*
X0212854Y0159065D03*
X0212854Y0164065D03*
X0212854Y0169065D03*
X0212854Y0174065D03*
X0212854Y0179065D03*
X0212854Y0184065D03*
X0212854Y0189065D03*
X0249909Y0189065D03*
X0249909Y0184065D03*
X0249909Y0179065D03*
X0249909Y0174065D03*
X0249909Y0169065D03*
X0249909Y0164065D03*
X0249909Y0159065D03*
X0249909Y0154065D03*
X0249909Y0149065D03*
X0249909Y0144065D03*
X0249909Y0139065D03*
X0249909Y0134065D03*
X0249909Y0129065D03*
X0249909Y0124065D03*
X0314776Y0124065D03*
X0314776Y0129065D03*
X0314776Y0134065D03*
X0314776Y0139065D03*
X0314776Y0144065D03*
X0314776Y0149065D03*
X0314776Y0154065D03*
X0314776Y0159065D03*
X0314776Y0164065D03*
X0314776Y0169065D03*
X0314776Y0174065D03*
X0314776Y0179065D03*
X0314776Y0184065D03*
X0314776Y0189065D03*
D14*
X0304842Y0118199D03*
X0299842Y0118199D03*
X0294842Y0118199D03*
X0289842Y0118199D03*
X0284842Y0118199D03*
X0279842Y0118199D03*
X0274842Y0118199D03*
X0269842Y0118199D03*
X0264842Y0118199D03*
X0259842Y0118199D03*
X0202921Y0118199D03*
X0197921Y0118199D03*
X0192921Y0118199D03*
X0187921Y0118199D03*
X0182921Y0118199D03*
X0177921Y0118199D03*
X0172921Y0118199D03*
X0167921Y0118199D03*
X0162921Y0118199D03*
X0157921Y0118199D03*
X0101000Y0118199D03*
X0096000Y0118199D03*
X0091000Y0118199D03*
X0086000Y0118199D03*
X0081000Y0118199D03*
X0076000Y0118199D03*
X0071000Y0118199D03*
X0066000Y0118199D03*
X0061000Y0118199D03*
X0056000Y0118199D03*
X0056000Y0311900D03*
X0061000Y0311900D03*
X0066000Y0311900D03*
X0071000Y0311900D03*
X0076000Y0311900D03*
X0081000Y0311900D03*
X0086000Y0311900D03*
X0091000Y0311900D03*
X0096000Y0311900D03*
X0101000Y0311900D03*
X0157921Y0311900D03*
X0162921Y0311900D03*
X0167921Y0311900D03*
X0172921Y0311900D03*
X0177921Y0311900D03*
X0182921Y0311900D03*
X0187921Y0311900D03*
X0192921Y0311900D03*
X0197921Y0311900D03*
X0202921Y0311900D03*
X0259842Y0311900D03*
X0264842Y0311900D03*
X0269842Y0311900D03*
X0274842Y0311900D03*
X0279842Y0311900D03*
X0284842Y0311900D03*
X0289842Y0311900D03*
X0294842Y0311900D03*
X0299842Y0311900D03*
X0304842Y0311900D03*
D15*
X0282342Y0352451D03*
X0180421Y0352451D03*
X0078500Y0352451D03*
X0078500Y0158750D03*
X0180421Y0158750D03*
X0282342Y0158750D03*
D16*
X0282342Y0251951D03*
X0279783Y0251951D03*
X0277224Y0251951D03*
X0284902Y0251951D03*
X0287461Y0251951D03*
X0185539Y0251951D03*
X0182980Y0251951D03*
X0180421Y0251951D03*
X0177862Y0251951D03*
X0175303Y0251951D03*
X0083618Y0251951D03*
X0081059Y0251951D03*
X0078500Y0251951D03*
X0075941Y0251951D03*
X0073382Y0251951D03*
X0073382Y0058250D03*
X0075941Y0058250D03*
X0078500Y0058250D03*
X0081059Y0058250D03*
X0083618Y0058250D03*
X0175303Y0058250D03*
X0177862Y0058250D03*
X0180421Y0058250D03*
X0182980Y0058250D03*
X0185539Y0058250D03*
X0277224Y0058250D03*
X0279783Y0058250D03*
X0282342Y0058250D03*
X0284902Y0058250D03*
X0287461Y0058250D03*
D17*
X0293760Y0059333D03*
X0270925Y0059333D03*
X0191839Y0059333D03*
X0169004Y0059333D03*
X0089917Y0059333D03*
X0067083Y0059333D03*
X0067083Y0253033D03*
X0089917Y0253033D03*
X0169004Y0253033D03*
X0191839Y0253033D03*
X0270925Y0253033D03*
X0293760Y0253033D03*
D18*
X0286132Y0241419D03*
X0278553Y0241419D03*
X0184211Y0241419D03*
X0176632Y0241419D03*
X0082289Y0241419D03*
X0074711Y0241419D03*
X0074711Y0047719D03*
X0082289Y0047719D03*
X0176632Y0047719D03*
X0184211Y0047719D03*
X0278553Y0047719D03*
X0286132Y0047719D03*
D19*
X0290217Y0047916D02*
X0296122Y0047916D01*
X0296122Y0048314D02*
X0290217Y0048314D01*
X0290217Y0048713D02*
X0296122Y0048713D01*
X0296122Y0049111D02*
X0290217Y0049111D01*
X0290217Y0049510D02*
X0296122Y0049510D01*
X0296122Y0049908D02*
X0290217Y0049908D01*
X0290217Y0050307D02*
X0296122Y0050307D01*
X0296122Y0050705D02*
X0290217Y0050705D01*
X0290217Y0051104D02*
X0296122Y0051104D01*
X0296122Y0051502D02*
X0290217Y0051502D01*
X0290217Y0051901D02*
X0296122Y0051901D01*
X0296122Y0052299D02*
X0290217Y0052299D01*
X0290217Y0052698D02*
X0297303Y0052698D01*
X0297303Y0052640D02*
X0296122Y0052640D01*
X0296122Y0045159D01*
X0296044Y0044858D01*
X0295900Y0044581D01*
X0295699Y0044343D01*
X0295449Y0044156D01*
X0295165Y0044029D01*
X0294859Y0043969D01*
X0294547Y0043978D01*
X0291398Y0043978D01*
X0291135Y0044008D01*
X0290885Y0044095D01*
X0290661Y0044236D01*
X0290474Y0044423D01*
X0290333Y0044647D01*
X0290246Y0044897D01*
X0290217Y0045159D01*
X0290217Y0055789D01*
X0297303Y0055789D01*
X0297303Y0052640D01*
X0297303Y0053096D02*
X0290217Y0053096D01*
X0290217Y0053495D02*
X0297303Y0053495D01*
X0297303Y0053893D02*
X0290217Y0053893D01*
X0290217Y0054292D02*
X0297303Y0054292D01*
X0297303Y0054690D02*
X0290217Y0054690D01*
X0290217Y0055089D02*
X0297303Y0055089D01*
X0297303Y0055487D02*
X0290217Y0055487D01*
X0290217Y0047517D02*
X0296122Y0047517D01*
X0296122Y0047119D02*
X0290217Y0047119D01*
X0290217Y0046720D02*
X0296122Y0046720D01*
X0296122Y0046322D02*
X0290217Y0046322D01*
X0290217Y0045923D02*
X0296122Y0045923D01*
X0296122Y0045525D02*
X0290217Y0045525D01*
X0290220Y0045126D02*
X0296113Y0045126D01*
X0295976Y0044728D02*
X0290305Y0044728D01*
X0290568Y0044329D02*
X0295680Y0044329D01*
X0274478Y0045242D02*
X0274417Y0044936D01*
X0274291Y0044651D01*
X0274104Y0044402D01*
X0273866Y0044200D01*
X0273589Y0044057D01*
X0273287Y0043978D01*
X0270531Y0043978D01*
X0270181Y0044018D01*
X0269848Y0044134D01*
X0269550Y0044322D01*
X0269300Y0044571D01*
X0269113Y0044870D01*
X0268996Y0045203D01*
X0268957Y0045553D01*
X0268957Y0052640D01*
X0267382Y0052640D01*
X0267382Y0055789D01*
X0274468Y0055789D01*
X0274468Y0045553D01*
X0274478Y0045242D01*
X0274455Y0045126D02*
X0269023Y0045126D01*
X0268960Y0045525D02*
X0274469Y0045525D01*
X0274468Y0045923D02*
X0268957Y0045923D01*
X0268957Y0046322D02*
X0274468Y0046322D01*
X0274468Y0046720D02*
X0268957Y0046720D01*
X0268957Y0047119D02*
X0274468Y0047119D01*
X0274468Y0047517D02*
X0268957Y0047517D01*
X0268957Y0047916D02*
X0274468Y0047916D01*
X0274468Y0048314D02*
X0268957Y0048314D01*
X0268957Y0048713D02*
X0274468Y0048713D01*
X0274468Y0049111D02*
X0268957Y0049111D01*
X0268957Y0049510D02*
X0274468Y0049510D01*
X0274468Y0049908D02*
X0268957Y0049908D01*
X0268957Y0050307D02*
X0274468Y0050307D01*
X0274468Y0050705D02*
X0268957Y0050705D01*
X0268957Y0051104D02*
X0274468Y0051104D01*
X0274468Y0051502D02*
X0268957Y0051502D01*
X0268957Y0051901D02*
X0274468Y0051901D01*
X0274468Y0052299D02*
X0268957Y0052299D01*
X0267382Y0052698D02*
X0274468Y0052698D01*
X0274468Y0053096D02*
X0267382Y0053096D01*
X0267382Y0053495D02*
X0274468Y0053495D01*
X0274468Y0053893D02*
X0267382Y0053893D01*
X0267382Y0054292D02*
X0274468Y0054292D01*
X0274468Y0054690D02*
X0267382Y0054690D01*
X0267382Y0055089D02*
X0274468Y0055089D01*
X0274468Y0055487D02*
X0267382Y0055487D01*
X0269202Y0044728D02*
X0274325Y0044728D01*
X0274018Y0044329D02*
X0269542Y0044329D01*
X0195382Y0052640D02*
X0194201Y0052640D01*
X0194201Y0045159D01*
X0194122Y0044858D01*
X0193979Y0044581D01*
X0193777Y0044343D01*
X0193528Y0044156D01*
X0193243Y0044029D01*
X0192938Y0043969D01*
X0192626Y0043978D01*
X0189476Y0043978D01*
X0189214Y0044008D01*
X0188964Y0044095D01*
X0188740Y0044236D01*
X0188553Y0044423D01*
X0188412Y0044647D01*
X0188325Y0044897D01*
X0188295Y0045159D01*
X0188295Y0055789D01*
X0195382Y0055789D01*
X0195382Y0052640D01*
X0195382Y0052698D02*
X0188295Y0052698D01*
X0188295Y0053096D02*
X0195382Y0053096D01*
X0195382Y0053495D02*
X0188295Y0053495D01*
X0188295Y0053893D02*
X0195382Y0053893D01*
X0195382Y0054292D02*
X0188295Y0054292D01*
X0188295Y0054690D02*
X0195382Y0054690D01*
X0195382Y0055089D02*
X0188295Y0055089D01*
X0188295Y0055487D02*
X0195382Y0055487D01*
X0194201Y0052299D02*
X0188295Y0052299D01*
X0188295Y0051901D02*
X0194201Y0051901D01*
X0194201Y0051502D02*
X0188295Y0051502D01*
X0188295Y0051104D02*
X0194201Y0051104D01*
X0194201Y0050705D02*
X0188295Y0050705D01*
X0188295Y0050307D02*
X0194201Y0050307D01*
X0194201Y0049908D02*
X0188295Y0049908D01*
X0188295Y0049510D02*
X0194201Y0049510D01*
X0194201Y0049111D02*
X0188295Y0049111D01*
X0188295Y0048713D02*
X0194201Y0048713D01*
X0194201Y0048314D02*
X0188295Y0048314D01*
X0188295Y0047916D02*
X0194201Y0047916D01*
X0194201Y0047517D02*
X0188295Y0047517D01*
X0188295Y0047119D02*
X0194201Y0047119D01*
X0194201Y0046720D02*
X0188295Y0046720D01*
X0188295Y0046322D02*
X0194201Y0046322D01*
X0194201Y0045923D02*
X0188295Y0045923D01*
X0188295Y0045525D02*
X0194201Y0045525D01*
X0194192Y0045126D02*
X0188299Y0045126D01*
X0188384Y0044728D02*
X0194055Y0044728D01*
X0193759Y0044329D02*
X0188647Y0044329D01*
X0172557Y0045242D02*
X0172496Y0044936D01*
X0172369Y0044651D01*
X0172182Y0044402D01*
X0171945Y0044200D01*
X0171668Y0044057D01*
X0171366Y0043978D01*
X0168610Y0043978D01*
X0168260Y0044018D01*
X0167927Y0044134D01*
X0167628Y0044322D01*
X0167379Y0044571D01*
X0167191Y0044870D01*
X0167075Y0045203D01*
X0167035Y0045553D01*
X0167035Y0052640D01*
X0165461Y0052640D01*
X0165461Y0055789D01*
X0172547Y0055789D01*
X0172547Y0045553D01*
X0172557Y0045242D01*
X0172534Y0045126D02*
X0167102Y0045126D01*
X0167039Y0045525D02*
X0172548Y0045525D01*
X0172547Y0045923D02*
X0167035Y0045923D01*
X0167035Y0046322D02*
X0172547Y0046322D01*
X0172547Y0046720D02*
X0167035Y0046720D01*
X0167035Y0047119D02*
X0172547Y0047119D01*
X0172547Y0047517D02*
X0167035Y0047517D01*
X0167035Y0047916D02*
X0172547Y0047916D01*
X0172547Y0048314D02*
X0167035Y0048314D01*
X0167035Y0048713D02*
X0172547Y0048713D01*
X0172547Y0049111D02*
X0167035Y0049111D01*
X0167035Y0049510D02*
X0172547Y0049510D01*
X0172547Y0049908D02*
X0167035Y0049908D01*
X0167035Y0050307D02*
X0172547Y0050307D01*
X0172547Y0050705D02*
X0167035Y0050705D01*
X0167035Y0051104D02*
X0172547Y0051104D01*
X0172547Y0051502D02*
X0167035Y0051502D01*
X0167035Y0051901D02*
X0172547Y0051901D01*
X0172547Y0052299D02*
X0167035Y0052299D01*
X0165461Y0052698D02*
X0172547Y0052698D01*
X0172547Y0053096D02*
X0165461Y0053096D01*
X0165461Y0053495D02*
X0172547Y0053495D01*
X0172547Y0053893D02*
X0165461Y0053893D01*
X0165461Y0054292D02*
X0172547Y0054292D01*
X0172547Y0054690D02*
X0165461Y0054690D01*
X0165461Y0055089D02*
X0172547Y0055089D01*
X0172547Y0055487D02*
X0165461Y0055487D01*
X0167281Y0044728D02*
X0172404Y0044728D01*
X0172097Y0044329D02*
X0167621Y0044329D01*
X0093461Y0052640D02*
X0092280Y0052640D01*
X0092280Y0045159D01*
X0092201Y0044858D01*
X0092058Y0044581D01*
X0091856Y0044343D01*
X0091607Y0044156D01*
X0091322Y0044029D01*
X0091016Y0043969D01*
X0090705Y0043978D01*
X0087555Y0043978D01*
X0087292Y0044008D01*
X0087043Y0044095D01*
X0086819Y0044236D01*
X0086632Y0044423D01*
X0086491Y0044647D01*
X0086404Y0044897D01*
X0086374Y0045159D01*
X0086374Y0055789D01*
X0093461Y0055789D01*
X0093461Y0052640D01*
X0093461Y0052698D02*
X0086374Y0052698D01*
X0086374Y0053096D02*
X0093461Y0053096D01*
X0093461Y0053495D02*
X0086374Y0053495D01*
X0086374Y0053893D02*
X0093461Y0053893D01*
X0093461Y0054292D02*
X0086374Y0054292D01*
X0086374Y0054690D02*
X0093461Y0054690D01*
X0093461Y0055089D02*
X0086374Y0055089D01*
X0086374Y0055487D02*
X0093461Y0055487D01*
X0092280Y0052299D02*
X0086374Y0052299D01*
X0086374Y0051901D02*
X0092280Y0051901D01*
X0092280Y0051502D02*
X0086374Y0051502D01*
X0086374Y0051104D02*
X0092280Y0051104D01*
X0092280Y0050705D02*
X0086374Y0050705D01*
X0086374Y0050307D02*
X0092280Y0050307D01*
X0092280Y0049908D02*
X0086374Y0049908D01*
X0086374Y0049510D02*
X0092280Y0049510D01*
X0092280Y0049111D02*
X0086374Y0049111D01*
X0086374Y0048713D02*
X0092280Y0048713D01*
X0092280Y0048314D02*
X0086374Y0048314D01*
X0086374Y0047916D02*
X0092280Y0047916D01*
X0092280Y0047517D02*
X0086374Y0047517D01*
X0086374Y0047119D02*
X0092280Y0047119D01*
X0092280Y0046720D02*
X0086374Y0046720D01*
X0086374Y0046322D02*
X0092280Y0046322D01*
X0092280Y0045923D02*
X0086374Y0045923D01*
X0086374Y0045525D02*
X0092280Y0045525D01*
X0092271Y0045126D02*
X0086378Y0045126D01*
X0086463Y0044728D02*
X0092134Y0044728D01*
X0091837Y0044329D02*
X0086726Y0044329D01*
X0070635Y0045242D02*
X0070575Y0044936D01*
X0070448Y0044651D01*
X0070261Y0044402D01*
X0070023Y0044200D01*
X0069747Y0044057D01*
X0069445Y0043978D01*
X0066689Y0043978D01*
X0066339Y0044018D01*
X0066006Y0044134D01*
X0065707Y0044322D01*
X0065458Y0044571D01*
X0065270Y0044870D01*
X0065154Y0045203D01*
X0065114Y0045553D01*
X0065114Y0052640D01*
X0063539Y0052640D01*
X0063539Y0055789D01*
X0070626Y0055789D01*
X0070626Y0045553D01*
X0070635Y0045242D01*
X0070612Y0045126D02*
X0065180Y0045126D01*
X0065117Y0045525D02*
X0070627Y0045525D01*
X0070626Y0045923D02*
X0065114Y0045923D01*
X0065114Y0046322D02*
X0070626Y0046322D01*
X0070626Y0046720D02*
X0065114Y0046720D01*
X0065114Y0047119D02*
X0070626Y0047119D01*
X0070626Y0047517D02*
X0065114Y0047517D01*
X0065114Y0047916D02*
X0070626Y0047916D01*
X0070626Y0048314D02*
X0065114Y0048314D01*
X0065114Y0048713D02*
X0070626Y0048713D01*
X0070626Y0049111D02*
X0065114Y0049111D01*
X0065114Y0049510D02*
X0070626Y0049510D01*
X0070626Y0049908D02*
X0065114Y0049908D01*
X0065114Y0050307D02*
X0070626Y0050307D01*
X0070626Y0050705D02*
X0065114Y0050705D01*
X0065114Y0051104D02*
X0070626Y0051104D01*
X0070626Y0051502D02*
X0065114Y0051502D01*
X0065114Y0051901D02*
X0070626Y0051901D01*
X0070626Y0052299D02*
X0065114Y0052299D01*
X0063539Y0052698D02*
X0070626Y0052698D01*
X0070626Y0053096D02*
X0063539Y0053096D01*
X0063539Y0053495D02*
X0070626Y0053495D01*
X0070626Y0053893D02*
X0063539Y0053893D01*
X0063539Y0054292D02*
X0070626Y0054292D01*
X0070626Y0054690D02*
X0063539Y0054690D01*
X0063539Y0055089D02*
X0070626Y0055089D01*
X0070626Y0055487D02*
X0063539Y0055487D01*
X0065359Y0044728D02*
X0070482Y0044728D01*
X0070175Y0044329D02*
X0065700Y0044329D01*
X0066689Y0237679D02*
X0066339Y0237719D01*
X0066006Y0237835D01*
X0065707Y0238023D01*
X0065458Y0238272D01*
X0065270Y0238571D01*
X0065154Y0238904D01*
X0065114Y0239254D01*
X0065114Y0246341D01*
X0063539Y0246341D01*
X0063539Y0249490D01*
X0070626Y0249490D01*
X0070626Y0239254D01*
X0070635Y0238942D01*
X0070575Y0238637D01*
X0070448Y0238352D01*
X0070261Y0238103D01*
X0070023Y0237901D01*
X0069747Y0237757D01*
X0069445Y0237679D01*
X0066689Y0237679D01*
X0065734Y0238006D02*
X0070147Y0238006D01*
X0070471Y0238404D02*
X0065375Y0238404D01*
X0065189Y0238803D02*
X0070608Y0238803D01*
X0070628Y0239201D02*
X0065120Y0239201D01*
X0065114Y0239600D02*
X0070626Y0239600D01*
X0070626Y0239998D02*
X0065114Y0239998D01*
X0065114Y0240397D02*
X0070626Y0240397D01*
X0070626Y0240795D02*
X0065114Y0240795D01*
X0065114Y0241194D02*
X0070626Y0241194D01*
X0070626Y0241592D02*
X0065114Y0241592D01*
X0065114Y0241991D02*
X0070626Y0241991D01*
X0070626Y0242389D02*
X0065114Y0242389D01*
X0065114Y0242788D02*
X0070626Y0242788D01*
X0070626Y0243186D02*
X0065114Y0243186D01*
X0065114Y0243585D02*
X0070626Y0243585D01*
X0070626Y0243983D02*
X0065114Y0243983D01*
X0065114Y0244382D02*
X0070626Y0244382D01*
X0070626Y0244780D02*
X0065114Y0244780D01*
X0065114Y0245179D02*
X0070626Y0245179D01*
X0070626Y0245577D02*
X0065114Y0245577D01*
X0065114Y0245976D02*
X0070626Y0245976D01*
X0070626Y0246374D02*
X0063539Y0246374D01*
X0063539Y0246773D02*
X0070626Y0246773D01*
X0070626Y0247171D02*
X0063539Y0247171D01*
X0063539Y0247570D02*
X0070626Y0247570D01*
X0070626Y0247968D02*
X0063539Y0247968D01*
X0063539Y0248367D02*
X0070626Y0248367D01*
X0070626Y0248765D02*
X0063539Y0248765D01*
X0063539Y0249164D02*
X0070626Y0249164D01*
X0086374Y0249164D02*
X0093461Y0249164D01*
X0093461Y0249490D02*
X0093461Y0246341D01*
X0092280Y0246341D01*
X0092280Y0238860D01*
X0092201Y0238559D01*
X0092058Y0238282D01*
X0091856Y0238044D01*
X0091607Y0237857D01*
X0091322Y0237730D01*
X0091016Y0237670D01*
X0090705Y0237679D01*
X0087555Y0237679D01*
X0087292Y0237709D01*
X0087043Y0237796D01*
X0086819Y0237937D01*
X0086632Y0238124D01*
X0086491Y0238348D01*
X0086404Y0238597D01*
X0086374Y0238860D01*
X0086374Y0249490D01*
X0093461Y0249490D01*
X0093461Y0248765D02*
X0086374Y0248765D01*
X0086374Y0248367D02*
X0093461Y0248367D01*
X0093461Y0247968D02*
X0086374Y0247968D01*
X0086374Y0247570D02*
X0093461Y0247570D01*
X0093461Y0247171D02*
X0086374Y0247171D01*
X0086374Y0246773D02*
X0093461Y0246773D01*
X0093461Y0246374D02*
X0086374Y0246374D01*
X0086374Y0245976D02*
X0092280Y0245976D01*
X0092280Y0245577D02*
X0086374Y0245577D01*
X0086374Y0245179D02*
X0092280Y0245179D01*
X0092280Y0244780D02*
X0086374Y0244780D01*
X0086374Y0244382D02*
X0092280Y0244382D01*
X0092280Y0243983D02*
X0086374Y0243983D01*
X0086374Y0243585D02*
X0092280Y0243585D01*
X0092280Y0243186D02*
X0086374Y0243186D01*
X0086374Y0242788D02*
X0092280Y0242788D01*
X0092280Y0242389D02*
X0086374Y0242389D01*
X0086374Y0241991D02*
X0092280Y0241991D01*
X0092280Y0241592D02*
X0086374Y0241592D01*
X0086374Y0241194D02*
X0092280Y0241194D01*
X0092280Y0240795D02*
X0086374Y0240795D01*
X0086374Y0240397D02*
X0092280Y0240397D01*
X0092280Y0239998D02*
X0086374Y0239998D01*
X0086374Y0239600D02*
X0092280Y0239600D01*
X0092280Y0239201D02*
X0086374Y0239201D01*
X0086381Y0238803D02*
X0092265Y0238803D01*
X0092121Y0238404D02*
X0086471Y0238404D01*
X0086750Y0238006D02*
X0091805Y0238006D01*
X0165461Y0246341D02*
X0165461Y0249490D01*
X0172547Y0249490D01*
X0172547Y0239254D01*
X0172557Y0238942D01*
X0172496Y0238637D01*
X0172369Y0238352D01*
X0172182Y0238103D01*
X0171945Y0237901D01*
X0171668Y0237757D01*
X0171366Y0237679D01*
X0168610Y0237679D01*
X0168260Y0237719D01*
X0167927Y0237835D01*
X0167628Y0238023D01*
X0167379Y0238272D01*
X0167191Y0238571D01*
X0167075Y0238904D01*
X0167035Y0239254D01*
X0167035Y0246341D01*
X0165461Y0246341D01*
X0165461Y0246374D02*
X0172547Y0246374D01*
X0172547Y0245976D02*
X0167035Y0245976D01*
X0167035Y0245577D02*
X0172547Y0245577D01*
X0172547Y0245179D02*
X0167035Y0245179D01*
X0167035Y0244780D02*
X0172547Y0244780D01*
X0172547Y0244382D02*
X0167035Y0244382D01*
X0167035Y0243983D02*
X0172547Y0243983D01*
X0172547Y0243585D02*
X0167035Y0243585D01*
X0167035Y0243186D02*
X0172547Y0243186D01*
X0172547Y0242788D02*
X0167035Y0242788D01*
X0167035Y0242389D02*
X0172547Y0242389D01*
X0172547Y0241991D02*
X0167035Y0241991D01*
X0167035Y0241592D02*
X0172547Y0241592D01*
X0172547Y0241194D02*
X0167035Y0241194D01*
X0167035Y0240795D02*
X0172547Y0240795D01*
X0172547Y0240397D02*
X0167035Y0240397D01*
X0167035Y0239998D02*
X0172547Y0239998D01*
X0172547Y0239600D02*
X0167035Y0239600D01*
X0167041Y0239201D02*
X0172549Y0239201D01*
X0172529Y0238803D02*
X0167110Y0238803D01*
X0167296Y0238404D02*
X0172393Y0238404D01*
X0172068Y0238006D02*
X0167656Y0238006D01*
X0165461Y0246773D02*
X0172547Y0246773D01*
X0172547Y0247171D02*
X0165461Y0247171D01*
X0165461Y0247570D02*
X0172547Y0247570D01*
X0172547Y0247968D02*
X0165461Y0247968D01*
X0165461Y0248367D02*
X0172547Y0248367D01*
X0172547Y0248765D02*
X0165461Y0248765D01*
X0165461Y0249164D02*
X0172547Y0249164D01*
X0188295Y0249164D02*
X0195382Y0249164D01*
X0195382Y0249490D02*
X0195382Y0246341D01*
X0194201Y0246341D01*
X0194201Y0238860D01*
X0194122Y0238559D01*
X0193979Y0238282D01*
X0193777Y0238044D01*
X0193528Y0237857D01*
X0193243Y0237730D01*
X0192938Y0237670D01*
X0192626Y0237679D01*
X0189476Y0237679D01*
X0189214Y0237709D01*
X0188964Y0237796D01*
X0188740Y0237937D01*
X0188553Y0238124D01*
X0188412Y0238348D01*
X0188325Y0238597D01*
X0188295Y0238860D01*
X0188295Y0249490D01*
X0195382Y0249490D01*
X0195382Y0248765D02*
X0188295Y0248765D01*
X0188295Y0248367D02*
X0195382Y0248367D01*
X0195382Y0247968D02*
X0188295Y0247968D01*
X0188295Y0247570D02*
X0195382Y0247570D01*
X0195382Y0247171D02*
X0188295Y0247171D01*
X0188295Y0246773D02*
X0195382Y0246773D01*
X0195382Y0246374D02*
X0188295Y0246374D01*
X0188295Y0245976D02*
X0194201Y0245976D01*
X0194201Y0245577D02*
X0188295Y0245577D01*
X0188295Y0245179D02*
X0194201Y0245179D01*
X0194201Y0244780D02*
X0188295Y0244780D01*
X0188295Y0244382D02*
X0194201Y0244382D01*
X0194201Y0243983D02*
X0188295Y0243983D01*
X0188295Y0243585D02*
X0194201Y0243585D01*
X0194201Y0243186D02*
X0188295Y0243186D01*
X0188295Y0242788D02*
X0194201Y0242788D01*
X0194201Y0242389D02*
X0188295Y0242389D01*
X0188295Y0241991D02*
X0194201Y0241991D01*
X0194201Y0241592D02*
X0188295Y0241592D01*
X0188295Y0241194D02*
X0194201Y0241194D01*
X0194201Y0240795D02*
X0188295Y0240795D01*
X0188295Y0240397D02*
X0194201Y0240397D01*
X0194201Y0239998D02*
X0188295Y0239998D01*
X0188295Y0239600D02*
X0194201Y0239600D01*
X0194201Y0239201D02*
X0188295Y0239201D01*
X0188302Y0238803D02*
X0194186Y0238803D01*
X0194042Y0238404D02*
X0188393Y0238404D01*
X0188671Y0238006D02*
X0193726Y0238006D01*
X0267382Y0246341D02*
X0267382Y0249490D01*
X0274468Y0249490D01*
X0274468Y0239254D01*
X0274478Y0238942D01*
X0274417Y0238637D01*
X0274291Y0238352D01*
X0274104Y0238103D01*
X0273866Y0237901D01*
X0273589Y0237757D01*
X0273287Y0237679D01*
X0270531Y0237679D01*
X0270181Y0237719D01*
X0269848Y0237835D01*
X0269550Y0238023D01*
X0269300Y0238272D01*
X0269113Y0238571D01*
X0268996Y0238904D01*
X0268957Y0239254D01*
X0268957Y0246341D01*
X0267382Y0246341D01*
X0267382Y0246374D02*
X0274468Y0246374D01*
X0274468Y0245976D02*
X0268957Y0245976D01*
X0268957Y0245577D02*
X0274468Y0245577D01*
X0274468Y0245179D02*
X0268957Y0245179D01*
X0268957Y0244780D02*
X0274468Y0244780D01*
X0274468Y0244382D02*
X0268957Y0244382D01*
X0268957Y0243983D02*
X0274468Y0243983D01*
X0274468Y0243585D02*
X0268957Y0243585D01*
X0268957Y0243186D02*
X0274468Y0243186D01*
X0274468Y0242788D02*
X0268957Y0242788D01*
X0268957Y0242389D02*
X0274468Y0242389D01*
X0274468Y0241991D02*
X0268957Y0241991D01*
X0268957Y0241592D02*
X0274468Y0241592D01*
X0274468Y0241194D02*
X0268957Y0241194D01*
X0268957Y0240795D02*
X0274468Y0240795D01*
X0274468Y0240397D02*
X0268957Y0240397D01*
X0268957Y0239998D02*
X0274468Y0239998D01*
X0274468Y0239600D02*
X0268957Y0239600D01*
X0268963Y0239201D02*
X0274470Y0239201D01*
X0274450Y0238803D02*
X0269031Y0238803D01*
X0269217Y0238404D02*
X0274314Y0238404D01*
X0273989Y0238006D02*
X0269577Y0238006D01*
X0267382Y0246773D02*
X0274468Y0246773D01*
X0274468Y0247171D02*
X0267382Y0247171D01*
X0267382Y0247570D02*
X0274468Y0247570D01*
X0274468Y0247968D02*
X0267382Y0247968D01*
X0267382Y0248367D02*
X0274468Y0248367D01*
X0274468Y0248765D02*
X0267382Y0248765D01*
X0267382Y0249164D02*
X0274468Y0249164D01*
X0290217Y0249164D02*
X0297303Y0249164D01*
X0297303Y0249490D02*
X0297303Y0246341D01*
X0296122Y0246341D01*
X0296122Y0238860D01*
X0296044Y0238559D01*
X0295900Y0238282D01*
X0295699Y0238044D01*
X0295449Y0237857D01*
X0295165Y0237730D01*
X0294859Y0237670D01*
X0294547Y0237679D01*
X0291398Y0237679D01*
X0291135Y0237709D01*
X0290885Y0237796D01*
X0290661Y0237937D01*
X0290474Y0238124D01*
X0290333Y0238348D01*
X0290246Y0238597D01*
X0290217Y0238860D01*
X0290217Y0249490D01*
X0297303Y0249490D01*
X0297303Y0248765D02*
X0290217Y0248765D01*
X0290217Y0248367D02*
X0297303Y0248367D01*
X0297303Y0247968D02*
X0290217Y0247968D01*
X0290217Y0247570D02*
X0297303Y0247570D01*
X0297303Y0247171D02*
X0290217Y0247171D01*
X0290217Y0246773D02*
X0297303Y0246773D01*
X0297303Y0246374D02*
X0290217Y0246374D01*
X0290217Y0245976D02*
X0296122Y0245976D01*
X0296122Y0245577D02*
X0290217Y0245577D01*
X0290217Y0245179D02*
X0296122Y0245179D01*
X0296122Y0244780D02*
X0290217Y0244780D01*
X0290217Y0244382D02*
X0296122Y0244382D01*
X0296122Y0243983D02*
X0290217Y0243983D01*
X0290217Y0243585D02*
X0296122Y0243585D01*
X0296122Y0243186D02*
X0290217Y0243186D01*
X0290217Y0242788D02*
X0296122Y0242788D01*
X0296122Y0242389D02*
X0290217Y0242389D01*
X0290217Y0241991D02*
X0296122Y0241991D01*
X0296122Y0241592D02*
X0290217Y0241592D01*
X0290217Y0241194D02*
X0296122Y0241194D01*
X0296122Y0240795D02*
X0290217Y0240795D01*
X0290217Y0240397D02*
X0296122Y0240397D01*
X0296122Y0239998D02*
X0290217Y0239998D01*
X0290217Y0239600D02*
X0296122Y0239600D01*
X0296122Y0239201D02*
X0290217Y0239201D01*
X0290223Y0238803D02*
X0296107Y0238803D01*
X0295964Y0238404D02*
X0290314Y0238404D01*
X0290592Y0238006D02*
X0295647Y0238006D01*
D20*
X0249961Y0271211D03*
X0249961Y0278691D03*
X0239724Y0278691D03*
X0239724Y0274951D03*
X0239724Y0271211D03*
X0148040Y0271211D03*
X0148040Y0278691D03*
X0137803Y0278691D03*
X0137803Y0274951D03*
X0137803Y0271211D03*
X0046119Y0271211D03*
X0046119Y0278691D03*
X0035881Y0278691D03*
X0035881Y0274951D03*
X0035881Y0271211D03*
X0035881Y0084990D03*
X0035881Y0081250D03*
X0035881Y0077510D03*
X0046119Y0077510D03*
X0046119Y0084990D03*
X0137803Y0084990D03*
X0137803Y0081250D03*
X0137803Y0077510D03*
X0148040Y0077510D03*
X0148040Y0084990D03*
X0239724Y0084990D03*
X0239724Y0081250D03*
X0239724Y0077510D03*
X0249961Y0077510D03*
X0249961Y0084990D03*
D21*
X0248189Y0090750D03*
X0241496Y0090750D03*
X0241496Y0071750D03*
X0248189Y0071750D03*
X0250496Y0061450D03*
X0257189Y0061450D03*
X0155268Y0061450D03*
X0148575Y0061450D03*
X0146268Y0071750D03*
X0139575Y0071750D03*
X0139575Y0090750D03*
X0146268Y0090750D03*
X0053346Y0061450D03*
X0046654Y0061450D03*
X0044346Y0071750D03*
X0037654Y0071750D03*
X0037654Y0090750D03*
X0044346Y0090750D03*
X0046654Y0255151D03*
X0053346Y0255151D03*
X0044346Y0265451D03*
X0037654Y0265451D03*
X0037654Y0284451D03*
X0044346Y0284451D03*
X0139575Y0284451D03*
X0146268Y0284451D03*
X0146268Y0265451D03*
X0139575Y0265451D03*
X0148575Y0255151D03*
X0155268Y0255151D03*
X0241496Y0265451D03*
X0248189Y0265451D03*
X0250496Y0255151D03*
X0257189Y0255151D03*
X0248189Y0284451D03*
X0241496Y0284451D03*
D22*
X0224890Y0283474D03*
X0224890Y0261427D03*
X0326811Y0261427D03*
X0326811Y0283474D03*
X0326811Y0089774D03*
X0326811Y0067726D03*
X0224890Y0067726D03*
X0224890Y0089774D03*
X0122969Y0089774D03*
X0122969Y0067726D03*
X0122969Y0261427D03*
X0122969Y0283474D03*
D23*
X0108500Y0278356D03*
X0108500Y0274419D03*
X0108500Y0270482D03*
X0108500Y0266545D03*
X0210421Y0266545D03*
X0210421Y0270482D03*
X0210421Y0274419D03*
X0210421Y0278356D03*
X0312342Y0278356D03*
X0312342Y0274419D03*
X0312342Y0270482D03*
X0312342Y0266545D03*
X0312342Y0084656D03*
X0312342Y0080719D03*
X0312342Y0076781D03*
X0312342Y0072844D03*
X0210421Y0072844D03*
X0210421Y0076781D03*
X0210421Y0080719D03*
X0210421Y0084656D03*
X0108500Y0084656D03*
X0108500Y0080719D03*
X0108500Y0076781D03*
X0108500Y0072844D03*
D24*
X0032850Y0043179D03*
X0039150Y0043179D03*
X0039150Y0059321D03*
X0032850Y0059321D03*
X0117850Y0059321D03*
X0124150Y0059321D03*
X0134772Y0059321D03*
X0141071Y0059321D03*
X0141071Y0043179D03*
X0134772Y0043179D03*
X0124150Y0043179D03*
X0117850Y0043179D03*
X0219772Y0043179D03*
X0226071Y0043179D03*
X0236693Y0043179D03*
X0242992Y0043179D03*
X0242992Y0059321D03*
X0236693Y0059321D03*
X0226071Y0059321D03*
X0219772Y0059321D03*
X0321693Y0059321D03*
X0327992Y0059321D03*
X0327992Y0043179D03*
X0321693Y0043179D03*
X0321693Y0236880D03*
X0327992Y0236880D03*
X0327992Y0253022D03*
X0321693Y0253022D03*
X0242992Y0253022D03*
X0236693Y0253022D03*
X0226071Y0253022D03*
X0219772Y0253022D03*
X0219772Y0236880D03*
X0226071Y0236880D03*
X0236693Y0236880D03*
X0242992Y0236880D03*
X0141071Y0236880D03*
X0134772Y0236880D03*
X0124150Y0236880D03*
X0117850Y0236880D03*
X0117850Y0253022D03*
X0124150Y0253022D03*
X0134772Y0253022D03*
X0141071Y0253022D03*
X0039150Y0253022D03*
X0032850Y0253022D03*
X0032850Y0236880D03*
X0039150Y0236880D03*
D25*
X0050842Y0237340D02*
X0054158Y0237340D01*
X0050842Y0237340D02*
X0050842Y0240656D01*
X0054158Y0240656D01*
X0054158Y0237340D01*
X0054158Y0238760D02*
X0050842Y0238760D01*
X0050842Y0240180D02*
X0054158Y0240180D01*
X0054158Y0244246D02*
X0050842Y0244246D01*
X0050842Y0247562D01*
X0054158Y0247562D01*
X0054158Y0244246D01*
X0054158Y0245666D02*
X0050842Y0245666D01*
X0050842Y0247086D02*
X0054158Y0247086D01*
X0102842Y0244246D02*
X0106158Y0244246D01*
X0102842Y0244246D02*
X0102842Y0247562D01*
X0106158Y0247562D01*
X0106158Y0244246D01*
X0106158Y0245666D02*
X0102842Y0245666D01*
X0102842Y0247086D02*
X0106158Y0247086D01*
X0106158Y0237340D02*
X0102842Y0237340D01*
X0102842Y0240656D01*
X0106158Y0240656D01*
X0106158Y0237340D01*
X0106158Y0238760D02*
X0102842Y0238760D01*
X0102842Y0240180D02*
X0106158Y0240180D01*
X0152763Y0237340D02*
X0156079Y0237340D01*
X0152763Y0237340D02*
X0152763Y0240656D01*
X0156079Y0240656D01*
X0156079Y0237340D01*
X0156079Y0238760D02*
X0152763Y0238760D01*
X0152763Y0240180D02*
X0156079Y0240180D01*
X0156079Y0244246D02*
X0152763Y0244246D01*
X0152763Y0247562D01*
X0156079Y0247562D01*
X0156079Y0244246D01*
X0156079Y0245666D02*
X0152763Y0245666D01*
X0152763Y0247086D02*
X0156079Y0247086D01*
X0204763Y0244246D02*
X0208079Y0244246D01*
X0204763Y0244246D02*
X0204763Y0247562D01*
X0208079Y0247562D01*
X0208079Y0244246D01*
X0208079Y0245666D02*
X0204763Y0245666D01*
X0204763Y0247086D02*
X0208079Y0247086D01*
X0208079Y0237340D02*
X0204763Y0237340D01*
X0204763Y0240656D01*
X0208079Y0240656D01*
X0208079Y0237340D01*
X0208079Y0238760D02*
X0204763Y0238760D01*
X0204763Y0240180D02*
X0208079Y0240180D01*
X0254684Y0237340D02*
X0258000Y0237340D01*
X0254684Y0237340D02*
X0254684Y0240656D01*
X0258000Y0240656D01*
X0258000Y0237340D01*
X0258000Y0238760D02*
X0254684Y0238760D01*
X0254684Y0240180D02*
X0258000Y0240180D01*
X0258000Y0244246D02*
X0254684Y0244246D01*
X0254684Y0247562D01*
X0258000Y0247562D01*
X0258000Y0244246D01*
X0258000Y0245666D02*
X0254684Y0245666D01*
X0254684Y0247086D02*
X0258000Y0247086D01*
X0306684Y0244246D02*
X0310000Y0244246D01*
X0306684Y0244246D02*
X0306684Y0247562D01*
X0310000Y0247562D01*
X0310000Y0244246D01*
X0310000Y0245666D02*
X0306684Y0245666D01*
X0306684Y0247086D02*
X0310000Y0247086D01*
X0310000Y0237340D02*
X0306684Y0237340D01*
X0306684Y0240656D01*
X0310000Y0240656D01*
X0310000Y0237340D01*
X0310000Y0238760D02*
X0306684Y0238760D01*
X0306684Y0240180D02*
X0310000Y0240180D01*
X0310000Y0050545D02*
X0306684Y0050545D01*
X0306684Y0053861D01*
X0310000Y0053861D01*
X0310000Y0050545D01*
X0310000Y0051965D02*
X0306684Y0051965D01*
X0306684Y0053385D02*
X0310000Y0053385D01*
X0310000Y0043639D02*
X0306684Y0043639D01*
X0306684Y0046955D01*
X0310000Y0046955D01*
X0310000Y0043639D01*
X0310000Y0045059D02*
X0306684Y0045059D01*
X0306684Y0046479D02*
X0310000Y0046479D01*
X0258000Y0043639D02*
X0254684Y0043639D01*
X0254684Y0046955D01*
X0258000Y0046955D01*
X0258000Y0043639D01*
X0258000Y0045059D02*
X0254684Y0045059D01*
X0254684Y0046479D02*
X0258000Y0046479D01*
X0258000Y0050545D02*
X0254684Y0050545D01*
X0254684Y0053861D01*
X0258000Y0053861D01*
X0258000Y0050545D01*
X0258000Y0051965D02*
X0254684Y0051965D01*
X0254684Y0053385D02*
X0258000Y0053385D01*
X0208079Y0050545D02*
X0204763Y0050545D01*
X0204763Y0053861D01*
X0208079Y0053861D01*
X0208079Y0050545D01*
X0208079Y0051965D02*
X0204763Y0051965D01*
X0204763Y0053385D02*
X0208079Y0053385D01*
X0208079Y0043639D02*
X0204763Y0043639D01*
X0204763Y0046955D01*
X0208079Y0046955D01*
X0208079Y0043639D01*
X0208079Y0045059D02*
X0204763Y0045059D01*
X0204763Y0046479D02*
X0208079Y0046479D01*
X0156079Y0043639D02*
X0152763Y0043639D01*
X0152763Y0046955D01*
X0156079Y0046955D01*
X0156079Y0043639D01*
X0156079Y0045059D02*
X0152763Y0045059D01*
X0152763Y0046479D02*
X0156079Y0046479D01*
X0156079Y0050545D02*
X0152763Y0050545D01*
X0152763Y0053861D01*
X0156079Y0053861D01*
X0156079Y0050545D01*
X0156079Y0051965D02*
X0152763Y0051965D01*
X0152763Y0053385D02*
X0156079Y0053385D01*
X0106158Y0050545D02*
X0102842Y0050545D01*
X0102842Y0053861D01*
X0106158Y0053861D01*
X0106158Y0050545D01*
X0106158Y0051965D02*
X0102842Y0051965D01*
X0102842Y0053385D02*
X0106158Y0053385D01*
X0106158Y0043639D02*
X0102842Y0043639D01*
X0102842Y0046955D01*
X0106158Y0046955D01*
X0106158Y0043639D01*
X0106158Y0045059D02*
X0102842Y0045059D01*
X0102842Y0046479D02*
X0106158Y0046479D01*
X0054158Y0043639D02*
X0050842Y0043639D01*
X0050842Y0046955D01*
X0054158Y0046955D01*
X0054158Y0043639D01*
X0054158Y0045059D02*
X0050842Y0045059D01*
X0050842Y0046479D02*
X0054158Y0046479D01*
X0054158Y0050545D02*
X0050842Y0050545D01*
X0050842Y0053861D01*
X0054158Y0053861D01*
X0054158Y0050545D01*
X0054158Y0051965D02*
X0050842Y0051965D01*
X0050842Y0053385D02*
X0054158Y0053385D01*
D26*
X0056413Y0104750D03*
X0045587Y0104750D03*
X0147508Y0104750D03*
X0158335Y0104750D03*
X0249429Y0104750D03*
X0260256Y0104750D03*
X0260256Y0298451D03*
X0249429Y0298451D03*
X0158335Y0298451D03*
X0147508Y0298451D03*
X0056413Y0298451D03*
X0045587Y0298451D03*
D27*
X0051000Y0304455D03*
X0051000Y0292447D03*
X0152921Y0292447D03*
X0152921Y0304455D03*
X0254842Y0304455D03*
X0254842Y0292447D03*
X0254842Y0110754D03*
X0254842Y0098746D03*
X0152921Y0098746D03*
X0152921Y0110754D03*
X0051000Y0110754D03*
X0051000Y0098746D03*
D28*
X0061000Y0089774D03*
X0066000Y0089774D03*
X0071000Y0089774D03*
X0076000Y0089774D03*
X0081000Y0089774D03*
X0086000Y0089774D03*
X0091000Y0089774D03*
X0096000Y0089774D03*
X0096000Y0067726D03*
X0091000Y0067726D03*
X0086000Y0067726D03*
X0081000Y0067726D03*
X0076000Y0067726D03*
X0071000Y0067726D03*
X0066000Y0067726D03*
X0061000Y0067726D03*
X0162921Y0067726D03*
X0167921Y0067726D03*
X0172921Y0067726D03*
X0177921Y0067726D03*
X0182921Y0067726D03*
X0187921Y0067726D03*
X0192921Y0067726D03*
X0197921Y0067726D03*
X0197921Y0089774D03*
X0192921Y0089774D03*
X0187921Y0089774D03*
X0182921Y0089774D03*
X0177921Y0089774D03*
X0172921Y0089774D03*
X0167921Y0089774D03*
X0162921Y0089774D03*
X0264842Y0089774D03*
X0269842Y0089774D03*
X0274842Y0089774D03*
X0279842Y0089774D03*
X0284842Y0089774D03*
X0289842Y0089774D03*
X0294842Y0089774D03*
X0299842Y0089774D03*
X0299842Y0067726D03*
X0294842Y0067726D03*
X0289842Y0067726D03*
X0284842Y0067726D03*
X0279842Y0067726D03*
X0274842Y0067726D03*
X0269842Y0067726D03*
X0264842Y0067726D03*
X0264842Y0261427D03*
X0269842Y0261427D03*
X0274842Y0261427D03*
X0279842Y0261427D03*
X0284842Y0261427D03*
X0289842Y0261427D03*
X0294842Y0261427D03*
X0299842Y0261427D03*
X0299842Y0283474D03*
X0294842Y0283474D03*
X0289842Y0283474D03*
X0284842Y0283474D03*
X0279842Y0283474D03*
X0274842Y0283474D03*
X0269842Y0283474D03*
X0264842Y0283474D03*
X0197921Y0283474D03*
X0192921Y0283474D03*
X0187921Y0283474D03*
X0182921Y0283474D03*
X0177921Y0283474D03*
X0172921Y0283474D03*
X0167921Y0283474D03*
X0162921Y0283474D03*
X0162921Y0261427D03*
X0167921Y0261427D03*
X0172921Y0261427D03*
X0177921Y0261427D03*
X0182921Y0261427D03*
X0187921Y0261427D03*
X0192921Y0261427D03*
X0197921Y0261427D03*
X0096000Y0261427D03*
X0091000Y0261427D03*
X0086000Y0261427D03*
X0081000Y0261427D03*
X0076000Y0261427D03*
X0071000Y0261427D03*
X0066000Y0261427D03*
X0061000Y0261427D03*
X0061000Y0283474D03*
X0066000Y0283474D03*
X0071000Y0283474D03*
X0076000Y0283474D03*
X0081000Y0283474D03*
X0086000Y0283474D03*
X0091000Y0283474D03*
X0096000Y0283474D03*
D29*
X0123500Y0292451D03*
X0123500Y0302451D03*
X0123500Y0312451D03*
X0123500Y0322451D03*
X0123500Y0332451D03*
X0123500Y0342451D03*
X0123500Y0352451D03*
X0123500Y0362451D03*
X0123500Y0372451D03*
X0123500Y0382451D03*
X0135421Y0382451D03*
X0135421Y0372451D03*
X0135421Y0362451D03*
X0135421Y0352451D03*
X0135421Y0342451D03*
X0135421Y0332451D03*
X0135421Y0322451D03*
X0135421Y0312451D03*
X0135421Y0292451D03*
X0135421Y0188750D03*
X0135421Y0178750D03*
X0135421Y0168750D03*
X0135421Y0158750D03*
X0135421Y0148750D03*
X0135421Y0138750D03*
X0135421Y0128750D03*
X0135421Y0118750D03*
X0123500Y0118750D03*
X0123500Y0108750D03*
X0123500Y0098750D03*
X0135421Y0098750D03*
X0123500Y0128750D03*
X0123500Y0138750D03*
X0123500Y0148750D03*
X0123500Y0158750D03*
X0123500Y0168750D03*
X0123500Y0178750D03*
X0123500Y0188750D03*
X0033500Y0188750D03*
X0033500Y0178750D03*
X0033500Y0168750D03*
X0033500Y0158750D03*
X0033500Y0148750D03*
X0033500Y0138750D03*
X0033500Y0128750D03*
X0033500Y0118750D03*
X0033500Y0098750D03*
X0033500Y0292451D03*
X0033500Y0312451D03*
X0033500Y0322451D03*
X0033500Y0332451D03*
X0033500Y0342451D03*
X0033500Y0352451D03*
X0033500Y0362451D03*
X0033500Y0372451D03*
X0033500Y0382451D03*
X0225421Y0382451D03*
X0225421Y0372451D03*
X0225421Y0362451D03*
X0225421Y0352451D03*
X0225421Y0342451D03*
X0225421Y0332451D03*
X0225421Y0322451D03*
X0225421Y0312451D03*
X0225421Y0302451D03*
X0225421Y0292451D03*
X0237342Y0292451D03*
X0237342Y0312451D03*
X0237342Y0322451D03*
X0237342Y0332451D03*
X0237342Y0342451D03*
X0237342Y0352451D03*
X0237342Y0362451D03*
X0237342Y0372451D03*
X0237342Y0382451D03*
X0327342Y0382451D03*
X0327342Y0372451D03*
X0327342Y0362451D03*
X0327342Y0352451D03*
X0327342Y0342451D03*
X0327342Y0332451D03*
X0327342Y0322451D03*
X0327342Y0312451D03*
X0327342Y0302451D03*
X0327342Y0292451D03*
X0327342Y0188750D03*
X0327342Y0178750D03*
X0327342Y0168750D03*
X0327342Y0158750D03*
X0327342Y0148750D03*
X0327342Y0138750D03*
X0327342Y0128750D03*
X0327342Y0118750D03*
X0327342Y0108750D03*
X0327342Y0098750D03*
X0237342Y0098750D03*
X0225421Y0098750D03*
X0225421Y0108750D03*
X0225421Y0118750D03*
X0225421Y0128750D03*
X0225421Y0138750D03*
X0225421Y0148750D03*
X0225421Y0158750D03*
X0225421Y0168750D03*
X0225421Y0178750D03*
X0225421Y0188750D03*
X0237342Y0188750D03*
X0237342Y0178750D03*
X0237342Y0168750D03*
X0237342Y0158750D03*
X0237342Y0148750D03*
X0237342Y0138750D03*
X0237342Y0128750D03*
X0237342Y0118750D03*
D30*
X0215421Y0041250D03*
X0113500Y0041250D03*
X0132921Y0217750D03*
X0113500Y0234951D03*
X0031000Y0217750D03*
X0031000Y0411451D03*
X0132921Y0411451D03*
X0234842Y0411451D03*
X0215421Y0234951D03*
X0234842Y0217750D03*
X0317342Y0234951D03*
X0317342Y0041250D03*
D31*
X0305264Y0432402D03*
X0055500Y0432402D03*
D32*
X0051935Y0020500D02*
X0051937Y0020619D01*
X0051943Y0020738D01*
X0051953Y0020857D01*
X0051967Y0020975D01*
X0051985Y0021093D01*
X0052006Y0021210D01*
X0052032Y0021326D01*
X0052062Y0021442D01*
X0052095Y0021556D01*
X0052132Y0021669D01*
X0052173Y0021781D01*
X0052218Y0021892D01*
X0052266Y0022001D01*
X0052318Y0022108D01*
X0052374Y0022213D01*
X0052433Y0022317D01*
X0052495Y0022418D01*
X0052561Y0022518D01*
X0052630Y0022615D01*
X0052702Y0022709D01*
X0052778Y0022802D01*
X0052856Y0022891D01*
X0052937Y0022978D01*
X0053022Y0023063D01*
X0053109Y0023144D01*
X0053198Y0023222D01*
X0053291Y0023298D01*
X0053385Y0023370D01*
X0053482Y0023439D01*
X0053582Y0023505D01*
X0053683Y0023567D01*
X0053787Y0023626D01*
X0053892Y0023682D01*
X0053999Y0023734D01*
X0054108Y0023782D01*
X0054219Y0023827D01*
X0054331Y0023868D01*
X0054444Y0023905D01*
X0054558Y0023938D01*
X0054674Y0023968D01*
X0054790Y0023994D01*
X0054907Y0024015D01*
X0055025Y0024033D01*
X0055143Y0024047D01*
X0055262Y0024057D01*
X0055381Y0024063D01*
X0055500Y0024065D01*
X0055619Y0024063D01*
X0055738Y0024057D01*
X0055857Y0024047D01*
X0055975Y0024033D01*
X0056093Y0024015D01*
X0056210Y0023994D01*
X0056326Y0023968D01*
X0056442Y0023938D01*
X0056556Y0023905D01*
X0056669Y0023868D01*
X0056781Y0023827D01*
X0056892Y0023782D01*
X0057001Y0023734D01*
X0057108Y0023682D01*
X0057213Y0023626D01*
X0057317Y0023567D01*
X0057418Y0023505D01*
X0057518Y0023439D01*
X0057615Y0023370D01*
X0057709Y0023298D01*
X0057802Y0023222D01*
X0057891Y0023144D01*
X0057978Y0023063D01*
X0058063Y0022978D01*
X0058144Y0022891D01*
X0058222Y0022802D01*
X0058298Y0022709D01*
X0058370Y0022615D01*
X0058439Y0022518D01*
X0058505Y0022418D01*
X0058567Y0022317D01*
X0058626Y0022213D01*
X0058682Y0022108D01*
X0058734Y0022001D01*
X0058782Y0021892D01*
X0058827Y0021781D01*
X0058868Y0021669D01*
X0058905Y0021556D01*
X0058938Y0021442D01*
X0058968Y0021326D01*
X0058994Y0021210D01*
X0059015Y0021093D01*
X0059033Y0020975D01*
X0059047Y0020857D01*
X0059057Y0020738D01*
X0059063Y0020619D01*
X0059065Y0020500D01*
X0059063Y0020381D01*
X0059057Y0020262D01*
X0059047Y0020143D01*
X0059033Y0020025D01*
X0059015Y0019907D01*
X0058994Y0019790D01*
X0058968Y0019674D01*
X0058938Y0019558D01*
X0058905Y0019444D01*
X0058868Y0019331D01*
X0058827Y0019219D01*
X0058782Y0019108D01*
X0058734Y0018999D01*
X0058682Y0018892D01*
X0058626Y0018787D01*
X0058567Y0018683D01*
X0058505Y0018582D01*
X0058439Y0018482D01*
X0058370Y0018385D01*
X0058298Y0018291D01*
X0058222Y0018198D01*
X0058144Y0018109D01*
X0058063Y0018022D01*
X0057978Y0017937D01*
X0057891Y0017856D01*
X0057802Y0017778D01*
X0057709Y0017702D01*
X0057615Y0017630D01*
X0057518Y0017561D01*
X0057418Y0017495D01*
X0057317Y0017433D01*
X0057213Y0017374D01*
X0057108Y0017318D01*
X0057001Y0017266D01*
X0056892Y0017218D01*
X0056781Y0017173D01*
X0056669Y0017132D01*
X0056556Y0017095D01*
X0056442Y0017062D01*
X0056326Y0017032D01*
X0056210Y0017006D01*
X0056093Y0016985D01*
X0055975Y0016967D01*
X0055857Y0016953D01*
X0055738Y0016943D01*
X0055619Y0016937D01*
X0055500Y0016935D01*
X0055381Y0016937D01*
X0055262Y0016943D01*
X0055143Y0016953D01*
X0055025Y0016967D01*
X0054907Y0016985D01*
X0054790Y0017006D01*
X0054674Y0017032D01*
X0054558Y0017062D01*
X0054444Y0017095D01*
X0054331Y0017132D01*
X0054219Y0017173D01*
X0054108Y0017218D01*
X0053999Y0017266D01*
X0053892Y0017318D01*
X0053787Y0017374D01*
X0053683Y0017433D01*
X0053582Y0017495D01*
X0053482Y0017561D01*
X0053385Y0017630D01*
X0053291Y0017702D01*
X0053198Y0017778D01*
X0053109Y0017856D01*
X0053022Y0017937D01*
X0052937Y0018022D01*
X0052856Y0018109D01*
X0052778Y0018198D01*
X0052702Y0018291D01*
X0052630Y0018385D01*
X0052561Y0018482D01*
X0052495Y0018582D01*
X0052433Y0018683D01*
X0052374Y0018787D01*
X0052318Y0018892D01*
X0052266Y0018999D01*
X0052218Y0019108D01*
X0052173Y0019219D01*
X0052132Y0019331D01*
X0052095Y0019444D01*
X0052062Y0019558D01*
X0052032Y0019674D01*
X0052006Y0019790D01*
X0051985Y0019907D01*
X0051967Y0020025D01*
X0051953Y0020143D01*
X0051943Y0020262D01*
X0051937Y0020381D01*
X0051935Y0020500D01*
D33*
X0055500Y0020500D03*
M02*
