G75*
%MOIN*%
%OFA0B0*%
%FSLAX25Y25*%
%IPPOS*%
%LPD*%
%AMOC8*
5,1,8,0,0,1.08239X$1,22.5*
%
%ADD10R,0.03937X0.04331*%
%ADD11R,0.02598X0.01181*%
%ADD12R,0.05906X0.03543*%
%ADD13R,0.03543X0.05906*%
%ADD14R,0.16703X0.16799*%
%ADD15R,0.07874X0.05748*%
%ADD16R,0.05610X0.09843*%
%ADD17C,0.00400*%
%ADD18C,0.00197*%
%ADD19R,0.04724X0.02165*%
%ADD20R,0.04331X0.03937*%
%ADD21R,0.07874X0.04724*%
%ADD22R,0.05315X0.02362*%
%ADD23R,0.03937X0.03543*%
%ADD24C,0.01181*%
%ADD25R,0.03346X0.08661*%
%ADD26R,0.03937X0.04134*%
%ADD27R,0.02362X0.04724*%
D10*
X0046500Y0045404D03*
X0046500Y0052096D03*
X0058500Y0052096D03*
X0058500Y0045404D03*
X0053500Y0075404D03*
X0053500Y0082096D03*
X0064500Y0100404D03*
X0064500Y0107096D03*
X0070500Y0107096D03*
X0070500Y0100404D03*
X0076500Y0100404D03*
X0082500Y0100404D03*
X0082500Y0107096D03*
X0076500Y0107096D03*
X0088500Y0107096D03*
X0088500Y0100404D03*
X0109000Y0100404D03*
X0109000Y0107096D03*
X0110500Y0052096D03*
X0110500Y0045404D03*
X0098500Y0045404D03*
X0098500Y0052096D03*
X0148421Y0052096D03*
X0148421Y0045404D03*
X0160421Y0045404D03*
X0160421Y0052096D03*
X0155421Y0075404D03*
X0155421Y0082096D03*
X0166421Y0100404D03*
X0172421Y0100404D03*
X0172421Y0107096D03*
X0166421Y0107096D03*
X0178421Y0107096D03*
X0178421Y0100404D03*
X0184421Y0100404D03*
X0190421Y0100404D03*
X0190421Y0107096D03*
X0184421Y0107096D03*
X0210921Y0107096D03*
X0210921Y0100404D03*
X0212421Y0052096D03*
X0212421Y0045404D03*
X0200421Y0045404D03*
X0200421Y0052096D03*
X0250342Y0052096D03*
X0250342Y0045404D03*
X0262342Y0045404D03*
X0262342Y0052096D03*
X0257342Y0075404D03*
X0257342Y0082096D03*
X0268342Y0100404D03*
X0268342Y0107096D03*
X0274342Y0107096D03*
X0280342Y0107096D03*
X0280342Y0100404D03*
X0274342Y0100404D03*
X0286342Y0100404D03*
X0286342Y0107096D03*
X0292342Y0107096D03*
X0292342Y0100404D03*
X0312842Y0100404D03*
X0312842Y0107096D03*
X0314342Y0052096D03*
X0314342Y0045404D03*
X0302342Y0045404D03*
X0302342Y0052096D03*
X0302342Y0239104D03*
X0302342Y0245797D03*
X0314342Y0245797D03*
X0314342Y0239104D03*
X0312842Y0294104D03*
X0312842Y0300797D03*
X0292342Y0300797D03*
X0286342Y0300797D03*
X0280342Y0300797D03*
X0274342Y0300797D03*
X0268342Y0300797D03*
X0268342Y0294104D03*
X0274342Y0294104D03*
X0280342Y0294104D03*
X0286342Y0294104D03*
X0292342Y0294104D03*
X0257342Y0275797D03*
X0257342Y0269104D03*
X0262342Y0245797D03*
X0262342Y0239104D03*
X0250342Y0239104D03*
X0250342Y0245797D03*
X0212421Y0245797D03*
X0212421Y0239104D03*
X0200421Y0239104D03*
X0200421Y0245797D03*
X0190421Y0294104D03*
X0184421Y0294104D03*
X0178421Y0294104D03*
X0172421Y0294104D03*
X0166421Y0294104D03*
X0166421Y0300797D03*
X0172421Y0300797D03*
X0178421Y0300797D03*
X0184421Y0300797D03*
X0190421Y0300797D03*
X0210921Y0300797D03*
X0210921Y0294104D03*
X0160421Y0245797D03*
X0160421Y0239104D03*
X0148421Y0239104D03*
X0148421Y0245797D03*
X0155421Y0269104D03*
X0155421Y0275797D03*
X0109000Y0294104D03*
X0109000Y0300797D03*
X0088500Y0300797D03*
X0082500Y0300797D03*
X0076500Y0300797D03*
X0070500Y0300797D03*
X0064500Y0300797D03*
X0064500Y0294104D03*
X0070500Y0294104D03*
X0076500Y0294104D03*
X0082500Y0294104D03*
X0088500Y0294104D03*
X0053500Y0275797D03*
X0053500Y0269104D03*
X0058500Y0245797D03*
X0058500Y0239104D03*
X0046500Y0239104D03*
X0046500Y0245797D03*
X0098500Y0245797D03*
X0098500Y0239104D03*
X0110500Y0239104D03*
X0110500Y0245797D03*
D11*
X0102122Y0294892D03*
X0102122Y0297451D03*
X0102122Y0300010D03*
X0094878Y0300010D03*
X0094878Y0297451D03*
X0094878Y0294892D03*
X0196799Y0294892D03*
X0196799Y0297451D03*
X0196799Y0300010D03*
X0204043Y0300010D03*
X0204043Y0297451D03*
X0204043Y0294892D03*
X0298720Y0294892D03*
X0298720Y0297451D03*
X0298720Y0300010D03*
X0305965Y0300010D03*
X0305965Y0297451D03*
X0305965Y0294892D03*
X0305965Y0106309D03*
X0305965Y0103750D03*
X0305965Y0101191D03*
X0298720Y0101191D03*
X0298720Y0103750D03*
X0298720Y0106309D03*
X0204043Y0106309D03*
X0204043Y0103750D03*
X0204043Y0101191D03*
X0196799Y0101191D03*
X0196799Y0103750D03*
X0196799Y0106309D03*
X0102122Y0106309D03*
X0102122Y0103750D03*
X0102122Y0101191D03*
X0094878Y0101191D03*
X0094878Y0103750D03*
X0094878Y0106309D03*
D12*
X0110933Y0124065D03*
X0110933Y0129065D03*
X0110933Y0134065D03*
X0110933Y0139065D03*
X0110933Y0144065D03*
X0110933Y0149065D03*
X0110933Y0154065D03*
X0110933Y0159065D03*
X0110933Y0164065D03*
X0110933Y0169065D03*
X0110933Y0174065D03*
X0110933Y0179065D03*
X0110933Y0184065D03*
X0110933Y0189065D03*
X0147988Y0189065D03*
X0147988Y0184065D03*
X0147988Y0179065D03*
X0147988Y0174065D03*
X0147988Y0169065D03*
X0147988Y0164065D03*
X0147988Y0159065D03*
X0147988Y0154065D03*
X0147988Y0149065D03*
X0147988Y0144065D03*
X0147988Y0139065D03*
X0147988Y0134065D03*
X0147988Y0129065D03*
X0147988Y0124065D03*
X0212854Y0124065D03*
X0212854Y0129065D03*
X0212854Y0134065D03*
X0212854Y0139065D03*
X0212854Y0144065D03*
X0212854Y0149065D03*
X0212854Y0154065D03*
X0212854Y0159065D03*
X0212854Y0164065D03*
X0212854Y0169065D03*
X0212854Y0174065D03*
X0212854Y0179065D03*
X0212854Y0184065D03*
X0212854Y0189065D03*
X0249909Y0189065D03*
X0249909Y0184065D03*
X0249909Y0179065D03*
X0249909Y0174065D03*
X0249909Y0169065D03*
X0249909Y0164065D03*
X0249909Y0159065D03*
X0249909Y0154065D03*
X0249909Y0149065D03*
X0249909Y0144065D03*
X0249909Y0139065D03*
X0249909Y0134065D03*
X0249909Y0129065D03*
X0249909Y0124065D03*
X0314776Y0124065D03*
X0314776Y0129065D03*
X0314776Y0134065D03*
X0314776Y0139065D03*
X0314776Y0144065D03*
X0314776Y0149065D03*
X0314776Y0154065D03*
X0314776Y0159065D03*
X0314776Y0164065D03*
X0314776Y0169065D03*
X0314776Y0174065D03*
X0314776Y0179065D03*
X0314776Y0184065D03*
X0314776Y0189065D03*
X0314776Y0317766D03*
X0314776Y0322766D03*
X0314776Y0327766D03*
X0314776Y0332766D03*
X0314776Y0337766D03*
X0314776Y0342766D03*
X0314776Y0347766D03*
X0314776Y0352766D03*
X0314776Y0357766D03*
X0314776Y0362766D03*
X0314776Y0367766D03*
X0314776Y0372766D03*
X0314776Y0377766D03*
X0314776Y0382766D03*
X0249909Y0382766D03*
X0249909Y0377766D03*
X0249909Y0372766D03*
X0249909Y0367766D03*
X0249909Y0362766D03*
X0249909Y0357766D03*
X0249909Y0352766D03*
X0249909Y0347766D03*
X0249909Y0342766D03*
X0249909Y0337766D03*
X0249909Y0332766D03*
X0249909Y0327766D03*
X0249909Y0322766D03*
X0249909Y0317766D03*
X0212854Y0317766D03*
X0212854Y0322766D03*
X0212854Y0327766D03*
X0212854Y0332766D03*
X0212854Y0337766D03*
X0212854Y0342766D03*
X0212854Y0347766D03*
X0212854Y0352766D03*
X0212854Y0357766D03*
X0212854Y0362766D03*
X0212854Y0367766D03*
X0212854Y0372766D03*
X0212854Y0377766D03*
X0212854Y0382766D03*
X0147988Y0382766D03*
X0147988Y0377766D03*
X0147988Y0372766D03*
X0147988Y0367766D03*
X0147988Y0362766D03*
X0147988Y0357766D03*
X0147988Y0352766D03*
X0147988Y0347766D03*
X0147988Y0342766D03*
X0147988Y0337766D03*
X0147988Y0332766D03*
X0147988Y0327766D03*
X0147988Y0322766D03*
X0147988Y0317766D03*
X0110933Y0317766D03*
X0110933Y0322766D03*
X0110933Y0327766D03*
X0110933Y0332766D03*
X0110933Y0337766D03*
X0110933Y0342766D03*
X0110933Y0347766D03*
X0110933Y0352766D03*
X0110933Y0357766D03*
X0110933Y0362766D03*
X0110933Y0367766D03*
X0110933Y0372766D03*
X0110933Y0377766D03*
X0110933Y0382766D03*
X0046067Y0382766D03*
X0046067Y0377766D03*
X0046067Y0372766D03*
X0046067Y0367766D03*
X0046067Y0362766D03*
X0046067Y0357766D03*
X0046067Y0352766D03*
X0046067Y0347766D03*
X0046067Y0342766D03*
X0046067Y0337766D03*
X0046067Y0332766D03*
X0046067Y0327766D03*
X0046067Y0322766D03*
X0046067Y0317766D03*
X0046067Y0189065D03*
X0046067Y0184065D03*
X0046067Y0179065D03*
X0046067Y0174065D03*
X0046067Y0169065D03*
X0046067Y0164065D03*
X0046067Y0159065D03*
X0046067Y0154065D03*
X0046067Y0149065D03*
X0046067Y0144065D03*
X0046067Y0139065D03*
X0046067Y0134065D03*
X0046067Y0129065D03*
X0046067Y0124065D03*
D13*
X0056000Y0118199D03*
X0061000Y0118199D03*
X0066000Y0118199D03*
X0071000Y0118199D03*
X0076000Y0118199D03*
X0081000Y0118199D03*
X0086000Y0118199D03*
X0091000Y0118199D03*
X0096000Y0118199D03*
X0101000Y0118199D03*
X0157921Y0118199D03*
X0162921Y0118199D03*
X0167921Y0118199D03*
X0172921Y0118199D03*
X0177921Y0118199D03*
X0182921Y0118199D03*
X0187921Y0118199D03*
X0192921Y0118199D03*
X0197921Y0118199D03*
X0202921Y0118199D03*
X0259842Y0118199D03*
X0264842Y0118199D03*
X0269842Y0118199D03*
X0274842Y0118199D03*
X0279842Y0118199D03*
X0284842Y0118199D03*
X0289842Y0118199D03*
X0294842Y0118199D03*
X0299842Y0118199D03*
X0304842Y0118199D03*
X0304842Y0311900D03*
X0299842Y0311900D03*
X0294842Y0311900D03*
X0289842Y0311900D03*
X0284842Y0311900D03*
X0279842Y0311900D03*
X0274842Y0311900D03*
X0269842Y0311900D03*
X0264842Y0311900D03*
X0259842Y0311900D03*
X0202921Y0311900D03*
X0197921Y0311900D03*
X0192921Y0311900D03*
X0187921Y0311900D03*
X0182921Y0311900D03*
X0177921Y0311900D03*
X0172921Y0311900D03*
X0167921Y0311900D03*
X0162921Y0311900D03*
X0157921Y0311900D03*
X0101000Y0311900D03*
X0096000Y0311900D03*
X0091000Y0311900D03*
X0086000Y0311900D03*
X0081000Y0311900D03*
X0076000Y0311900D03*
X0071000Y0311900D03*
X0066000Y0311900D03*
X0061000Y0311900D03*
X0056000Y0311900D03*
D14*
X0078500Y0352453D03*
X0180421Y0352453D03*
X0282342Y0352453D03*
X0282342Y0158752D03*
X0180421Y0158752D03*
X0078500Y0158752D03*
D15*
X0067083Y0253033D03*
X0089917Y0253033D03*
X0169004Y0253033D03*
X0191839Y0253033D03*
X0270925Y0253033D03*
X0293760Y0253033D03*
X0293760Y0059333D03*
X0270925Y0059333D03*
X0191839Y0059333D03*
X0169004Y0059333D03*
X0089917Y0059333D03*
X0067083Y0059333D03*
D16*
X0074711Y0047719D03*
X0082289Y0047719D03*
X0176632Y0047719D03*
X0184211Y0047719D03*
X0278553Y0047719D03*
X0286132Y0047719D03*
X0286132Y0241419D03*
X0278553Y0241419D03*
X0184211Y0241419D03*
X0176632Y0241419D03*
X0082289Y0241419D03*
X0074711Y0241419D03*
D17*
X0070643Y0241592D02*
X0065243Y0241592D01*
X0065243Y0241194D02*
X0070643Y0241194D01*
X0070643Y0240795D02*
X0065243Y0240795D01*
X0065243Y0240397D02*
X0070643Y0240397D01*
X0070643Y0239998D02*
X0065243Y0239998D01*
X0065243Y0239600D02*
X0070643Y0239600D01*
X0070643Y0239391D02*
X0070611Y0239102D01*
X0070514Y0238827D01*
X0070360Y0238580D01*
X0070154Y0238375D01*
X0069907Y0238220D01*
X0069632Y0238124D01*
X0069343Y0238091D01*
X0066443Y0238091D01*
X0066176Y0238121D01*
X0065923Y0238210D01*
X0065695Y0238353D01*
X0065505Y0238543D01*
X0065362Y0238770D01*
X0065273Y0239024D01*
X0065243Y0239291D01*
X0065243Y0246191D01*
X0065236Y0246229D01*
X0065214Y0246262D01*
X0065181Y0246283D01*
X0065143Y0246291D01*
X0063243Y0246291D01*
X0063243Y0249391D01*
X0070643Y0249391D01*
X0070643Y0239391D01*
X0070622Y0239201D02*
X0065253Y0239201D01*
X0065351Y0238803D02*
X0070499Y0238803D01*
X0070183Y0238404D02*
X0065644Y0238404D01*
X0065243Y0241991D02*
X0070643Y0241991D01*
X0070643Y0242389D02*
X0065243Y0242389D01*
X0065243Y0242788D02*
X0070643Y0242788D01*
X0070643Y0243186D02*
X0065243Y0243186D01*
X0065243Y0243585D02*
X0070643Y0243585D01*
X0070643Y0243983D02*
X0065243Y0243983D01*
X0065243Y0244382D02*
X0070643Y0244382D01*
X0070643Y0244780D02*
X0065243Y0244780D01*
X0065243Y0245179D02*
X0070643Y0245179D01*
X0070643Y0245577D02*
X0065243Y0245577D01*
X0065243Y0245976D02*
X0070643Y0245976D01*
X0070643Y0246374D02*
X0063243Y0246374D01*
X0063243Y0246773D02*
X0070643Y0246773D01*
X0070643Y0247171D02*
X0063243Y0247171D01*
X0063243Y0247570D02*
X0070643Y0247570D01*
X0070643Y0247968D02*
X0063243Y0247968D01*
X0063243Y0248367D02*
X0070643Y0248367D01*
X0070643Y0248765D02*
X0063243Y0248765D01*
X0063243Y0249164D02*
X0070643Y0249164D01*
X0086306Y0249164D02*
X0093706Y0249164D01*
X0093706Y0249391D02*
X0086306Y0249391D01*
X0086306Y0239391D01*
X0086339Y0239102D01*
X0086435Y0238827D01*
X0086590Y0238580D01*
X0086796Y0238375D01*
X0087042Y0238220D01*
X0087317Y0238124D01*
X0087606Y0238091D01*
X0090506Y0238091D01*
X0090773Y0238121D01*
X0091027Y0238210D01*
X0091254Y0238353D01*
X0091445Y0238543D01*
X0091587Y0238770D01*
X0091676Y0239024D01*
X0091706Y0239291D01*
X0091706Y0246191D01*
X0091714Y0246229D01*
X0091736Y0246262D01*
X0091768Y0246283D01*
X0091806Y0246291D01*
X0093706Y0246291D01*
X0093706Y0249391D01*
X0093706Y0248765D02*
X0086306Y0248765D01*
X0086306Y0248367D02*
X0093706Y0248367D01*
X0093706Y0247968D02*
X0086306Y0247968D01*
X0086306Y0247570D02*
X0093706Y0247570D01*
X0093706Y0247171D02*
X0086306Y0247171D01*
X0086306Y0246773D02*
X0093706Y0246773D01*
X0093706Y0246374D02*
X0086306Y0246374D01*
X0086306Y0245976D02*
X0091706Y0245976D01*
X0091706Y0245577D02*
X0086306Y0245577D01*
X0086306Y0245179D02*
X0091706Y0245179D01*
X0091706Y0244780D02*
X0086306Y0244780D01*
X0086306Y0244382D02*
X0091706Y0244382D01*
X0091706Y0243983D02*
X0086306Y0243983D01*
X0086306Y0243585D02*
X0091706Y0243585D01*
X0091706Y0243186D02*
X0086306Y0243186D01*
X0086306Y0242788D02*
X0091706Y0242788D01*
X0091706Y0242389D02*
X0086306Y0242389D01*
X0086306Y0241991D02*
X0091706Y0241991D01*
X0091706Y0241592D02*
X0086306Y0241592D01*
X0086306Y0241194D02*
X0091706Y0241194D01*
X0091706Y0240795D02*
X0086306Y0240795D01*
X0086306Y0240397D02*
X0091706Y0240397D01*
X0091706Y0239998D02*
X0086306Y0239998D01*
X0086306Y0239600D02*
X0091706Y0239600D01*
X0091696Y0239201D02*
X0086328Y0239201D01*
X0086450Y0238803D02*
X0091599Y0238803D01*
X0091306Y0238404D02*
X0086766Y0238404D01*
X0165164Y0246291D02*
X0165164Y0249391D01*
X0172564Y0249391D01*
X0172564Y0239391D01*
X0172532Y0239102D01*
X0172436Y0238827D01*
X0172281Y0238580D01*
X0172075Y0238375D01*
X0171829Y0238220D01*
X0171554Y0238124D01*
X0171264Y0238091D01*
X0168364Y0238091D01*
X0168097Y0238121D01*
X0167844Y0238210D01*
X0167616Y0238353D01*
X0167426Y0238543D01*
X0167283Y0238770D01*
X0167195Y0239024D01*
X0167164Y0239291D01*
X0167164Y0246191D01*
X0167157Y0246229D01*
X0167135Y0246262D01*
X0167103Y0246283D01*
X0167064Y0246291D01*
X0165164Y0246291D01*
X0165164Y0246374D02*
X0172564Y0246374D01*
X0172564Y0245976D02*
X0167164Y0245976D01*
X0167164Y0245577D02*
X0172564Y0245577D01*
X0172564Y0245179D02*
X0167164Y0245179D01*
X0167164Y0244780D02*
X0172564Y0244780D01*
X0172564Y0244382D02*
X0167164Y0244382D01*
X0167164Y0243983D02*
X0172564Y0243983D01*
X0172564Y0243585D02*
X0167164Y0243585D01*
X0167164Y0243186D02*
X0172564Y0243186D01*
X0172564Y0242788D02*
X0167164Y0242788D01*
X0167164Y0242389D02*
X0172564Y0242389D01*
X0172564Y0241991D02*
X0167164Y0241991D01*
X0167164Y0241592D02*
X0172564Y0241592D01*
X0172564Y0241194D02*
X0167164Y0241194D01*
X0167164Y0240795D02*
X0172564Y0240795D01*
X0172564Y0240397D02*
X0167164Y0240397D01*
X0167164Y0239998D02*
X0172564Y0239998D01*
X0172564Y0239600D02*
X0167164Y0239600D01*
X0167175Y0239201D02*
X0172543Y0239201D01*
X0172420Y0238803D02*
X0167272Y0238803D01*
X0167565Y0238404D02*
X0172105Y0238404D01*
X0172564Y0246773D02*
X0165164Y0246773D01*
X0165164Y0247171D02*
X0172564Y0247171D01*
X0172564Y0247570D02*
X0165164Y0247570D01*
X0165164Y0247968D02*
X0172564Y0247968D01*
X0172564Y0248367D02*
X0165164Y0248367D01*
X0165164Y0248765D02*
X0172564Y0248765D01*
X0172564Y0249164D02*
X0165164Y0249164D01*
X0188228Y0249164D02*
X0195628Y0249164D01*
X0195628Y0249391D02*
X0188228Y0249391D01*
X0188228Y0239391D01*
X0188260Y0239102D01*
X0188356Y0238827D01*
X0188511Y0238580D01*
X0188717Y0238375D01*
X0188964Y0238220D01*
X0189238Y0238124D01*
X0189528Y0238091D01*
X0192428Y0238091D01*
X0192695Y0238121D01*
X0192948Y0238210D01*
X0193176Y0238353D01*
X0193366Y0238543D01*
X0193509Y0238770D01*
X0193598Y0239024D01*
X0193628Y0239291D01*
X0193628Y0246191D01*
X0193635Y0246229D01*
X0193657Y0246262D01*
X0193689Y0246283D01*
X0193728Y0246291D01*
X0195628Y0246291D01*
X0195628Y0249391D01*
X0195628Y0248765D02*
X0188228Y0248765D01*
X0188228Y0248367D02*
X0195628Y0248367D01*
X0195628Y0247968D02*
X0188228Y0247968D01*
X0188228Y0247570D02*
X0195628Y0247570D01*
X0195628Y0247171D02*
X0188228Y0247171D01*
X0188228Y0246773D02*
X0195628Y0246773D01*
X0195628Y0246374D02*
X0188228Y0246374D01*
X0188228Y0245976D02*
X0193628Y0245976D01*
X0193628Y0245577D02*
X0188228Y0245577D01*
X0188228Y0245179D02*
X0193628Y0245179D01*
X0193628Y0244780D02*
X0188228Y0244780D01*
X0188228Y0244382D02*
X0193628Y0244382D01*
X0193628Y0243983D02*
X0188228Y0243983D01*
X0188228Y0243585D02*
X0193628Y0243585D01*
X0193628Y0243186D02*
X0188228Y0243186D01*
X0188228Y0242788D02*
X0193628Y0242788D01*
X0193628Y0242389D02*
X0188228Y0242389D01*
X0188228Y0241991D02*
X0193628Y0241991D01*
X0193628Y0241592D02*
X0188228Y0241592D01*
X0188228Y0241194D02*
X0193628Y0241194D01*
X0193628Y0240795D02*
X0188228Y0240795D01*
X0188228Y0240397D02*
X0193628Y0240397D01*
X0193628Y0239998D02*
X0188228Y0239998D01*
X0188228Y0239600D02*
X0193628Y0239600D01*
X0193617Y0239201D02*
X0188249Y0239201D01*
X0188372Y0238803D02*
X0193520Y0238803D01*
X0193227Y0238404D02*
X0188687Y0238404D01*
X0267086Y0246291D02*
X0267086Y0249391D01*
X0274486Y0249391D01*
X0274486Y0239391D01*
X0274453Y0239102D01*
X0274357Y0238827D01*
X0274202Y0238580D01*
X0273996Y0238375D01*
X0273750Y0238220D01*
X0273475Y0238124D01*
X0273186Y0238091D01*
X0270286Y0238091D01*
X0270019Y0238121D01*
X0269765Y0238210D01*
X0269537Y0238353D01*
X0269347Y0238543D01*
X0269204Y0238770D01*
X0269116Y0239024D01*
X0269086Y0239291D01*
X0269086Y0246191D01*
X0269078Y0246229D01*
X0269056Y0246262D01*
X0269024Y0246283D01*
X0268986Y0246291D01*
X0267086Y0246291D01*
X0267086Y0246374D02*
X0274486Y0246374D01*
X0274486Y0245976D02*
X0269086Y0245976D01*
X0269086Y0245577D02*
X0274486Y0245577D01*
X0274486Y0245179D02*
X0269086Y0245179D01*
X0269086Y0244780D02*
X0274486Y0244780D01*
X0274486Y0244382D02*
X0269086Y0244382D01*
X0269086Y0243983D02*
X0274486Y0243983D01*
X0274486Y0243585D02*
X0269086Y0243585D01*
X0269086Y0243186D02*
X0274486Y0243186D01*
X0274486Y0242788D02*
X0269086Y0242788D01*
X0269086Y0242389D02*
X0274486Y0242389D01*
X0274486Y0241991D02*
X0269086Y0241991D01*
X0269086Y0241592D02*
X0274486Y0241592D01*
X0274486Y0241194D02*
X0269086Y0241194D01*
X0269086Y0240795D02*
X0274486Y0240795D01*
X0274486Y0240397D02*
X0269086Y0240397D01*
X0269086Y0239998D02*
X0274486Y0239998D01*
X0274486Y0239600D02*
X0269086Y0239600D01*
X0269096Y0239201D02*
X0274464Y0239201D01*
X0274342Y0238803D02*
X0269193Y0238803D01*
X0269486Y0238404D02*
X0274026Y0238404D01*
X0274486Y0246773D02*
X0267086Y0246773D01*
X0267086Y0247171D02*
X0274486Y0247171D01*
X0274486Y0247570D02*
X0267086Y0247570D01*
X0267086Y0247968D02*
X0274486Y0247968D01*
X0274486Y0248367D02*
X0267086Y0248367D01*
X0267086Y0248765D02*
X0274486Y0248765D01*
X0274486Y0249164D02*
X0267086Y0249164D01*
X0290149Y0249164D02*
X0297549Y0249164D01*
X0297549Y0249391D02*
X0290149Y0249391D01*
X0290149Y0239391D01*
X0290181Y0239102D01*
X0290278Y0238827D01*
X0290432Y0238580D01*
X0290638Y0238375D01*
X0290885Y0238220D01*
X0291160Y0238124D01*
X0291449Y0238091D01*
X0294349Y0238091D01*
X0294616Y0238121D01*
X0294869Y0238210D01*
X0295097Y0238353D01*
X0295287Y0238543D01*
X0295430Y0238770D01*
X0295519Y0239024D01*
X0295549Y0239291D01*
X0295549Y0246191D01*
X0295556Y0246229D01*
X0295578Y0246262D01*
X0295611Y0246283D01*
X0295649Y0246291D01*
X0297549Y0246291D01*
X0297549Y0249391D01*
X0297549Y0248765D02*
X0290149Y0248765D01*
X0290149Y0248367D02*
X0297549Y0248367D01*
X0297549Y0247968D02*
X0290149Y0247968D01*
X0290149Y0247570D02*
X0297549Y0247570D01*
X0297549Y0247171D02*
X0290149Y0247171D01*
X0290149Y0246773D02*
X0297549Y0246773D01*
X0297549Y0246374D02*
X0290149Y0246374D01*
X0290149Y0245976D02*
X0295549Y0245976D01*
X0295549Y0245577D02*
X0290149Y0245577D01*
X0290149Y0245179D02*
X0295549Y0245179D01*
X0295549Y0244780D02*
X0290149Y0244780D01*
X0290149Y0244382D02*
X0295549Y0244382D01*
X0295549Y0243983D02*
X0290149Y0243983D01*
X0290149Y0243585D02*
X0295549Y0243585D01*
X0295549Y0243186D02*
X0290149Y0243186D01*
X0290149Y0242788D02*
X0295549Y0242788D01*
X0295549Y0242389D02*
X0290149Y0242389D01*
X0290149Y0241991D02*
X0295549Y0241991D01*
X0295549Y0241592D02*
X0290149Y0241592D01*
X0290149Y0241194D02*
X0295549Y0241194D01*
X0295549Y0240795D02*
X0290149Y0240795D01*
X0290149Y0240397D02*
X0295549Y0240397D01*
X0295549Y0239998D02*
X0290149Y0239998D01*
X0290149Y0239600D02*
X0295549Y0239600D01*
X0295539Y0239201D02*
X0290170Y0239201D01*
X0290293Y0238803D02*
X0295441Y0238803D01*
X0295148Y0238404D02*
X0290609Y0238404D01*
X0290149Y0055690D02*
X0290149Y0045690D01*
X0290181Y0045401D01*
X0290278Y0045126D01*
X0290432Y0044880D01*
X0290638Y0044674D01*
X0290885Y0044519D01*
X0291160Y0044423D01*
X0291449Y0044390D01*
X0294349Y0044390D01*
X0294616Y0044420D01*
X0294869Y0044509D01*
X0295097Y0044652D01*
X0295287Y0044842D01*
X0295430Y0045070D01*
X0295519Y0045323D01*
X0295549Y0045590D01*
X0295549Y0052490D01*
X0295556Y0052528D01*
X0295578Y0052561D01*
X0295611Y0052583D01*
X0295649Y0052590D01*
X0297549Y0052590D01*
X0297549Y0055690D01*
X0290149Y0055690D01*
X0290149Y0055487D02*
X0297549Y0055487D01*
X0297549Y0055089D02*
X0290149Y0055089D01*
X0290149Y0054690D02*
X0297549Y0054690D01*
X0297549Y0054292D02*
X0290149Y0054292D01*
X0290149Y0053893D02*
X0297549Y0053893D01*
X0297549Y0053495D02*
X0290149Y0053495D01*
X0290149Y0053096D02*
X0297549Y0053096D01*
X0297549Y0052698D02*
X0290149Y0052698D01*
X0290149Y0052299D02*
X0295549Y0052299D01*
X0295549Y0051901D02*
X0290149Y0051901D01*
X0290149Y0051502D02*
X0295549Y0051502D01*
X0295549Y0051104D02*
X0290149Y0051104D01*
X0290149Y0050705D02*
X0295549Y0050705D01*
X0295549Y0050307D02*
X0290149Y0050307D01*
X0290149Y0049908D02*
X0295549Y0049908D01*
X0295549Y0049510D02*
X0290149Y0049510D01*
X0290149Y0049111D02*
X0295549Y0049111D01*
X0295549Y0048713D02*
X0290149Y0048713D01*
X0290149Y0048314D02*
X0295549Y0048314D01*
X0295549Y0047916D02*
X0290149Y0047916D01*
X0290149Y0047517D02*
X0295549Y0047517D01*
X0295549Y0047119D02*
X0290149Y0047119D01*
X0290149Y0046720D02*
X0295549Y0046720D01*
X0295549Y0046322D02*
X0290149Y0046322D01*
X0290149Y0045923D02*
X0295549Y0045923D01*
X0295541Y0045525D02*
X0290167Y0045525D01*
X0290277Y0045126D02*
X0295450Y0045126D01*
X0295173Y0044728D02*
X0290584Y0044728D01*
X0274486Y0045690D02*
X0274453Y0045401D01*
X0274357Y0045126D01*
X0274202Y0044880D01*
X0273996Y0044674D01*
X0273750Y0044519D01*
X0273475Y0044423D01*
X0273186Y0044390D01*
X0270286Y0044390D01*
X0270019Y0044420D01*
X0269765Y0044509D01*
X0269537Y0044652D01*
X0269347Y0044842D01*
X0269204Y0045070D01*
X0269116Y0045323D01*
X0269086Y0045590D01*
X0269086Y0052490D01*
X0269078Y0052528D01*
X0269056Y0052561D01*
X0269024Y0052583D01*
X0268986Y0052590D01*
X0267086Y0052590D01*
X0267086Y0055690D01*
X0274486Y0055690D01*
X0274486Y0045690D01*
X0274467Y0045525D02*
X0269093Y0045525D01*
X0269086Y0045923D02*
X0274486Y0045923D01*
X0274486Y0046322D02*
X0269086Y0046322D01*
X0269086Y0046720D02*
X0274486Y0046720D01*
X0274486Y0047119D02*
X0269086Y0047119D01*
X0269086Y0047517D02*
X0274486Y0047517D01*
X0274486Y0047916D02*
X0269086Y0047916D01*
X0269086Y0048314D02*
X0274486Y0048314D01*
X0274486Y0048713D02*
X0269086Y0048713D01*
X0269086Y0049111D02*
X0274486Y0049111D01*
X0274486Y0049510D02*
X0269086Y0049510D01*
X0269086Y0049908D02*
X0274486Y0049908D01*
X0274486Y0050307D02*
X0269086Y0050307D01*
X0269086Y0050705D02*
X0274486Y0050705D01*
X0274486Y0051104D02*
X0269086Y0051104D01*
X0269086Y0051502D02*
X0274486Y0051502D01*
X0274486Y0051901D02*
X0269086Y0051901D01*
X0269086Y0052299D02*
X0274486Y0052299D01*
X0274486Y0052698D02*
X0267086Y0052698D01*
X0267086Y0053096D02*
X0274486Y0053096D01*
X0274486Y0053495D02*
X0267086Y0053495D01*
X0267086Y0053893D02*
X0274486Y0053893D01*
X0274486Y0054292D02*
X0267086Y0054292D01*
X0267086Y0054690D02*
X0274486Y0054690D01*
X0274486Y0055089D02*
X0267086Y0055089D01*
X0267086Y0055487D02*
X0274486Y0055487D01*
X0274357Y0045126D02*
X0269185Y0045126D01*
X0269462Y0044728D02*
X0274050Y0044728D01*
X0195628Y0052590D02*
X0195628Y0055690D01*
X0188228Y0055690D01*
X0188228Y0045690D01*
X0188260Y0045401D01*
X0188356Y0045126D01*
X0193529Y0045126D01*
X0193509Y0045070D02*
X0193598Y0045323D01*
X0193628Y0045590D01*
X0193628Y0052490D01*
X0193635Y0052528D01*
X0193657Y0052561D01*
X0193689Y0052583D01*
X0193728Y0052590D01*
X0195628Y0052590D01*
X0195628Y0052698D02*
X0188228Y0052698D01*
X0188228Y0053096D02*
X0195628Y0053096D01*
X0195628Y0053495D02*
X0188228Y0053495D01*
X0188228Y0053893D02*
X0195628Y0053893D01*
X0195628Y0054292D02*
X0188228Y0054292D01*
X0188228Y0054690D02*
X0195628Y0054690D01*
X0195628Y0055089D02*
X0188228Y0055089D01*
X0188228Y0055487D02*
X0195628Y0055487D01*
X0193628Y0052299D02*
X0188228Y0052299D01*
X0188228Y0051901D02*
X0193628Y0051901D01*
X0193628Y0051502D02*
X0188228Y0051502D01*
X0188228Y0051104D02*
X0193628Y0051104D01*
X0193628Y0050705D02*
X0188228Y0050705D01*
X0188228Y0050307D02*
X0193628Y0050307D01*
X0193628Y0049908D02*
X0188228Y0049908D01*
X0188228Y0049510D02*
X0193628Y0049510D01*
X0193628Y0049111D02*
X0188228Y0049111D01*
X0188228Y0048713D02*
X0193628Y0048713D01*
X0193628Y0048314D02*
X0188228Y0048314D01*
X0188228Y0047916D02*
X0193628Y0047916D01*
X0193628Y0047517D02*
X0188228Y0047517D01*
X0188228Y0047119D02*
X0193628Y0047119D01*
X0193628Y0046720D02*
X0188228Y0046720D01*
X0188228Y0046322D02*
X0193628Y0046322D01*
X0193628Y0045923D02*
X0188228Y0045923D01*
X0188246Y0045525D02*
X0193620Y0045525D01*
X0193509Y0045070D02*
X0193366Y0044842D01*
X0193176Y0044652D01*
X0192948Y0044509D01*
X0192695Y0044420D01*
X0192428Y0044390D01*
X0189528Y0044390D01*
X0189238Y0044423D01*
X0188964Y0044519D01*
X0188717Y0044674D01*
X0188511Y0044880D01*
X0188356Y0045126D01*
X0188663Y0044728D02*
X0193252Y0044728D01*
X0172564Y0045690D02*
X0172532Y0045401D01*
X0172436Y0045126D01*
X0172281Y0044880D01*
X0172075Y0044674D01*
X0171829Y0044519D01*
X0171554Y0044423D01*
X0171264Y0044390D01*
X0168364Y0044390D01*
X0168097Y0044420D01*
X0167844Y0044509D01*
X0167616Y0044652D01*
X0167426Y0044842D01*
X0167283Y0045070D01*
X0167195Y0045323D01*
X0167164Y0045590D01*
X0167164Y0052490D01*
X0167157Y0052528D01*
X0167135Y0052561D01*
X0167103Y0052583D01*
X0167064Y0052590D01*
X0165164Y0052590D01*
X0165164Y0055690D01*
X0172564Y0055690D01*
X0172564Y0045690D01*
X0172546Y0045525D02*
X0167172Y0045525D01*
X0167164Y0045923D02*
X0172564Y0045923D01*
X0172564Y0046322D02*
X0167164Y0046322D01*
X0167164Y0046720D02*
X0172564Y0046720D01*
X0172564Y0047119D02*
X0167164Y0047119D01*
X0167164Y0047517D02*
X0172564Y0047517D01*
X0172564Y0047916D02*
X0167164Y0047916D01*
X0167164Y0048314D02*
X0172564Y0048314D01*
X0172564Y0048713D02*
X0167164Y0048713D01*
X0167164Y0049111D02*
X0172564Y0049111D01*
X0172564Y0049510D02*
X0167164Y0049510D01*
X0167164Y0049908D02*
X0172564Y0049908D01*
X0172564Y0050307D02*
X0167164Y0050307D01*
X0167164Y0050705D02*
X0172564Y0050705D01*
X0172564Y0051104D02*
X0167164Y0051104D01*
X0167164Y0051502D02*
X0172564Y0051502D01*
X0172564Y0051901D02*
X0167164Y0051901D01*
X0167164Y0052299D02*
X0172564Y0052299D01*
X0172564Y0052698D02*
X0165164Y0052698D01*
X0165164Y0053096D02*
X0172564Y0053096D01*
X0172564Y0053495D02*
X0165164Y0053495D01*
X0165164Y0053893D02*
X0172564Y0053893D01*
X0172564Y0054292D02*
X0165164Y0054292D01*
X0165164Y0054690D02*
X0172564Y0054690D01*
X0172564Y0055089D02*
X0165164Y0055089D01*
X0165164Y0055487D02*
X0172564Y0055487D01*
X0172436Y0045126D02*
X0167263Y0045126D01*
X0167541Y0044728D02*
X0172129Y0044728D01*
X0093706Y0052590D02*
X0093706Y0055690D01*
X0086306Y0055690D01*
X0086306Y0045690D01*
X0086339Y0045401D01*
X0086435Y0045126D01*
X0086590Y0044880D01*
X0086796Y0044674D01*
X0087042Y0044519D01*
X0087317Y0044423D01*
X0087606Y0044390D01*
X0090506Y0044390D01*
X0090773Y0044420D01*
X0091027Y0044509D01*
X0091254Y0044652D01*
X0091445Y0044842D01*
X0091587Y0045070D01*
X0091676Y0045323D01*
X0091706Y0045590D01*
X0091706Y0052490D01*
X0091714Y0052528D01*
X0091736Y0052561D01*
X0091768Y0052583D01*
X0091806Y0052590D01*
X0093706Y0052590D01*
X0093706Y0052698D02*
X0086306Y0052698D01*
X0086306Y0053096D02*
X0093706Y0053096D01*
X0093706Y0053495D02*
X0086306Y0053495D01*
X0086306Y0053893D02*
X0093706Y0053893D01*
X0093706Y0054292D02*
X0086306Y0054292D01*
X0086306Y0054690D02*
X0093706Y0054690D01*
X0093706Y0055089D02*
X0086306Y0055089D01*
X0086306Y0055487D02*
X0093706Y0055487D01*
X0091706Y0052299D02*
X0086306Y0052299D01*
X0086306Y0051901D02*
X0091706Y0051901D01*
X0091706Y0051502D02*
X0086306Y0051502D01*
X0086306Y0051104D02*
X0091706Y0051104D01*
X0091706Y0050705D02*
X0086306Y0050705D01*
X0086306Y0050307D02*
X0091706Y0050307D01*
X0091706Y0049908D02*
X0086306Y0049908D01*
X0086306Y0049510D02*
X0091706Y0049510D01*
X0091706Y0049111D02*
X0086306Y0049111D01*
X0086306Y0048713D02*
X0091706Y0048713D01*
X0091706Y0048314D02*
X0086306Y0048314D01*
X0086306Y0047916D02*
X0091706Y0047916D01*
X0091706Y0047517D02*
X0086306Y0047517D01*
X0086306Y0047119D02*
X0091706Y0047119D01*
X0091706Y0046720D02*
X0086306Y0046720D01*
X0086306Y0046322D02*
X0091706Y0046322D01*
X0091706Y0045923D02*
X0086306Y0045923D01*
X0086325Y0045525D02*
X0091699Y0045525D01*
X0091607Y0045126D02*
X0086435Y0045126D01*
X0086742Y0044728D02*
X0091330Y0044728D01*
X0070643Y0045690D02*
X0070611Y0045401D01*
X0070514Y0045126D01*
X0070360Y0044880D01*
X0070154Y0044674D01*
X0069907Y0044519D01*
X0069632Y0044423D01*
X0069343Y0044390D01*
X0066443Y0044390D01*
X0066176Y0044420D01*
X0065923Y0044509D01*
X0065695Y0044652D01*
X0065505Y0044842D01*
X0065362Y0045070D01*
X0065273Y0045323D01*
X0065243Y0045590D01*
X0065243Y0052490D01*
X0065236Y0052528D01*
X0065214Y0052561D01*
X0065181Y0052583D01*
X0065143Y0052590D01*
X0063243Y0052590D01*
X0063243Y0055690D01*
X0070643Y0055690D01*
X0070643Y0045690D01*
X0070625Y0045525D02*
X0065251Y0045525D01*
X0065243Y0045923D02*
X0070643Y0045923D01*
X0070643Y0046322D02*
X0065243Y0046322D01*
X0065243Y0046720D02*
X0070643Y0046720D01*
X0070643Y0047119D02*
X0065243Y0047119D01*
X0065243Y0047517D02*
X0070643Y0047517D01*
X0070643Y0047916D02*
X0065243Y0047916D01*
X0065243Y0048314D02*
X0070643Y0048314D01*
X0070643Y0048713D02*
X0065243Y0048713D01*
X0065243Y0049111D02*
X0070643Y0049111D01*
X0070643Y0049510D02*
X0065243Y0049510D01*
X0065243Y0049908D02*
X0070643Y0049908D01*
X0070643Y0050307D02*
X0065243Y0050307D01*
X0065243Y0050705D02*
X0070643Y0050705D01*
X0070643Y0051104D02*
X0065243Y0051104D01*
X0065243Y0051502D02*
X0070643Y0051502D01*
X0070643Y0051901D02*
X0065243Y0051901D01*
X0065243Y0052299D02*
X0070643Y0052299D01*
X0070643Y0052698D02*
X0063243Y0052698D01*
X0063243Y0053096D02*
X0070643Y0053096D01*
X0070643Y0053495D02*
X0063243Y0053495D01*
X0063243Y0053893D02*
X0070643Y0053893D01*
X0070643Y0054292D02*
X0063243Y0054292D01*
X0063243Y0054690D02*
X0070643Y0054690D01*
X0070643Y0055089D02*
X0063243Y0055089D01*
X0063243Y0055487D02*
X0070643Y0055487D01*
X0070514Y0045126D02*
X0065342Y0045126D01*
X0065619Y0044728D02*
X0070208Y0044728D01*
D18*
X0072890Y0055077D02*
X0072890Y0061475D01*
X0073874Y0061475D01*
X0073874Y0055077D01*
X0072890Y0055077D01*
X0072890Y0055160D02*
X0073874Y0055160D01*
X0073874Y0055356D02*
X0072890Y0055356D01*
X0072890Y0055551D02*
X0073874Y0055551D01*
X0073874Y0055746D02*
X0072890Y0055746D01*
X0072890Y0055942D02*
X0073874Y0055942D01*
X0073874Y0056137D02*
X0072890Y0056137D01*
X0072890Y0056333D02*
X0073874Y0056333D01*
X0073874Y0056528D02*
X0072890Y0056528D01*
X0072890Y0056723D02*
X0073874Y0056723D01*
X0073874Y0056919D02*
X0072890Y0056919D01*
X0072890Y0057114D02*
X0073874Y0057114D01*
X0073874Y0057309D02*
X0072890Y0057309D01*
X0072890Y0057505D02*
X0073874Y0057505D01*
X0073874Y0057700D02*
X0072890Y0057700D01*
X0072890Y0057895D02*
X0073874Y0057895D01*
X0073874Y0058091D02*
X0072890Y0058091D01*
X0072890Y0058286D02*
X0073874Y0058286D01*
X0073874Y0058482D02*
X0072890Y0058482D01*
X0072890Y0058677D02*
X0073874Y0058677D01*
X0073874Y0058872D02*
X0072890Y0058872D01*
X0072890Y0059068D02*
X0073874Y0059068D01*
X0073874Y0059263D02*
X0072890Y0059263D01*
X0072890Y0059458D02*
X0073874Y0059458D01*
X0073874Y0059654D02*
X0072890Y0059654D01*
X0072890Y0059849D02*
X0073874Y0059849D01*
X0073874Y0060044D02*
X0072890Y0060044D01*
X0072890Y0060240D02*
X0073874Y0060240D01*
X0073874Y0060435D02*
X0072890Y0060435D01*
X0072890Y0060631D02*
X0073874Y0060631D01*
X0073874Y0060826D02*
X0072890Y0060826D01*
X0072890Y0061021D02*
X0073874Y0061021D01*
X0073874Y0061217D02*
X0072890Y0061217D01*
X0072890Y0061412D02*
X0073874Y0061412D01*
X0075449Y0061412D02*
X0076433Y0061412D01*
X0076433Y0061475D02*
X0076433Y0055077D01*
X0075449Y0055077D01*
X0075449Y0061475D01*
X0076433Y0061475D01*
X0076433Y0061217D02*
X0075449Y0061217D01*
X0075449Y0061021D02*
X0076433Y0061021D01*
X0076433Y0060826D02*
X0075449Y0060826D01*
X0075449Y0060631D02*
X0076433Y0060631D01*
X0076433Y0060435D02*
X0075449Y0060435D01*
X0075449Y0060240D02*
X0076433Y0060240D01*
X0076433Y0060044D02*
X0075449Y0060044D01*
X0075449Y0059849D02*
X0076433Y0059849D01*
X0076433Y0059654D02*
X0075449Y0059654D01*
X0075449Y0059458D02*
X0076433Y0059458D01*
X0076433Y0059263D02*
X0075449Y0059263D01*
X0075449Y0059068D02*
X0076433Y0059068D01*
X0076433Y0058872D02*
X0075449Y0058872D01*
X0075449Y0058677D02*
X0076433Y0058677D01*
X0076433Y0058482D02*
X0075449Y0058482D01*
X0075449Y0058286D02*
X0076433Y0058286D01*
X0076433Y0058091D02*
X0075449Y0058091D01*
X0075449Y0057895D02*
X0076433Y0057895D01*
X0076433Y0057700D02*
X0075449Y0057700D01*
X0075449Y0057505D02*
X0076433Y0057505D01*
X0076433Y0057309D02*
X0075449Y0057309D01*
X0075449Y0057114D02*
X0076433Y0057114D01*
X0076433Y0056919D02*
X0075449Y0056919D01*
X0075449Y0056723D02*
X0076433Y0056723D01*
X0076433Y0056528D02*
X0075449Y0056528D01*
X0075449Y0056333D02*
X0076433Y0056333D01*
X0076433Y0056137D02*
X0075449Y0056137D01*
X0075449Y0055942D02*
X0076433Y0055942D01*
X0076433Y0055746D02*
X0075449Y0055746D01*
X0075449Y0055551D02*
X0076433Y0055551D01*
X0076433Y0055356D02*
X0075449Y0055356D01*
X0075449Y0055160D02*
X0076433Y0055160D01*
X0078008Y0055160D02*
X0078992Y0055160D01*
X0078992Y0055077D02*
X0078008Y0055077D01*
X0078008Y0061475D01*
X0078992Y0061475D01*
X0078992Y0055077D01*
X0078992Y0055356D02*
X0078008Y0055356D01*
X0078008Y0055551D02*
X0078992Y0055551D01*
X0078992Y0055746D02*
X0078008Y0055746D01*
X0078008Y0055942D02*
X0078992Y0055942D01*
X0078992Y0056137D02*
X0078008Y0056137D01*
X0078008Y0056333D02*
X0078992Y0056333D01*
X0078992Y0056528D02*
X0078008Y0056528D01*
X0078008Y0056723D02*
X0078992Y0056723D01*
X0078992Y0056919D02*
X0078008Y0056919D01*
X0078008Y0057114D02*
X0078992Y0057114D01*
X0078992Y0057309D02*
X0078008Y0057309D01*
X0078008Y0057505D02*
X0078992Y0057505D01*
X0078992Y0057700D02*
X0078008Y0057700D01*
X0078008Y0057895D02*
X0078992Y0057895D01*
X0078992Y0058091D02*
X0078008Y0058091D01*
X0078008Y0058286D02*
X0078992Y0058286D01*
X0078992Y0058482D02*
X0078008Y0058482D01*
X0078008Y0058677D02*
X0078992Y0058677D01*
X0078992Y0058872D02*
X0078008Y0058872D01*
X0078008Y0059068D02*
X0078992Y0059068D01*
X0078992Y0059263D02*
X0078008Y0059263D01*
X0078008Y0059458D02*
X0078992Y0059458D01*
X0078992Y0059654D02*
X0078008Y0059654D01*
X0078008Y0059849D02*
X0078992Y0059849D01*
X0078992Y0060044D02*
X0078008Y0060044D01*
X0078008Y0060240D02*
X0078992Y0060240D01*
X0078992Y0060435D02*
X0078008Y0060435D01*
X0078008Y0060631D02*
X0078992Y0060631D01*
X0078992Y0060826D02*
X0078008Y0060826D01*
X0078008Y0061021D02*
X0078992Y0061021D01*
X0078992Y0061217D02*
X0078008Y0061217D01*
X0078008Y0061412D02*
X0078992Y0061412D01*
X0080567Y0061412D02*
X0081551Y0061412D01*
X0081551Y0061475D02*
X0081551Y0055077D01*
X0080567Y0055077D01*
X0080567Y0061475D01*
X0081551Y0061475D01*
X0081551Y0061217D02*
X0080567Y0061217D01*
X0080567Y0061021D02*
X0081551Y0061021D01*
X0081551Y0060826D02*
X0080567Y0060826D01*
X0080567Y0060631D02*
X0081551Y0060631D01*
X0081551Y0060435D02*
X0080567Y0060435D01*
X0080567Y0060240D02*
X0081551Y0060240D01*
X0081551Y0060044D02*
X0080567Y0060044D01*
X0080567Y0059849D02*
X0081551Y0059849D01*
X0081551Y0059654D02*
X0080567Y0059654D01*
X0080567Y0059458D02*
X0081551Y0059458D01*
X0081551Y0059263D02*
X0080567Y0059263D01*
X0080567Y0059068D02*
X0081551Y0059068D01*
X0081551Y0058872D02*
X0080567Y0058872D01*
X0080567Y0058677D02*
X0081551Y0058677D01*
X0081551Y0058482D02*
X0080567Y0058482D01*
X0080567Y0058286D02*
X0081551Y0058286D01*
X0081551Y0058091D02*
X0080567Y0058091D01*
X0080567Y0057895D02*
X0081551Y0057895D01*
X0081551Y0057700D02*
X0080567Y0057700D01*
X0080567Y0057505D02*
X0081551Y0057505D01*
X0081551Y0057309D02*
X0080567Y0057309D01*
X0080567Y0057114D02*
X0081551Y0057114D01*
X0081551Y0056919D02*
X0080567Y0056919D01*
X0080567Y0056723D02*
X0081551Y0056723D01*
X0081551Y0056528D02*
X0080567Y0056528D01*
X0080567Y0056333D02*
X0081551Y0056333D01*
X0081551Y0056137D02*
X0080567Y0056137D01*
X0080567Y0055942D02*
X0081551Y0055942D01*
X0081551Y0055746D02*
X0080567Y0055746D01*
X0080567Y0055551D02*
X0081551Y0055551D01*
X0081551Y0055356D02*
X0080567Y0055356D01*
X0080567Y0055160D02*
X0081551Y0055160D01*
X0083126Y0055160D02*
X0084110Y0055160D01*
X0084110Y0055077D02*
X0083126Y0055077D01*
X0083126Y0061475D01*
X0084110Y0061475D01*
X0084110Y0055077D01*
X0084110Y0055356D02*
X0083126Y0055356D01*
X0083126Y0055551D02*
X0084110Y0055551D01*
X0084110Y0055746D02*
X0083126Y0055746D01*
X0083126Y0055942D02*
X0084110Y0055942D01*
X0084110Y0056137D02*
X0083126Y0056137D01*
X0083126Y0056333D02*
X0084110Y0056333D01*
X0084110Y0056528D02*
X0083126Y0056528D01*
X0083126Y0056723D02*
X0084110Y0056723D01*
X0084110Y0056919D02*
X0083126Y0056919D01*
X0083126Y0057114D02*
X0084110Y0057114D01*
X0084110Y0057309D02*
X0083126Y0057309D01*
X0083126Y0057505D02*
X0084110Y0057505D01*
X0084110Y0057700D02*
X0083126Y0057700D01*
X0083126Y0057895D02*
X0084110Y0057895D01*
X0084110Y0058091D02*
X0083126Y0058091D01*
X0083126Y0058286D02*
X0084110Y0058286D01*
X0084110Y0058482D02*
X0083126Y0058482D01*
X0083126Y0058677D02*
X0084110Y0058677D01*
X0084110Y0058872D02*
X0083126Y0058872D01*
X0083126Y0059068D02*
X0084110Y0059068D01*
X0084110Y0059263D02*
X0083126Y0059263D01*
X0083126Y0059458D02*
X0084110Y0059458D01*
X0084110Y0059654D02*
X0083126Y0059654D01*
X0083126Y0059849D02*
X0084110Y0059849D01*
X0084110Y0060044D02*
X0083126Y0060044D01*
X0083126Y0060240D02*
X0084110Y0060240D01*
X0084110Y0060435D02*
X0083126Y0060435D01*
X0083126Y0060631D02*
X0084110Y0060631D01*
X0084110Y0060826D02*
X0083126Y0060826D01*
X0083126Y0061021D02*
X0084110Y0061021D01*
X0084110Y0061217D02*
X0083126Y0061217D01*
X0083126Y0061412D02*
X0084110Y0061412D01*
X0174811Y0061412D02*
X0175795Y0061412D01*
X0175795Y0061475D02*
X0175795Y0055077D01*
X0174811Y0055077D01*
X0174811Y0061475D01*
X0175795Y0061475D01*
X0175795Y0061217D02*
X0174811Y0061217D01*
X0174811Y0061021D02*
X0175795Y0061021D01*
X0175795Y0060826D02*
X0174811Y0060826D01*
X0174811Y0060631D02*
X0175795Y0060631D01*
X0175795Y0060435D02*
X0174811Y0060435D01*
X0174811Y0060240D02*
X0175795Y0060240D01*
X0175795Y0060044D02*
X0174811Y0060044D01*
X0174811Y0059849D02*
X0175795Y0059849D01*
X0175795Y0059654D02*
X0174811Y0059654D01*
X0174811Y0059458D02*
X0175795Y0059458D01*
X0175795Y0059263D02*
X0174811Y0059263D01*
X0174811Y0059068D02*
X0175795Y0059068D01*
X0175795Y0058872D02*
X0174811Y0058872D01*
X0174811Y0058677D02*
X0175795Y0058677D01*
X0175795Y0058482D02*
X0174811Y0058482D01*
X0174811Y0058286D02*
X0175795Y0058286D01*
X0175795Y0058091D02*
X0174811Y0058091D01*
X0174811Y0057895D02*
X0175795Y0057895D01*
X0175795Y0057700D02*
X0174811Y0057700D01*
X0174811Y0057505D02*
X0175795Y0057505D01*
X0175795Y0057309D02*
X0174811Y0057309D01*
X0174811Y0057114D02*
X0175795Y0057114D01*
X0175795Y0056919D02*
X0174811Y0056919D01*
X0174811Y0056723D02*
X0175795Y0056723D01*
X0175795Y0056528D02*
X0174811Y0056528D01*
X0174811Y0056333D02*
X0175795Y0056333D01*
X0175795Y0056137D02*
X0174811Y0056137D01*
X0174811Y0055942D02*
X0175795Y0055942D01*
X0175795Y0055746D02*
X0174811Y0055746D01*
X0174811Y0055551D02*
X0175795Y0055551D01*
X0175795Y0055356D02*
X0174811Y0055356D01*
X0174811Y0055160D02*
X0175795Y0055160D01*
X0177370Y0055160D02*
X0178354Y0055160D01*
X0178354Y0055077D02*
X0177370Y0055077D01*
X0177370Y0061475D01*
X0178354Y0061475D01*
X0178354Y0055077D01*
X0178354Y0055356D02*
X0177370Y0055356D01*
X0177370Y0055551D02*
X0178354Y0055551D01*
X0178354Y0055746D02*
X0177370Y0055746D01*
X0177370Y0055942D02*
X0178354Y0055942D01*
X0178354Y0056137D02*
X0177370Y0056137D01*
X0177370Y0056333D02*
X0178354Y0056333D01*
X0178354Y0056528D02*
X0177370Y0056528D01*
X0177370Y0056723D02*
X0178354Y0056723D01*
X0178354Y0056919D02*
X0177370Y0056919D01*
X0177370Y0057114D02*
X0178354Y0057114D01*
X0178354Y0057309D02*
X0177370Y0057309D01*
X0177370Y0057505D02*
X0178354Y0057505D01*
X0178354Y0057700D02*
X0177370Y0057700D01*
X0177370Y0057895D02*
X0178354Y0057895D01*
X0178354Y0058091D02*
X0177370Y0058091D01*
X0177370Y0058286D02*
X0178354Y0058286D01*
X0178354Y0058482D02*
X0177370Y0058482D01*
X0177370Y0058677D02*
X0178354Y0058677D01*
X0178354Y0058872D02*
X0177370Y0058872D01*
X0177370Y0059068D02*
X0178354Y0059068D01*
X0178354Y0059263D02*
X0177370Y0059263D01*
X0177370Y0059458D02*
X0178354Y0059458D01*
X0178354Y0059654D02*
X0177370Y0059654D01*
X0177370Y0059849D02*
X0178354Y0059849D01*
X0178354Y0060044D02*
X0177370Y0060044D01*
X0177370Y0060240D02*
X0178354Y0060240D01*
X0178354Y0060435D02*
X0177370Y0060435D01*
X0177370Y0060631D02*
X0178354Y0060631D01*
X0178354Y0060826D02*
X0177370Y0060826D01*
X0177370Y0061021D02*
X0178354Y0061021D01*
X0178354Y0061217D02*
X0177370Y0061217D01*
X0177370Y0061412D02*
X0178354Y0061412D01*
X0179929Y0061412D02*
X0180913Y0061412D01*
X0180913Y0061475D02*
X0180913Y0055077D01*
X0179929Y0055077D01*
X0179929Y0061475D01*
X0180913Y0061475D01*
X0180913Y0061217D02*
X0179929Y0061217D01*
X0179929Y0061021D02*
X0180913Y0061021D01*
X0180913Y0060826D02*
X0179929Y0060826D01*
X0179929Y0060631D02*
X0180913Y0060631D01*
X0180913Y0060435D02*
X0179929Y0060435D01*
X0179929Y0060240D02*
X0180913Y0060240D01*
X0180913Y0060044D02*
X0179929Y0060044D01*
X0179929Y0059849D02*
X0180913Y0059849D01*
X0180913Y0059654D02*
X0179929Y0059654D01*
X0179929Y0059458D02*
X0180913Y0059458D01*
X0180913Y0059263D02*
X0179929Y0059263D01*
X0179929Y0059068D02*
X0180913Y0059068D01*
X0180913Y0058872D02*
X0179929Y0058872D01*
X0179929Y0058677D02*
X0180913Y0058677D01*
X0180913Y0058482D02*
X0179929Y0058482D01*
X0179929Y0058286D02*
X0180913Y0058286D01*
X0180913Y0058091D02*
X0179929Y0058091D01*
X0179929Y0057895D02*
X0180913Y0057895D01*
X0180913Y0057700D02*
X0179929Y0057700D01*
X0179929Y0057505D02*
X0180913Y0057505D01*
X0180913Y0057309D02*
X0179929Y0057309D01*
X0179929Y0057114D02*
X0180913Y0057114D01*
X0180913Y0056919D02*
X0179929Y0056919D01*
X0179929Y0056723D02*
X0180913Y0056723D01*
X0180913Y0056528D02*
X0179929Y0056528D01*
X0179929Y0056333D02*
X0180913Y0056333D01*
X0180913Y0056137D02*
X0179929Y0056137D01*
X0179929Y0055942D02*
X0180913Y0055942D01*
X0180913Y0055746D02*
X0179929Y0055746D01*
X0179929Y0055551D02*
X0180913Y0055551D01*
X0180913Y0055356D02*
X0179929Y0055356D01*
X0179929Y0055160D02*
X0180913Y0055160D01*
X0182488Y0055160D02*
X0183472Y0055160D01*
X0183472Y0055077D02*
X0182488Y0055077D01*
X0182488Y0061475D01*
X0183472Y0061475D01*
X0183472Y0055077D01*
X0183472Y0055356D02*
X0182488Y0055356D01*
X0182488Y0055551D02*
X0183472Y0055551D01*
X0183472Y0055746D02*
X0182488Y0055746D01*
X0182488Y0055942D02*
X0183472Y0055942D01*
X0183472Y0056137D02*
X0182488Y0056137D01*
X0182488Y0056333D02*
X0183472Y0056333D01*
X0183472Y0056528D02*
X0182488Y0056528D01*
X0182488Y0056723D02*
X0183472Y0056723D01*
X0183472Y0056919D02*
X0182488Y0056919D01*
X0182488Y0057114D02*
X0183472Y0057114D01*
X0183472Y0057309D02*
X0182488Y0057309D01*
X0182488Y0057505D02*
X0183472Y0057505D01*
X0183472Y0057700D02*
X0182488Y0057700D01*
X0182488Y0057895D02*
X0183472Y0057895D01*
X0183472Y0058091D02*
X0182488Y0058091D01*
X0182488Y0058286D02*
X0183472Y0058286D01*
X0183472Y0058482D02*
X0182488Y0058482D01*
X0182488Y0058677D02*
X0183472Y0058677D01*
X0183472Y0058872D02*
X0182488Y0058872D01*
X0182488Y0059068D02*
X0183472Y0059068D01*
X0183472Y0059263D02*
X0182488Y0059263D01*
X0182488Y0059458D02*
X0183472Y0059458D01*
X0183472Y0059654D02*
X0182488Y0059654D01*
X0182488Y0059849D02*
X0183472Y0059849D01*
X0183472Y0060044D02*
X0182488Y0060044D01*
X0182488Y0060240D02*
X0183472Y0060240D01*
X0183472Y0060435D02*
X0182488Y0060435D01*
X0182488Y0060631D02*
X0183472Y0060631D01*
X0183472Y0060826D02*
X0182488Y0060826D01*
X0182488Y0061021D02*
X0183472Y0061021D01*
X0183472Y0061217D02*
X0182488Y0061217D01*
X0182488Y0061412D02*
X0183472Y0061412D01*
X0185047Y0061412D02*
X0186032Y0061412D01*
X0186032Y0061475D02*
X0186032Y0055077D01*
X0185047Y0055077D01*
X0185047Y0061475D01*
X0186032Y0061475D01*
X0186032Y0061217D02*
X0185047Y0061217D01*
X0185047Y0061021D02*
X0186032Y0061021D01*
X0186032Y0060826D02*
X0185047Y0060826D01*
X0185047Y0060631D02*
X0186032Y0060631D01*
X0186032Y0060435D02*
X0185047Y0060435D01*
X0185047Y0060240D02*
X0186032Y0060240D01*
X0186032Y0060044D02*
X0185047Y0060044D01*
X0185047Y0059849D02*
X0186032Y0059849D01*
X0186032Y0059654D02*
X0185047Y0059654D01*
X0185047Y0059458D02*
X0186032Y0059458D01*
X0186032Y0059263D02*
X0185047Y0059263D01*
X0185047Y0059068D02*
X0186032Y0059068D01*
X0186032Y0058872D02*
X0185047Y0058872D01*
X0185047Y0058677D02*
X0186032Y0058677D01*
X0186032Y0058482D02*
X0185047Y0058482D01*
X0185047Y0058286D02*
X0186032Y0058286D01*
X0186032Y0058091D02*
X0185047Y0058091D01*
X0185047Y0057895D02*
X0186032Y0057895D01*
X0186032Y0057700D02*
X0185047Y0057700D01*
X0185047Y0057505D02*
X0186032Y0057505D01*
X0186032Y0057309D02*
X0185047Y0057309D01*
X0185047Y0057114D02*
X0186032Y0057114D01*
X0186032Y0056919D02*
X0185047Y0056919D01*
X0185047Y0056723D02*
X0186032Y0056723D01*
X0186032Y0056528D02*
X0185047Y0056528D01*
X0185047Y0056333D02*
X0186032Y0056333D01*
X0186032Y0056137D02*
X0185047Y0056137D01*
X0185047Y0055942D02*
X0186032Y0055942D01*
X0186032Y0055746D02*
X0185047Y0055746D01*
X0185047Y0055551D02*
X0186032Y0055551D01*
X0186032Y0055356D02*
X0185047Y0055356D01*
X0185047Y0055160D02*
X0186032Y0055160D01*
X0276732Y0055160D02*
X0277717Y0055160D01*
X0277717Y0055077D02*
X0276732Y0055077D01*
X0276732Y0061475D01*
X0277717Y0061475D01*
X0277717Y0055077D01*
X0277717Y0055356D02*
X0276732Y0055356D01*
X0276732Y0055551D02*
X0277717Y0055551D01*
X0277717Y0055746D02*
X0276732Y0055746D01*
X0276732Y0055942D02*
X0277717Y0055942D01*
X0277717Y0056137D02*
X0276732Y0056137D01*
X0276732Y0056333D02*
X0277717Y0056333D01*
X0277717Y0056528D02*
X0276732Y0056528D01*
X0276732Y0056723D02*
X0277717Y0056723D01*
X0277717Y0056919D02*
X0276732Y0056919D01*
X0276732Y0057114D02*
X0277717Y0057114D01*
X0277717Y0057309D02*
X0276732Y0057309D01*
X0276732Y0057505D02*
X0277717Y0057505D01*
X0277717Y0057700D02*
X0276732Y0057700D01*
X0276732Y0057895D02*
X0277717Y0057895D01*
X0277717Y0058091D02*
X0276732Y0058091D01*
X0276732Y0058286D02*
X0277717Y0058286D01*
X0277717Y0058482D02*
X0276732Y0058482D01*
X0276732Y0058677D02*
X0277717Y0058677D01*
X0277717Y0058872D02*
X0276732Y0058872D01*
X0276732Y0059068D02*
X0277717Y0059068D01*
X0277717Y0059263D02*
X0276732Y0059263D01*
X0276732Y0059458D02*
X0277717Y0059458D01*
X0277717Y0059654D02*
X0276732Y0059654D01*
X0276732Y0059849D02*
X0277717Y0059849D01*
X0277717Y0060044D02*
X0276732Y0060044D01*
X0276732Y0060240D02*
X0277717Y0060240D01*
X0277717Y0060435D02*
X0276732Y0060435D01*
X0276732Y0060631D02*
X0277717Y0060631D01*
X0277717Y0060826D02*
X0276732Y0060826D01*
X0276732Y0061021D02*
X0277717Y0061021D01*
X0277717Y0061217D02*
X0276732Y0061217D01*
X0276732Y0061412D02*
X0277717Y0061412D01*
X0279291Y0061412D02*
X0280276Y0061412D01*
X0280276Y0061475D02*
X0280276Y0055077D01*
X0279291Y0055077D01*
X0279291Y0061475D01*
X0280276Y0061475D01*
X0280276Y0061217D02*
X0279291Y0061217D01*
X0279291Y0061021D02*
X0280276Y0061021D01*
X0280276Y0060826D02*
X0279291Y0060826D01*
X0279291Y0060631D02*
X0280276Y0060631D01*
X0280276Y0060435D02*
X0279291Y0060435D01*
X0279291Y0060240D02*
X0280276Y0060240D01*
X0280276Y0060044D02*
X0279291Y0060044D01*
X0279291Y0059849D02*
X0280276Y0059849D01*
X0280276Y0059654D02*
X0279291Y0059654D01*
X0279291Y0059458D02*
X0280276Y0059458D01*
X0280276Y0059263D02*
X0279291Y0059263D01*
X0279291Y0059068D02*
X0280276Y0059068D01*
X0280276Y0058872D02*
X0279291Y0058872D01*
X0279291Y0058677D02*
X0280276Y0058677D01*
X0280276Y0058482D02*
X0279291Y0058482D01*
X0279291Y0058286D02*
X0280276Y0058286D01*
X0280276Y0058091D02*
X0279291Y0058091D01*
X0279291Y0057895D02*
X0280276Y0057895D01*
X0280276Y0057700D02*
X0279291Y0057700D01*
X0279291Y0057505D02*
X0280276Y0057505D01*
X0280276Y0057309D02*
X0279291Y0057309D01*
X0279291Y0057114D02*
X0280276Y0057114D01*
X0280276Y0056919D02*
X0279291Y0056919D01*
X0279291Y0056723D02*
X0280276Y0056723D01*
X0280276Y0056528D02*
X0279291Y0056528D01*
X0279291Y0056333D02*
X0280276Y0056333D01*
X0280276Y0056137D02*
X0279291Y0056137D01*
X0279291Y0055942D02*
X0280276Y0055942D01*
X0280276Y0055746D02*
X0279291Y0055746D01*
X0279291Y0055551D02*
X0280276Y0055551D01*
X0280276Y0055356D02*
X0279291Y0055356D01*
X0279291Y0055160D02*
X0280276Y0055160D01*
X0281850Y0055160D02*
X0282835Y0055160D01*
X0282835Y0055077D02*
X0281850Y0055077D01*
X0281850Y0061475D01*
X0282835Y0061475D01*
X0282835Y0055077D01*
X0282835Y0055356D02*
X0281850Y0055356D01*
X0281850Y0055551D02*
X0282835Y0055551D01*
X0282835Y0055746D02*
X0281850Y0055746D01*
X0281850Y0055942D02*
X0282835Y0055942D01*
X0282835Y0056137D02*
X0281850Y0056137D01*
X0281850Y0056333D02*
X0282835Y0056333D01*
X0282835Y0056528D02*
X0281850Y0056528D01*
X0281850Y0056723D02*
X0282835Y0056723D01*
X0282835Y0056919D02*
X0281850Y0056919D01*
X0281850Y0057114D02*
X0282835Y0057114D01*
X0282835Y0057309D02*
X0281850Y0057309D01*
X0281850Y0057505D02*
X0282835Y0057505D01*
X0282835Y0057700D02*
X0281850Y0057700D01*
X0281850Y0057895D02*
X0282835Y0057895D01*
X0282835Y0058091D02*
X0281850Y0058091D01*
X0281850Y0058286D02*
X0282835Y0058286D01*
X0282835Y0058482D02*
X0281850Y0058482D01*
X0281850Y0058677D02*
X0282835Y0058677D01*
X0282835Y0058872D02*
X0281850Y0058872D01*
X0281850Y0059068D02*
X0282835Y0059068D01*
X0282835Y0059263D02*
X0281850Y0059263D01*
X0281850Y0059458D02*
X0282835Y0059458D01*
X0282835Y0059654D02*
X0281850Y0059654D01*
X0281850Y0059849D02*
X0282835Y0059849D01*
X0282835Y0060044D02*
X0281850Y0060044D01*
X0281850Y0060240D02*
X0282835Y0060240D01*
X0282835Y0060435D02*
X0281850Y0060435D01*
X0281850Y0060631D02*
X0282835Y0060631D01*
X0282835Y0060826D02*
X0281850Y0060826D01*
X0281850Y0061021D02*
X0282835Y0061021D01*
X0282835Y0061217D02*
X0281850Y0061217D01*
X0281850Y0061412D02*
X0282835Y0061412D01*
X0284409Y0061412D02*
X0285394Y0061412D01*
X0285394Y0061475D02*
X0285394Y0055077D01*
X0284409Y0055077D01*
X0284409Y0061475D01*
X0285394Y0061475D01*
X0285394Y0061217D02*
X0284409Y0061217D01*
X0284409Y0061021D02*
X0285394Y0061021D01*
X0285394Y0060826D02*
X0284409Y0060826D01*
X0284409Y0060631D02*
X0285394Y0060631D01*
X0285394Y0060435D02*
X0284409Y0060435D01*
X0284409Y0060240D02*
X0285394Y0060240D01*
X0285394Y0060044D02*
X0284409Y0060044D01*
X0284409Y0059849D02*
X0285394Y0059849D01*
X0285394Y0059654D02*
X0284409Y0059654D01*
X0284409Y0059458D02*
X0285394Y0059458D01*
X0285394Y0059263D02*
X0284409Y0059263D01*
X0284409Y0059068D02*
X0285394Y0059068D01*
X0285394Y0058872D02*
X0284409Y0058872D01*
X0284409Y0058677D02*
X0285394Y0058677D01*
X0285394Y0058482D02*
X0284409Y0058482D01*
X0284409Y0058286D02*
X0285394Y0058286D01*
X0285394Y0058091D02*
X0284409Y0058091D01*
X0284409Y0057895D02*
X0285394Y0057895D01*
X0285394Y0057700D02*
X0284409Y0057700D01*
X0284409Y0057505D02*
X0285394Y0057505D01*
X0285394Y0057309D02*
X0284409Y0057309D01*
X0284409Y0057114D02*
X0285394Y0057114D01*
X0285394Y0056919D02*
X0284409Y0056919D01*
X0284409Y0056723D02*
X0285394Y0056723D01*
X0285394Y0056528D02*
X0284409Y0056528D01*
X0284409Y0056333D02*
X0285394Y0056333D01*
X0285394Y0056137D02*
X0284409Y0056137D01*
X0284409Y0055942D02*
X0285394Y0055942D01*
X0285394Y0055746D02*
X0284409Y0055746D01*
X0284409Y0055551D02*
X0285394Y0055551D01*
X0285394Y0055356D02*
X0284409Y0055356D01*
X0284409Y0055160D02*
X0285394Y0055160D01*
X0286968Y0055160D02*
X0287953Y0055160D01*
X0287953Y0055077D02*
X0286968Y0055077D01*
X0286968Y0061475D01*
X0287953Y0061475D01*
X0287953Y0055077D01*
X0287953Y0055356D02*
X0286968Y0055356D01*
X0286968Y0055551D02*
X0287953Y0055551D01*
X0287953Y0055746D02*
X0286968Y0055746D01*
X0286968Y0055942D02*
X0287953Y0055942D01*
X0287953Y0056137D02*
X0286968Y0056137D01*
X0286968Y0056333D02*
X0287953Y0056333D01*
X0287953Y0056528D02*
X0286968Y0056528D01*
X0286968Y0056723D02*
X0287953Y0056723D01*
X0287953Y0056919D02*
X0286968Y0056919D01*
X0286968Y0057114D02*
X0287953Y0057114D01*
X0287953Y0057309D02*
X0286968Y0057309D01*
X0286968Y0057505D02*
X0287953Y0057505D01*
X0287953Y0057700D02*
X0286968Y0057700D01*
X0286968Y0057895D02*
X0287953Y0057895D01*
X0287953Y0058091D02*
X0286968Y0058091D01*
X0286968Y0058286D02*
X0287953Y0058286D01*
X0287953Y0058482D02*
X0286968Y0058482D01*
X0286968Y0058677D02*
X0287953Y0058677D01*
X0287953Y0058872D02*
X0286968Y0058872D01*
X0286968Y0059068D02*
X0287953Y0059068D01*
X0287953Y0059263D02*
X0286968Y0059263D01*
X0286968Y0059458D02*
X0287953Y0059458D01*
X0287953Y0059654D02*
X0286968Y0059654D01*
X0286968Y0059849D02*
X0287953Y0059849D01*
X0287953Y0060044D02*
X0286968Y0060044D01*
X0286968Y0060240D02*
X0287953Y0060240D01*
X0287953Y0060435D02*
X0286968Y0060435D01*
X0286968Y0060631D02*
X0287953Y0060631D01*
X0287953Y0060826D02*
X0286968Y0060826D01*
X0286968Y0061021D02*
X0287953Y0061021D01*
X0287953Y0061217D02*
X0286968Y0061217D01*
X0286968Y0061412D02*
X0287953Y0061412D01*
X0287953Y0248778D02*
X0286968Y0248778D01*
X0286968Y0255176D01*
X0287953Y0255176D01*
X0287953Y0248778D01*
X0287953Y0248959D02*
X0286968Y0248959D01*
X0286968Y0249155D02*
X0287953Y0249155D01*
X0287953Y0249350D02*
X0286968Y0249350D01*
X0286968Y0249545D02*
X0287953Y0249545D01*
X0287953Y0249741D02*
X0286968Y0249741D01*
X0286968Y0249936D02*
X0287953Y0249936D01*
X0287953Y0250131D02*
X0286968Y0250131D01*
X0286968Y0250327D02*
X0287953Y0250327D01*
X0287953Y0250522D02*
X0286968Y0250522D01*
X0286968Y0250717D02*
X0287953Y0250717D01*
X0287953Y0250913D02*
X0286968Y0250913D01*
X0286968Y0251108D02*
X0287953Y0251108D01*
X0287953Y0251304D02*
X0286968Y0251304D01*
X0286968Y0251499D02*
X0287953Y0251499D01*
X0287953Y0251694D02*
X0286968Y0251694D01*
X0286968Y0251890D02*
X0287953Y0251890D01*
X0287953Y0252085D02*
X0286968Y0252085D01*
X0286968Y0252280D02*
X0287953Y0252280D01*
X0287953Y0252476D02*
X0286968Y0252476D01*
X0286968Y0252671D02*
X0287953Y0252671D01*
X0287953Y0252866D02*
X0286968Y0252866D01*
X0286968Y0253062D02*
X0287953Y0253062D01*
X0287953Y0253257D02*
X0286968Y0253257D01*
X0286968Y0253453D02*
X0287953Y0253453D01*
X0287953Y0253648D02*
X0286968Y0253648D01*
X0286968Y0253843D02*
X0287953Y0253843D01*
X0287953Y0254039D02*
X0286968Y0254039D01*
X0286968Y0254234D02*
X0287953Y0254234D01*
X0287953Y0254429D02*
X0286968Y0254429D01*
X0286968Y0254625D02*
X0287953Y0254625D01*
X0287953Y0254820D02*
X0286968Y0254820D01*
X0286968Y0255015D02*
X0287953Y0255015D01*
X0285394Y0255015D02*
X0284409Y0255015D01*
X0284409Y0255176D02*
X0284409Y0248778D01*
X0285394Y0248778D01*
X0285394Y0255176D01*
X0284409Y0255176D01*
X0284409Y0254820D02*
X0285394Y0254820D01*
X0285394Y0254625D02*
X0284409Y0254625D01*
X0284409Y0254429D02*
X0285394Y0254429D01*
X0285394Y0254234D02*
X0284409Y0254234D01*
X0284409Y0254039D02*
X0285394Y0254039D01*
X0285394Y0253843D02*
X0284409Y0253843D01*
X0284409Y0253648D02*
X0285394Y0253648D01*
X0285394Y0253453D02*
X0284409Y0253453D01*
X0284409Y0253257D02*
X0285394Y0253257D01*
X0285394Y0253062D02*
X0284409Y0253062D01*
X0284409Y0252866D02*
X0285394Y0252866D01*
X0285394Y0252671D02*
X0284409Y0252671D01*
X0284409Y0252476D02*
X0285394Y0252476D01*
X0285394Y0252280D02*
X0284409Y0252280D01*
X0284409Y0252085D02*
X0285394Y0252085D01*
X0285394Y0251890D02*
X0284409Y0251890D01*
X0284409Y0251694D02*
X0285394Y0251694D01*
X0285394Y0251499D02*
X0284409Y0251499D01*
X0284409Y0251304D02*
X0285394Y0251304D01*
X0285394Y0251108D02*
X0284409Y0251108D01*
X0284409Y0250913D02*
X0285394Y0250913D01*
X0285394Y0250717D02*
X0284409Y0250717D01*
X0284409Y0250522D02*
X0285394Y0250522D01*
X0285394Y0250327D02*
X0284409Y0250327D01*
X0284409Y0250131D02*
X0285394Y0250131D01*
X0285394Y0249936D02*
X0284409Y0249936D01*
X0284409Y0249741D02*
X0285394Y0249741D01*
X0285394Y0249545D02*
X0284409Y0249545D01*
X0284409Y0249350D02*
X0285394Y0249350D01*
X0285394Y0249155D02*
X0284409Y0249155D01*
X0284409Y0248959D02*
X0285394Y0248959D01*
X0282835Y0248959D02*
X0281850Y0248959D01*
X0281850Y0248778D02*
X0281850Y0255176D01*
X0282835Y0255176D01*
X0282835Y0248778D01*
X0281850Y0248778D01*
X0281850Y0249155D02*
X0282835Y0249155D01*
X0282835Y0249350D02*
X0281850Y0249350D01*
X0281850Y0249545D02*
X0282835Y0249545D01*
X0282835Y0249741D02*
X0281850Y0249741D01*
X0281850Y0249936D02*
X0282835Y0249936D01*
X0282835Y0250131D02*
X0281850Y0250131D01*
X0281850Y0250327D02*
X0282835Y0250327D01*
X0282835Y0250522D02*
X0281850Y0250522D01*
X0281850Y0250717D02*
X0282835Y0250717D01*
X0282835Y0250913D02*
X0281850Y0250913D01*
X0281850Y0251108D02*
X0282835Y0251108D01*
X0282835Y0251304D02*
X0281850Y0251304D01*
X0281850Y0251499D02*
X0282835Y0251499D01*
X0282835Y0251694D02*
X0281850Y0251694D01*
X0281850Y0251890D02*
X0282835Y0251890D01*
X0282835Y0252085D02*
X0281850Y0252085D01*
X0281850Y0252280D02*
X0282835Y0252280D01*
X0282835Y0252476D02*
X0281850Y0252476D01*
X0281850Y0252671D02*
X0282835Y0252671D01*
X0282835Y0252866D02*
X0281850Y0252866D01*
X0281850Y0253062D02*
X0282835Y0253062D01*
X0282835Y0253257D02*
X0281850Y0253257D01*
X0281850Y0253453D02*
X0282835Y0253453D01*
X0282835Y0253648D02*
X0281850Y0253648D01*
X0281850Y0253843D02*
X0282835Y0253843D01*
X0282835Y0254039D02*
X0281850Y0254039D01*
X0281850Y0254234D02*
X0282835Y0254234D01*
X0282835Y0254429D02*
X0281850Y0254429D01*
X0281850Y0254625D02*
X0282835Y0254625D01*
X0282835Y0254820D02*
X0281850Y0254820D01*
X0281850Y0255015D02*
X0282835Y0255015D01*
X0280276Y0255015D02*
X0279291Y0255015D01*
X0279291Y0255176D02*
X0279291Y0248778D01*
X0280276Y0248778D01*
X0280276Y0255176D01*
X0279291Y0255176D01*
X0279291Y0254820D02*
X0280276Y0254820D01*
X0280276Y0254625D02*
X0279291Y0254625D01*
X0279291Y0254429D02*
X0280276Y0254429D01*
X0280276Y0254234D02*
X0279291Y0254234D01*
X0279291Y0254039D02*
X0280276Y0254039D01*
X0280276Y0253843D02*
X0279291Y0253843D01*
X0279291Y0253648D02*
X0280276Y0253648D01*
X0280276Y0253453D02*
X0279291Y0253453D01*
X0279291Y0253257D02*
X0280276Y0253257D01*
X0280276Y0253062D02*
X0279291Y0253062D01*
X0279291Y0252866D02*
X0280276Y0252866D01*
X0280276Y0252671D02*
X0279291Y0252671D01*
X0279291Y0252476D02*
X0280276Y0252476D01*
X0280276Y0252280D02*
X0279291Y0252280D01*
X0279291Y0252085D02*
X0280276Y0252085D01*
X0280276Y0251890D02*
X0279291Y0251890D01*
X0279291Y0251694D02*
X0280276Y0251694D01*
X0280276Y0251499D02*
X0279291Y0251499D01*
X0279291Y0251304D02*
X0280276Y0251304D01*
X0280276Y0251108D02*
X0279291Y0251108D01*
X0279291Y0250913D02*
X0280276Y0250913D01*
X0280276Y0250717D02*
X0279291Y0250717D01*
X0279291Y0250522D02*
X0280276Y0250522D01*
X0280276Y0250327D02*
X0279291Y0250327D01*
X0279291Y0250131D02*
X0280276Y0250131D01*
X0280276Y0249936D02*
X0279291Y0249936D01*
X0279291Y0249741D02*
X0280276Y0249741D01*
X0280276Y0249545D02*
X0279291Y0249545D01*
X0279291Y0249350D02*
X0280276Y0249350D01*
X0280276Y0249155D02*
X0279291Y0249155D01*
X0279291Y0248959D02*
X0280276Y0248959D01*
X0277717Y0248959D02*
X0276732Y0248959D01*
X0276732Y0248778D02*
X0276732Y0255176D01*
X0277717Y0255176D01*
X0277717Y0248778D01*
X0276732Y0248778D01*
X0276732Y0249155D02*
X0277717Y0249155D01*
X0277717Y0249350D02*
X0276732Y0249350D01*
X0276732Y0249545D02*
X0277717Y0249545D01*
X0277717Y0249741D02*
X0276732Y0249741D01*
X0276732Y0249936D02*
X0277717Y0249936D01*
X0277717Y0250131D02*
X0276732Y0250131D01*
X0276732Y0250327D02*
X0277717Y0250327D01*
X0277717Y0250522D02*
X0276732Y0250522D01*
X0276732Y0250717D02*
X0277717Y0250717D01*
X0277717Y0250913D02*
X0276732Y0250913D01*
X0276732Y0251108D02*
X0277717Y0251108D01*
X0277717Y0251304D02*
X0276732Y0251304D01*
X0276732Y0251499D02*
X0277717Y0251499D01*
X0277717Y0251694D02*
X0276732Y0251694D01*
X0276732Y0251890D02*
X0277717Y0251890D01*
X0277717Y0252085D02*
X0276732Y0252085D01*
X0276732Y0252280D02*
X0277717Y0252280D01*
X0277717Y0252476D02*
X0276732Y0252476D01*
X0276732Y0252671D02*
X0277717Y0252671D01*
X0277717Y0252866D02*
X0276732Y0252866D01*
X0276732Y0253062D02*
X0277717Y0253062D01*
X0277717Y0253257D02*
X0276732Y0253257D01*
X0276732Y0253453D02*
X0277717Y0253453D01*
X0277717Y0253648D02*
X0276732Y0253648D01*
X0276732Y0253843D02*
X0277717Y0253843D01*
X0277717Y0254039D02*
X0276732Y0254039D01*
X0276732Y0254234D02*
X0277717Y0254234D01*
X0277717Y0254429D02*
X0276732Y0254429D01*
X0276732Y0254625D02*
X0277717Y0254625D01*
X0277717Y0254820D02*
X0276732Y0254820D01*
X0276732Y0255015D02*
X0277717Y0255015D01*
X0186032Y0255015D02*
X0185047Y0255015D01*
X0185047Y0255176D02*
X0185047Y0248778D01*
X0186032Y0248778D01*
X0186032Y0255176D01*
X0185047Y0255176D01*
X0185047Y0254820D02*
X0186032Y0254820D01*
X0186032Y0254625D02*
X0185047Y0254625D01*
X0185047Y0254429D02*
X0186032Y0254429D01*
X0186032Y0254234D02*
X0185047Y0254234D01*
X0185047Y0254039D02*
X0186032Y0254039D01*
X0186032Y0253843D02*
X0185047Y0253843D01*
X0185047Y0253648D02*
X0186032Y0253648D01*
X0186032Y0253453D02*
X0185047Y0253453D01*
X0185047Y0253257D02*
X0186032Y0253257D01*
X0186032Y0253062D02*
X0185047Y0253062D01*
X0185047Y0252866D02*
X0186032Y0252866D01*
X0186032Y0252671D02*
X0185047Y0252671D01*
X0185047Y0252476D02*
X0186032Y0252476D01*
X0186032Y0252280D02*
X0185047Y0252280D01*
X0185047Y0252085D02*
X0186032Y0252085D01*
X0186032Y0251890D02*
X0185047Y0251890D01*
X0185047Y0251694D02*
X0186032Y0251694D01*
X0186032Y0251499D02*
X0185047Y0251499D01*
X0185047Y0251304D02*
X0186032Y0251304D01*
X0186032Y0251108D02*
X0185047Y0251108D01*
X0185047Y0250913D02*
X0186032Y0250913D01*
X0186032Y0250717D02*
X0185047Y0250717D01*
X0185047Y0250522D02*
X0186032Y0250522D01*
X0186032Y0250327D02*
X0185047Y0250327D01*
X0185047Y0250131D02*
X0186032Y0250131D01*
X0186032Y0249936D02*
X0185047Y0249936D01*
X0185047Y0249741D02*
X0186032Y0249741D01*
X0186032Y0249545D02*
X0185047Y0249545D01*
X0185047Y0249350D02*
X0186032Y0249350D01*
X0186032Y0249155D02*
X0185047Y0249155D01*
X0185047Y0248959D02*
X0186032Y0248959D01*
X0183472Y0248959D02*
X0182488Y0248959D01*
X0182488Y0248778D02*
X0182488Y0255176D01*
X0183472Y0255176D01*
X0183472Y0248778D01*
X0182488Y0248778D01*
X0182488Y0249155D02*
X0183472Y0249155D01*
X0183472Y0249350D02*
X0182488Y0249350D01*
X0182488Y0249545D02*
X0183472Y0249545D01*
X0183472Y0249741D02*
X0182488Y0249741D01*
X0182488Y0249936D02*
X0183472Y0249936D01*
X0183472Y0250131D02*
X0182488Y0250131D01*
X0182488Y0250327D02*
X0183472Y0250327D01*
X0183472Y0250522D02*
X0182488Y0250522D01*
X0182488Y0250717D02*
X0183472Y0250717D01*
X0183472Y0250913D02*
X0182488Y0250913D01*
X0182488Y0251108D02*
X0183472Y0251108D01*
X0183472Y0251304D02*
X0182488Y0251304D01*
X0182488Y0251499D02*
X0183472Y0251499D01*
X0183472Y0251694D02*
X0182488Y0251694D01*
X0182488Y0251890D02*
X0183472Y0251890D01*
X0183472Y0252085D02*
X0182488Y0252085D01*
X0182488Y0252280D02*
X0183472Y0252280D01*
X0183472Y0252476D02*
X0182488Y0252476D01*
X0182488Y0252671D02*
X0183472Y0252671D01*
X0183472Y0252866D02*
X0182488Y0252866D01*
X0182488Y0253062D02*
X0183472Y0253062D01*
X0183472Y0253257D02*
X0182488Y0253257D01*
X0182488Y0253453D02*
X0183472Y0253453D01*
X0183472Y0253648D02*
X0182488Y0253648D01*
X0182488Y0253843D02*
X0183472Y0253843D01*
X0183472Y0254039D02*
X0182488Y0254039D01*
X0182488Y0254234D02*
X0183472Y0254234D01*
X0183472Y0254429D02*
X0182488Y0254429D01*
X0182488Y0254625D02*
X0183472Y0254625D01*
X0183472Y0254820D02*
X0182488Y0254820D01*
X0182488Y0255015D02*
X0183472Y0255015D01*
X0180913Y0255015D02*
X0179929Y0255015D01*
X0179929Y0255176D02*
X0179929Y0248778D01*
X0180913Y0248778D01*
X0180913Y0255176D01*
X0179929Y0255176D01*
X0179929Y0254820D02*
X0180913Y0254820D01*
X0180913Y0254625D02*
X0179929Y0254625D01*
X0179929Y0254429D02*
X0180913Y0254429D01*
X0180913Y0254234D02*
X0179929Y0254234D01*
X0179929Y0254039D02*
X0180913Y0254039D01*
X0180913Y0253843D02*
X0179929Y0253843D01*
X0179929Y0253648D02*
X0180913Y0253648D01*
X0180913Y0253453D02*
X0179929Y0253453D01*
X0179929Y0253257D02*
X0180913Y0253257D01*
X0180913Y0253062D02*
X0179929Y0253062D01*
X0179929Y0252866D02*
X0180913Y0252866D01*
X0180913Y0252671D02*
X0179929Y0252671D01*
X0179929Y0252476D02*
X0180913Y0252476D01*
X0180913Y0252280D02*
X0179929Y0252280D01*
X0179929Y0252085D02*
X0180913Y0252085D01*
X0180913Y0251890D02*
X0179929Y0251890D01*
X0179929Y0251694D02*
X0180913Y0251694D01*
X0180913Y0251499D02*
X0179929Y0251499D01*
X0179929Y0251304D02*
X0180913Y0251304D01*
X0180913Y0251108D02*
X0179929Y0251108D01*
X0179929Y0250913D02*
X0180913Y0250913D01*
X0180913Y0250717D02*
X0179929Y0250717D01*
X0179929Y0250522D02*
X0180913Y0250522D01*
X0180913Y0250327D02*
X0179929Y0250327D01*
X0179929Y0250131D02*
X0180913Y0250131D01*
X0180913Y0249936D02*
X0179929Y0249936D01*
X0179929Y0249741D02*
X0180913Y0249741D01*
X0180913Y0249545D02*
X0179929Y0249545D01*
X0179929Y0249350D02*
X0180913Y0249350D01*
X0180913Y0249155D02*
X0179929Y0249155D01*
X0179929Y0248959D02*
X0180913Y0248959D01*
X0178354Y0248959D02*
X0177370Y0248959D01*
X0177370Y0248778D02*
X0177370Y0255176D01*
X0178354Y0255176D01*
X0178354Y0248778D01*
X0177370Y0248778D01*
X0177370Y0249155D02*
X0178354Y0249155D01*
X0178354Y0249350D02*
X0177370Y0249350D01*
X0177370Y0249545D02*
X0178354Y0249545D01*
X0178354Y0249741D02*
X0177370Y0249741D01*
X0177370Y0249936D02*
X0178354Y0249936D01*
X0178354Y0250131D02*
X0177370Y0250131D01*
X0177370Y0250327D02*
X0178354Y0250327D01*
X0178354Y0250522D02*
X0177370Y0250522D01*
X0177370Y0250717D02*
X0178354Y0250717D01*
X0178354Y0250913D02*
X0177370Y0250913D01*
X0177370Y0251108D02*
X0178354Y0251108D01*
X0178354Y0251304D02*
X0177370Y0251304D01*
X0177370Y0251499D02*
X0178354Y0251499D01*
X0178354Y0251694D02*
X0177370Y0251694D01*
X0177370Y0251890D02*
X0178354Y0251890D01*
X0178354Y0252085D02*
X0177370Y0252085D01*
X0177370Y0252280D02*
X0178354Y0252280D01*
X0178354Y0252476D02*
X0177370Y0252476D01*
X0177370Y0252671D02*
X0178354Y0252671D01*
X0178354Y0252866D02*
X0177370Y0252866D01*
X0177370Y0253062D02*
X0178354Y0253062D01*
X0178354Y0253257D02*
X0177370Y0253257D01*
X0177370Y0253453D02*
X0178354Y0253453D01*
X0178354Y0253648D02*
X0177370Y0253648D01*
X0177370Y0253843D02*
X0178354Y0253843D01*
X0178354Y0254039D02*
X0177370Y0254039D01*
X0177370Y0254234D02*
X0178354Y0254234D01*
X0178354Y0254429D02*
X0177370Y0254429D01*
X0177370Y0254625D02*
X0178354Y0254625D01*
X0178354Y0254820D02*
X0177370Y0254820D01*
X0177370Y0255015D02*
X0178354Y0255015D01*
X0175795Y0255015D02*
X0174811Y0255015D01*
X0174811Y0255176D02*
X0174811Y0248778D01*
X0175795Y0248778D01*
X0175795Y0255176D01*
X0174811Y0255176D01*
X0174811Y0254820D02*
X0175795Y0254820D01*
X0175795Y0254625D02*
X0174811Y0254625D01*
X0174811Y0254429D02*
X0175795Y0254429D01*
X0175795Y0254234D02*
X0174811Y0254234D01*
X0174811Y0254039D02*
X0175795Y0254039D01*
X0175795Y0253843D02*
X0174811Y0253843D01*
X0174811Y0253648D02*
X0175795Y0253648D01*
X0175795Y0253453D02*
X0174811Y0253453D01*
X0174811Y0253257D02*
X0175795Y0253257D01*
X0175795Y0253062D02*
X0174811Y0253062D01*
X0174811Y0252866D02*
X0175795Y0252866D01*
X0175795Y0252671D02*
X0174811Y0252671D01*
X0174811Y0252476D02*
X0175795Y0252476D01*
X0175795Y0252280D02*
X0174811Y0252280D01*
X0174811Y0252085D02*
X0175795Y0252085D01*
X0175795Y0251890D02*
X0174811Y0251890D01*
X0174811Y0251694D02*
X0175795Y0251694D01*
X0175795Y0251499D02*
X0174811Y0251499D01*
X0174811Y0251304D02*
X0175795Y0251304D01*
X0175795Y0251108D02*
X0174811Y0251108D01*
X0174811Y0250913D02*
X0175795Y0250913D01*
X0175795Y0250717D02*
X0174811Y0250717D01*
X0174811Y0250522D02*
X0175795Y0250522D01*
X0175795Y0250327D02*
X0174811Y0250327D01*
X0174811Y0250131D02*
X0175795Y0250131D01*
X0175795Y0249936D02*
X0174811Y0249936D01*
X0174811Y0249741D02*
X0175795Y0249741D01*
X0175795Y0249545D02*
X0174811Y0249545D01*
X0174811Y0249350D02*
X0175795Y0249350D01*
X0175795Y0249155D02*
X0174811Y0249155D01*
X0174811Y0248959D02*
X0175795Y0248959D01*
X0084110Y0248959D02*
X0083126Y0248959D01*
X0083126Y0248778D02*
X0083126Y0255176D01*
X0084110Y0255176D01*
X0084110Y0248778D01*
X0083126Y0248778D01*
X0083126Y0249155D02*
X0084110Y0249155D01*
X0084110Y0249350D02*
X0083126Y0249350D01*
X0083126Y0249545D02*
X0084110Y0249545D01*
X0084110Y0249741D02*
X0083126Y0249741D01*
X0083126Y0249936D02*
X0084110Y0249936D01*
X0084110Y0250131D02*
X0083126Y0250131D01*
X0083126Y0250327D02*
X0084110Y0250327D01*
X0084110Y0250522D02*
X0083126Y0250522D01*
X0083126Y0250717D02*
X0084110Y0250717D01*
X0084110Y0250913D02*
X0083126Y0250913D01*
X0083126Y0251108D02*
X0084110Y0251108D01*
X0084110Y0251304D02*
X0083126Y0251304D01*
X0083126Y0251499D02*
X0084110Y0251499D01*
X0084110Y0251694D02*
X0083126Y0251694D01*
X0083126Y0251890D02*
X0084110Y0251890D01*
X0084110Y0252085D02*
X0083126Y0252085D01*
X0083126Y0252280D02*
X0084110Y0252280D01*
X0084110Y0252476D02*
X0083126Y0252476D01*
X0083126Y0252671D02*
X0084110Y0252671D01*
X0084110Y0252866D02*
X0083126Y0252866D01*
X0083126Y0253062D02*
X0084110Y0253062D01*
X0084110Y0253257D02*
X0083126Y0253257D01*
X0083126Y0253453D02*
X0084110Y0253453D01*
X0084110Y0253648D02*
X0083126Y0253648D01*
X0083126Y0253843D02*
X0084110Y0253843D01*
X0084110Y0254039D02*
X0083126Y0254039D01*
X0083126Y0254234D02*
X0084110Y0254234D01*
X0084110Y0254429D02*
X0083126Y0254429D01*
X0083126Y0254625D02*
X0084110Y0254625D01*
X0084110Y0254820D02*
X0083126Y0254820D01*
X0083126Y0255015D02*
X0084110Y0255015D01*
X0081551Y0255015D02*
X0080567Y0255015D01*
X0080567Y0255176D02*
X0080567Y0248778D01*
X0081551Y0248778D01*
X0081551Y0255176D01*
X0080567Y0255176D01*
X0080567Y0254820D02*
X0081551Y0254820D01*
X0081551Y0254625D02*
X0080567Y0254625D01*
X0080567Y0254429D02*
X0081551Y0254429D01*
X0081551Y0254234D02*
X0080567Y0254234D01*
X0080567Y0254039D02*
X0081551Y0254039D01*
X0081551Y0253843D02*
X0080567Y0253843D01*
X0080567Y0253648D02*
X0081551Y0253648D01*
X0081551Y0253453D02*
X0080567Y0253453D01*
X0080567Y0253257D02*
X0081551Y0253257D01*
X0081551Y0253062D02*
X0080567Y0253062D01*
X0080567Y0252866D02*
X0081551Y0252866D01*
X0081551Y0252671D02*
X0080567Y0252671D01*
X0080567Y0252476D02*
X0081551Y0252476D01*
X0081551Y0252280D02*
X0080567Y0252280D01*
X0080567Y0252085D02*
X0081551Y0252085D01*
X0081551Y0251890D02*
X0080567Y0251890D01*
X0080567Y0251694D02*
X0081551Y0251694D01*
X0081551Y0251499D02*
X0080567Y0251499D01*
X0080567Y0251304D02*
X0081551Y0251304D01*
X0081551Y0251108D02*
X0080567Y0251108D01*
X0080567Y0250913D02*
X0081551Y0250913D01*
X0081551Y0250717D02*
X0080567Y0250717D01*
X0080567Y0250522D02*
X0081551Y0250522D01*
X0081551Y0250327D02*
X0080567Y0250327D01*
X0080567Y0250131D02*
X0081551Y0250131D01*
X0081551Y0249936D02*
X0080567Y0249936D01*
X0080567Y0249741D02*
X0081551Y0249741D01*
X0081551Y0249545D02*
X0080567Y0249545D01*
X0080567Y0249350D02*
X0081551Y0249350D01*
X0081551Y0249155D02*
X0080567Y0249155D01*
X0080567Y0248959D02*
X0081551Y0248959D01*
X0078992Y0248959D02*
X0078008Y0248959D01*
X0078008Y0248778D02*
X0078008Y0255176D01*
X0078992Y0255176D01*
X0078992Y0248778D01*
X0078008Y0248778D01*
X0078008Y0249155D02*
X0078992Y0249155D01*
X0078992Y0249350D02*
X0078008Y0249350D01*
X0078008Y0249545D02*
X0078992Y0249545D01*
X0078992Y0249741D02*
X0078008Y0249741D01*
X0078008Y0249936D02*
X0078992Y0249936D01*
X0078992Y0250131D02*
X0078008Y0250131D01*
X0078008Y0250327D02*
X0078992Y0250327D01*
X0078992Y0250522D02*
X0078008Y0250522D01*
X0078008Y0250717D02*
X0078992Y0250717D01*
X0078992Y0250913D02*
X0078008Y0250913D01*
X0078008Y0251108D02*
X0078992Y0251108D01*
X0078992Y0251304D02*
X0078008Y0251304D01*
X0078008Y0251499D02*
X0078992Y0251499D01*
X0078992Y0251694D02*
X0078008Y0251694D01*
X0078008Y0251890D02*
X0078992Y0251890D01*
X0078992Y0252085D02*
X0078008Y0252085D01*
X0078008Y0252280D02*
X0078992Y0252280D01*
X0078992Y0252476D02*
X0078008Y0252476D01*
X0078008Y0252671D02*
X0078992Y0252671D01*
X0078992Y0252866D02*
X0078008Y0252866D01*
X0078008Y0253062D02*
X0078992Y0253062D01*
X0078992Y0253257D02*
X0078008Y0253257D01*
X0078008Y0253453D02*
X0078992Y0253453D01*
X0078992Y0253648D02*
X0078008Y0253648D01*
X0078008Y0253843D02*
X0078992Y0253843D01*
X0078992Y0254039D02*
X0078008Y0254039D01*
X0078008Y0254234D02*
X0078992Y0254234D01*
X0078992Y0254429D02*
X0078008Y0254429D01*
X0078008Y0254625D02*
X0078992Y0254625D01*
X0078992Y0254820D02*
X0078008Y0254820D01*
X0078008Y0255015D02*
X0078992Y0255015D01*
X0076433Y0255015D02*
X0075449Y0255015D01*
X0075449Y0255176D02*
X0075449Y0248778D01*
X0076433Y0248778D01*
X0076433Y0255176D01*
X0075449Y0255176D01*
X0075449Y0254820D02*
X0076433Y0254820D01*
X0076433Y0254625D02*
X0075449Y0254625D01*
X0075449Y0254429D02*
X0076433Y0254429D01*
X0076433Y0254234D02*
X0075449Y0254234D01*
X0075449Y0254039D02*
X0076433Y0254039D01*
X0076433Y0253843D02*
X0075449Y0253843D01*
X0075449Y0253648D02*
X0076433Y0253648D01*
X0076433Y0253453D02*
X0075449Y0253453D01*
X0075449Y0253257D02*
X0076433Y0253257D01*
X0076433Y0253062D02*
X0075449Y0253062D01*
X0075449Y0252866D02*
X0076433Y0252866D01*
X0076433Y0252671D02*
X0075449Y0252671D01*
X0075449Y0252476D02*
X0076433Y0252476D01*
X0076433Y0252280D02*
X0075449Y0252280D01*
X0075449Y0252085D02*
X0076433Y0252085D01*
X0076433Y0251890D02*
X0075449Y0251890D01*
X0075449Y0251694D02*
X0076433Y0251694D01*
X0076433Y0251499D02*
X0075449Y0251499D01*
X0075449Y0251304D02*
X0076433Y0251304D01*
X0076433Y0251108D02*
X0075449Y0251108D01*
X0075449Y0250913D02*
X0076433Y0250913D01*
X0076433Y0250717D02*
X0075449Y0250717D01*
X0075449Y0250522D02*
X0076433Y0250522D01*
X0076433Y0250327D02*
X0075449Y0250327D01*
X0075449Y0250131D02*
X0076433Y0250131D01*
X0076433Y0249936D02*
X0075449Y0249936D01*
X0075449Y0249741D02*
X0076433Y0249741D01*
X0076433Y0249545D02*
X0075449Y0249545D01*
X0075449Y0249350D02*
X0076433Y0249350D01*
X0076433Y0249155D02*
X0075449Y0249155D01*
X0075449Y0248959D02*
X0076433Y0248959D01*
X0073874Y0248959D02*
X0072890Y0248959D01*
X0072890Y0248778D02*
X0072890Y0255176D01*
X0073874Y0255176D01*
X0073874Y0248778D01*
X0072890Y0248778D01*
X0072890Y0249155D02*
X0073874Y0249155D01*
X0073874Y0249350D02*
X0072890Y0249350D01*
X0072890Y0249545D02*
X0073874Y0249545D01*
X0073874Y0249741D02*
X0072890Y0249741D01*
X0072890Y0249936D02*
X0073874Y0249936D01*
X0073874Y0250131D02*
X0072890Y0250131D01*
X0072890Y0250327D02*
X0073874Y0250327D01*
X0073874Y0250522D02*
X0072890Y0250522D01*
X0072890Y0250717D02*
X0073874Y0250717D01*
X0073874Y0250913D02*
X0072890Y0250913D01*
X0072890Y0251108D02*
X0073874Y0251108D01*
X0073874Y0251304D02*
X0072890Y0251304D01*
X0072890Y0251499D02*
X0073874Y0251499D01*
X0073874Y0251694D02*
X0072890Y0251694D01*
X0072890Y0251890D02*
X0073874Y0251890D01*
X0073874Y0252085D02*
X0072890Y0252085D01*
X0072890Y0252280D02*
X0073874Y0252280D01*
X0073874Y0252476D02*
X0072890Y0252476D01*
X0072890Y0252671D02*
X0073874Y0252671D01*
X0073874Y0252866D02*
X0072890Y0252866D01*
X0072890Y0253062D02*
X0073874Y0253062D01*
X0073874Y0253257D02*
X0072890Y0253257D01*
X0072890Y0253453D02*
X0073874Y0253453D01*
X0073874Y0253648D02*
X0072890Y0253648D01*
X0072890Y0253843D02*
X0073874Y0253843D01*
X0073874Y0254039D02*
X0072890Y0254039D01*
X0072890Y0254234D02*
X0073874Y0254234D01*
X0073874Y0254429D02*
X0072890Y0254429D01*
X0072890Y0254625D02*
X0073874Y0254625D01*
X0073874Y0254820D02*
X0072890Y0254820D01*
X0072890Y0255015D02*
X0073874Y0255015D01*
D19*
X0046119Y0271211D03*
X0046119Y0278691D03*
X0035881Y0278691D03*
X0035881Y0274951D03*
X0035881Y0271211D03*
X0137803Y0271211D03*
X0137803Y0274951D03*
X0137803Y0278691D03*
X0148040Y0278691D03*
X0148040Y0271211D03*
X0239724Y0271211D03*
X0239724Y0274951D03*
X0239724Y0278691D03*
X0249961Y0278691D03*
X0249961Y0271211D03*
X0249961Y0084990D03*
X0249961Y0077510D03*
X0239724Y0077510D03*
X0239724Y0081250D03*
X0239724Y0084990D03*
X0148040Y0084990D03*
X0148040Y0077510D03*
X0137803Y0077510D03*
X0137803Y0081250D03*
X0137803Y0084990D03*
X0046119Y0084990D03*
X0046119Y0077510D03*
X0035881Y0077510D03*
X0035881Y0081250D03*
X0035881Y0084990D03*
D20*
X0037654Y0090750D03*
X0044346Y0090750D03*
X0044346Y0071750D03*
X0037654Y0071750D03*
X0046654Y0061450D03*
X0053346Y0061450D03*
X0139575Y0071750D03*
X0146268Y0071750D03*
X0148575Y0061450D03*
X0155268Y0061450D03*
X0146268Y0090750D03*
X0139575Y0090750D03*
X0241496Y0090750D03*
X0248189Y0090750D03*
X0248189Y0071750D03*
X0241496Y0071750D03*
X0250496Y0061450D03*
X0257189Y0061450D03*
X0257189Y0255151D03*
X0250496Y0255151D03*
X0248189Y0265451D03*
X0241496Y0265451D03*
X0241496Y0284451D03*
X0248189Y0284451D03*
X0155268Y0255151D03*
X0148575Y0255151D03*
X0146268Y0265451D03*
X0139575Y0265451D03*
X0139575Y0284451D03*
X0146268Y0284451D03*
X0053346Y0255151D03*
X0046654Y0255151D03*
X0044346Y0265451D03*
X0037654Y0265451D03*
X0037654Y0284451D03*
X0044346Y0284451D03*
D21*
X0122969Y0283474D03*
X0122969Y0261427D03*
X0224890Y0261427D03*
X0224890Y0283474D03*
X0326811Y0283474D03*
X0326811Y0261427D03*
X0326811Y0089774D03*
X0326811Y0067726D03*
X0224890Y0067726D03*
X0224890Y0089774D03*
X0122969Y0089774D03*
X0122969Y0067726D03*
D22*
X0108500Y0072844D03*
X0108500Y0076781D03*
X0108500Y0080719D03*
X0108500Y0084656D03*
X0210421Y0084656D03*
X0210421Y0080719D03*
X0210421Y0076781D03*
X0210421Y0072844D03*
X0312342Y0072844D03*
X0312342Y0076781D03*
X0312342Y0080719D03*
X0312342Y0084656D03*
X0312342Y0266545D03*
X0312342Y0270482D03*
X0312342Y0274419D03*
X0312342Y0278356D03*
X0210421Y0278356D03*
X0210421Y0274419D03*
X0210421Y0270482D03*
X0210421Y0266545D03*
X0108500Y0266545D03*
X0108500Y0270482D03*
X0108500Y0274419D03*
X0108500Y0278356D03*
D23*
X0032850Y0043179D03*
X0039150Y0043179D03*
X0039150Y0059321D03*
X0032850Y0059321D03*
X0117850Y0059321D03*
X0124150Y0059321D03*
X0134772Y0059321D03*
X0141071Y0059321D03*
X0141071Y0043179D03*
X0134772Y0043179D03*
X0124150Y0043179D03*
X0117850Y0043179D03*
X0219772Y0043179D03*
X0226071Y0043179D03*
X0236693Y0043179D03*
X0242992Y0043179D03*
X0242992Y0059321D03*
X0236693Y0059321D03*
X0226071Y0059321D03*
X0219772Y0059321D03*
X0321693Y0059321D03*
X0327992Y0059321D03*
X0327992Y0043179D03*
X0321693Y0043179D03*
X0321693Y0236880D03*
X0327992Y0236880D03*
X0327992Y0253022D03*
X0321693Y0253022D03*
X0242992Y0253022D03*
X0236693Y0253022D03*
X0226071Y0253022D03*
X0219772Y0253022D03*
X0219772Y0236880D03*
X0226071Y0236880D03*
X0236693Y0236880D03*
X0242992Y0236880D03*
X0141071Y0236880D03*
X0134772Y0236880D03*
X0124150Y0236880D03*
X0117850Y0236880D03*
X0117850Y0253022D03*
X0124150Y0253022D03*
X0134772Y0253022D03*
X0141071Y0253022D03*
X0039150Y0253022D03*
X0032850Y0253022D03*
X0032850Y0236880D03*
X0039150Y0236880D03*
D24*
X0051122Y0237620D02*
X0053878Y0237620D01*
X0051122Y0237620D02*
X0051122Y0240376D01*
X0053878Y0240376D01*
X0053878Y0237620D01*
X0053878Y0238800D02*
X0051122Y0238800D01*
X0051122Y0239980D02*
X0053878Y0239980D01*
X0053878Y0244526D02*
X0051122Y0244526D01*
X0051122Y0247282D01*
X0053878Y0247282D01*
X0053878Y0244526D01*
X0053878Y0245706D02*
X0051122Y0245706D01*
X0051122Y0246886D02*
X0053878Y0246886D01*
X0103122Y0244526D02*
X0105878Y0244526D01*
X0103122Y0244526D02*
X0103122Y0247282D01*
X0105878Y0247282D01*
X0105878Y0244526D01*
X0105878Y0245706D02*
X0103122Y0245706D01*
X0103122Y0246886D02*
X0105878Y0246886D01*
X0105878Y0237620D02*
X0103122Y0237620D01*
X0103122Y0240376D01*
X0105878Y0240376D01*
X0105878Y0237620D01*
X0105878Y0238800D02*
X0103122Y0238800D01*
X0103122Y0239980D02*
X0105878Y0239980D01*
X0153043Y0237620D02*
X0155799Y0237620D01*
X0153043Y0237620D02*
X0153043Y0240376D01*
X0155799Y0240376D01*
X0155799Y0237620D01*
X0155799Y0238800D02*
X0153043Y0238800D01*
X0153043Y0239980D02*
X0155799Y0239980D01*
X0155799Y0244526D02*
X0153043Y0244526D01*
X0153043Y0247282D01*
X0155799Y0247282D01*
X0155799Y0244526D01*
X0155799Y0245706D02*
X0153043Y0245706D01*
X0153043Y0246886D02*
X0155799Y0246886D01*
X0205043Y0244526D02*
X0207799Y0244526D01*
X0205043Y0244526D02*
X0205043Y0247282D01*
X0207799Y0247282D01*
X0207799Y0244526D01*
X0207799Y0245706D02*
X0205043Y0245706D01*
X0205043Y0246886D02*
X0207799Y0246886D01*
X0207799Y0237620D02*
X0205043Y0237620D01*
X0205043Y0240376D01*
X0207799Y0240376D01*
X0207799Y0237620D01*
X0207799Y0238800D02*
X0205043Y0238800D01*
X0205043Y0239980D02*
X0207799Y0239980D01*
X0254964Y0237620D02*
X0257720Y0237620D01*
X0254964Y0237620D02*
X0254964Y0240376D01*
X0257720Y0240376D01*
X0257720Y0237620D01*
X0257720Y0238800D02*
X0254964Y0238800D01*
X0254964Y0239980D02*
X0257720Y0239980D01*
X0257720Y0244526D02*
X0254964Y0244526D01*
X0254964Y0247282D01*
X0257720Y0247282D01*
X0257720Y0244526D01*
X0257720Y0245706D02*
X0254964Y0245706D01*
X0254964Y0246886D02*
X0257720Y0246886D01*
X0306964Y0244526D02*
X0309720Y0244526D01*
X0306964Y0244526D02*
X0306964Y0247282D01*
X0309720Y0247282D01*
X0309720Y0244526D01*
X0309720Y0245706D02*
X0306964Y0245706D01*
X0306964Y0246886D02*
X0309720Y0246886D01*
X0309720Y0237620D02*
X0306964Y0237620D01*
X0306964Y0240376D01*
X0309720Y0240376D01*
X0309720Y0237620D01*
X0309720Y0238800D02*
X0306964Y0238800D01*
X0306964Y0239980D02*
X0309720Y0239980D01*
X0309720Y0050825D02*
X0306964Y0050825D01*
X0306964Y0053581D01*
X0309720Y0053581D01*
X0309720Y0050825D01*
X0309720Y0052005D02*
X0306964Y0052005D01*
X0306964Y0053185D02*
X0309720Y0053185D01*
X0309720Y0043919D02*
X0306964Y0043919D01*
X0306964Y0046675D01*
X0309720Y0046675D01*
X0309720Y0043919D01*
X0309720Y0045099D02*
X0306964Y0045099D01*
X0306964Y0046279D02*
X0309720Y0046279D01*
X0257720Y0043919D02*
X0254964Y0043919D01*
X0254964Y0046675D01*
X0257720Y0046675D01*
X0257720Y0043919D01*
X0257720Y0045099D02*
X0254964Y0045099D01*
X0254964Y0046279D02*
X0257720Y0046279D01*
X0257720Y0050825D02*
X0254964Y0050825D01*
X0254964Y0053581D01*
X0257720Y0053581D01*
X0257720Y0050825D01*
X0257720Y0052005D02*
X0254964Y0052005D01*
X0254964Y0053185D02*
X0257720Y0053185D01*
X0207799Y0050825D02*
X0205043Y0050825D01*
X0205043Y0053581D01*
X0207799Y0053581D01*
X0207799Y0050825D01*
X0207799Y0052005D02*
X0205043Y0052005D01*
X0205043Y0053185D02*
X0207799Y0053185D01*
X0207799Y0043919D02*
X0205043Y0043919D01*
X0205043Y0046675D01*
X0207799Y0046675D01*
X0207799Y0043919D01*
X0207799Y0045099D02*
X0205043Y0045099D01*
X0205043Y0046279D02*
X0207799Y0046279D01*
X0155799Y0043919D02*
X0153043Y0043919D01*
X0153043Y0046675D01*
X0155799Y0046675D01*
X0155799Y0043919D01*
X0155799Y0045099D02*
X0153043Y0045099D01*
X0153043Y0046279D02*
X0155799Y0046279D01*
X0155799Y0050825D02*
X0153043Y0050825D01*
X0153043Y0053581D01*
X0155799Y0053581D01*
X0155799Y0050825D01*
X0155799Y0052005D02*
X0153043Y0052005D01*
X0153043Y0053185D02*
X0155799Y0053185D01*
X0105878Y0050825D02*
X0103122Y0050825D01*
X0103122Y0053581D01*
X0105878Y0053581D01*
X0105878Y0050825D01*
X0105878Y0052005D02*
X0103122Y0052005D01*
X0103122Y0053185D02*
X0105878Y0053185D01*
X0105878Y0043919D02*
X0103122Y0043919D01*
X0103122Y0046675D01*
X0105878Y0046675D01*
X0105878Y0043919D01*
X0105878Y0045099D02*
X0103122Y0045099D01*
X0103122Y0046279D02*
X0105878Y0046279D01*
X0053878Y0043919D02*
X0051122Y0043919D01*
X0051122Y0046675D01*
X0053878Y0046675D01*
X0053878Y0043919D01*
X0053878Y0045099D02*
X0051122Y0045099D01*
X0051122Y0046279D02*
X0053878Y0046279D01*
X0053878Y0050825D02*
X0051122Y0050825D01*
X0051122Y0053581D01*
X0053878Y0053581D01*
X0053878Y0050825D01*
X0053878Y0052005D02*
X0051122Y0052005D01*
X0051122Y0053185D02*
X0053878Y0053185D01*
D25*
X0056413Y0104750D03*
X0045587Y0104750D03*
X0147508Y0104750D03*
X0158335Y0104750D03*
X0249429Y0104750D03*
X0260256Y0104750D03*
X0260256Y0298451D03*
X0249429Y0298451D03*
X0158335Y0298451D03*
X0147508Y0298451D03*
X0056413Y0298451D03*
X0045587Y0298451D03*
D26*
X0051000Y0304455D03*
X0051000Y0292447D03*
X0152921Y0292447D03*
X0152921Y0304455D03*
X0254842Y0304455D03*
X0254842Y0292447D03*
X0254842Y0110754D03*
X0254842Y0098746D03*
X0152921Y0098746D03*
X0152921Y0110754D03*
X0051000Y0110754D03*
X0051000Y0098746D03*
D27*
X0061000Y0089774D03*
X0066000Y0089774D03*
X0071000Y0089774D03*
X0076000Y0089774D03*
X0081000Y0089774D03*
X0086000Y0089774D03*
X0091000Y0089774D03*
X0096000Y0089774D03*
X0096000Y0067726D03*
X0091000Y0067726D03*
X0086000Y0067726D03*
X0081000Y0067726D03*
X0076000Y0067726D03*
X0071000Y0067726D03*
X0066000Y0067726D03*
X0061000Y0067726D03*
X0162921Y0067726D03*
X0167921Y0067726D03*
X0172921Y0067726D03*
X0177921Y0067726D03*
X0182921Y0067726D03*
X0187921Y0067726D03*
X0192921Y0067726D03*
X0197921Y0067726D03*
X0197921Y0089774D03*
X0192921Y0089774D03*
X0187921Y0089774D03*
X0182921Y0089774D03*
X0177921Y0089774D03*
X0172921Y0089774D03*
X0167921Y0089774D03*
X0162921Y0089774D03*
X0264842Y0089774D03*
X0269842Y0089774D03*
X0274842Y0089774D03*
X0279842Y0089774D03*
X0284842Y0089774D03*
X0289842Y0089774D03*
X0294842Y0089774D03*
X0299842Y0089774D03*
X0299842Y0067726D03*
X0294842Y0067726D03*
X0289842Y0067726D03*
X0284842Y0067726D03*
X0279842Y0067726D03*
X0274842Y0067726D03*
X0269842Y0067726D03*
X0264842Y0067726D03*
X0264842Y0261427D03*
X0269842Y0261427D03*
X0274842Y0261427D03*
X0279842Y0261427D03*
X0284842Y0261427D03*
X0289842Y0261427D03*
X0294842Y0261427D03*
X0299842Y0261427D03*
X0299842Y0283474D03*
X0294842Y0283474D03*
X0289842Y0283474D03*
X0284842Y0283474D03*
X0279842Y0283474D03*
X0274842Y0283474D03*
X0269842Y0283474D03*
X0264842Y0283474D03*
X0197921Y0283474D03*
X0192921Y0283474D03*
X0187921Y0283474D03*
X0182921Y0283474D03*
X0177921Y0283474D03*
X0172921Y0283474D03*
X0167921Y0283474D03*
X0162921Y0283474D03*
X0162921Y0261427D03*
X0167921Y0261427D03*
X0172921Y0261427D03*
X0177921Y0261427D03*
X0182921Y0261427D03*
X0187921Y0261427D03*
X0192921Y0261427D03*
X0197921Y0261427D03*
X0096000Y0261427D03*
X0091000Y0261427D03*
X0086000Y0261427D03*
X0081000Y0261427D03*
X0076000Y0261427D03*
X0071000Y0261427D03*
X0066000Y0261427D03*
X0061000Y0261427D03*
X0061000Y0283474D03*
X0066000Y0283474D03*
X0071000Y0283474D03*
X0076000Y0283474D03*
X0081000Y0283474D03*
X0086000Y0283474D03*
X0091000Y0283474D03*
X0096000Y0283474D03*
M02*
